<svg width="393" height="367" viewBox="0 0 393 367" fill="none" xmlns="http://www.w3.org/2000/svg">
<path d="M59.9861 141.488C47.6327 144.949 37.7949 163.174 34.4293 171.829C25.2723 173.648 5.53962 180.356 0 191.859C1.32692 204.543 21.6686 212.917 29.6779 217.688C26.5725 226.438 17.7435 243.975 24.8653 254.584C35.9473 258.739 53.5421 247.757 61.7622 243.355C69.9822 247.757 86.205 259.933 97.8569 254.584C104.979 243.975 96.9518 226.438 93.8464 217.688C101.856 212.917 118.989 204.743 120.316 192.059C114.776 180.555 95.0773 174.041 85.9203 172.222C82.5548 163.568 72.3395 144.949 59.9861 141.488Z" fill="#C2EDFB" style="mix-blend-mode:luminosity"/>
<path d="M120.791 0C116.068 1.33109 112.307 8.33881 111.02 11.6665C107.519 12.366 99.9749 14.9453 97.8569 19.3685C98.3643 24.2457 106.141 27.4656 109.204 29.2999C108.016 32.6643 104.641 39.4079 107.364 43.4873C111.601 45.0846 118.328 40.8622 121.47 39.1694C124.613 40.8622 130.815 45.5438 135.27 43.4873C137.993 39.4079 134.924 32.6643 133.737 29.2999C136.799 27.4656 143.35 24.3224 143.857 19.4453C141.739 15.022 134.208 12.5173 130.707 11.8178C129.42 8.49007 125.514 1.33109 120.791 0Z" fill="#C2EDFB" style="mix-blend-mode:luminosity"/>
<path d="M348.441 68.4877C344.232 69.6676 340.879 75.879 339.732 78.8285C336.612 79.4485 329.888 81.7347 328 85.6553C328.452 89.9782 335.384 92.8323 338.113 94.4581C337.055 97.4402 334.046 103.417 336.473 107.033C340.25 108.449 346.246 104.706 349.047 103.206C351.848 104.706 357.376 108.856 361.347 107.033C363.774 103.417 361.038 97.4402 359.98 94.4581C362.709 92.8323 368.548 90.0463 369 85.7233C367.112 81.8027 360.399 79.5826 357.279 78.9626C356.132 76.013 352.651 69.6676 348.441 68.4877Z" fill="#C2EDFB" style="mix-blend-mode:luminosity"/>
<path d="M245.934 174.488C241.211 175.819 237.45 182.826 236.163 186.154C232.662 186.854 225.118 189.433 223 193.856C223.507 198.733 231.284 201.953 234.347 203.788C233.159 207.152 229.784 213.895 232.507 217.975C236.744 219.572 243.471 215.35 246.613 213.657C249.756 215.35 255.958 220.031 260.413 217.975C263.136 213.895 260.067 207.152 258.88 203.788C261.942 201.953 268.493 198.81 269 193.933C266.882 189.51 259.351 187.005 255.85 186.305C254.563 182.978 250.657 175.819 245.934 174.488Z" fill="#C2EDFB" style="mix-blend-mode:luminosity"/>
<path d="M148.381 155.488C139.859 157.878 133.073 170.46 130.751 176.434C124.434 177.69 110.822 182.321 107 190.263C107.915 199.02 121.948 204.801 127.473 208.094C125.331 214.135 119.24 226.243 124.153 233.567C131.798 236.435 143.936 228.854 149.607 225.814C155.277 228.854 166.469 237.259 174.507 233.567C179.42 226.243 173.882 214.135 171.74 208.094C177.265 204.801 189.085 199.157 190 190.401C186.178 182.459 172.589 177.962 166.272 176.706C163.95 170.731 156.903 157.878 148.381 155.488Z" fill="#C2EDFB" style="mix-blend-mode:luminosity"/>
<path d="M210.857 12.4877C200.59 15.3616 192.413 30.492 189.616 37.6768C182.005 39.187 165.604 44.756 161 54.3062C162.103 64.8364 179.01 71.7886 185.667 75.7489C183.086 83.013 175.747 97.5729 181.667 106.381C190.877 109.83 205.501 100.713 212.333 97.058C219.165 100.713 232.649 110.821 242.333 106.381C248.253 97.5729 241.581 83.013 239 75.7489C245.657 71.7886 259.897 65.0021 261 54.4718C256.396 44.9217 240.023 39.5136 232.412 38.0034C229.615 30.8185 221.125 15.3616 210.857 12.4877Z" fill="#C2EDFB" style="mix-blend-mode:luminosity"/>
<path d="M339.857 156.488C329.59 159.362 321.413 174.492 318.616 181.677C311.005 183.187 294.604 188.756 290 198.306C291.103 208.836 308.01 215.788 314.667 219.749C312.086 227.013 304.747 241.573 310.667 250.38C319.877 253.829 334.501 244.713 341.333 241.058C348.165 244.713 361.649 254.821 371.333 250.38C377.253 241.573 370.581 227.013 368 219.749C374.657 215.788 388.897 209.002 390 198.472C385.396 188.922 369.023 183.514 361.412 182.003C358.615 174.818 350.125 159.362 339.857 156.488Z" fill="#C2EDFB" style="mix-blend-mode:luminosity"/>
<path d="M274.989 78.5157C264.722 81.3897 256.545 96.52 253.748 103.705C246.137 105.215 229.736 110.784 225.132 120.334C226.235 130.864 243.142 137.816 249.799 141.777C247.218 149.041 239.88 163.601 245.799 172.409C255.01 175.857 269.633 166.741 276.465 163.086C283.298 166.741 296.781 176.849 306.465 172.409C312.385 163.601 305.713 149.041 303.132 141.777C309.789 137.816 324.029 131.03 325.132 120.5C320.528 110.95 304.155 105.542 296.544 104.031C293.747 96.8466 285.257 81.3897 274.989 78.5157Z" fill="#C2EDFB" style="mix-blend-mode:luminosity"/>
<path d="M141.986 82.4877C129.633 85.9495 119.795 104.174 116.429 112.829C107.272 114.648 87.5396 121.356 82 132.859C83.3269 145.543 103.669 153.917 111.678 158.688C108.573 167.438 99.7435 184.975 106.865 195.585C117.947 199.739 135.542 188.758 143.762 184.355C151.982 188.758 168.205 200.933 179.857 195.585C186.979 184.975 178.952 167.438 175.846 158.688C183.856 153.917 200.989 145.743 202.316 133.059C196.776 121.555 177.077 115.041 167.92 113.222C164.555 104.568 154.34 85.9495 141.986 82.4877Z" fill="#C2EDFB" style="mix-blend-mode:luminosity"/>
<path d="M141.986 82.4877C129.633 85.9495 119.795 104.174 116.429 112.829C107.272 114.648 87.5396 121.356 82 132.859C83.3269 145.543 103.669 153.917 111.678 158.688C108.573 167.438 99.7435 184.975 106.865 195.585C117.947 199.739 135.542 188.758 143.762 184.355C151.982 188.758 168.205 200.933 179.857 195.585C186.979 184.975 178.952 167.438 175.846 158.688C183.856 153.917 200.989 145.743 202.316 133.059C196.776 121.555 177.077 115.041 167.92 113.222C164.555 104.568 154.34 85.9495 141.986 82.4877Z" fill="#C2EDFB" style="mix-blend-mode:luminosity"/>
<path d="M210.906 155.488C204.129 157.394 198.733 167.427 196.886 172.192C191.863 173.194 181.039 176.887 178 183.22C178.728 190.203 189.886 194.813 194.28 197.44C192.577 202.257 187.733 211.913 191.64 217.753C197.719 220.041 207.371 213.995 211.88 211.571C216.389 213.995 225.288 220.698 231.68 217.753C235.587 211.913 231.184 202.257 229.48 197.44C233.874 194.813 243.272 190.313 244 183.33C240.961 176.996 230.155 173.41 225.132 172.409C223.286 167.644 217.682 157.394 210.906 155.488Z" fill="#C2EDFB" style="mix-blend-mode:luminosity"/>
<path d="M52.3815 43.4877C43.8595 45.8776 37.0728 58.4597 34.7511 64.4344C28.4341 65.6903 14.8215 70.3213 11 78.2631C11.9154 87.0198 25.9481 92.801 31.4733 96.0944C29.3311 102.135 23.2404 114.243 28.1533 121.567C35.7983 124.435 47.9361 116.854 53.6067 113.814C59.2773 116.854 70.4686 125.259 78.5067 121.567C83.4196 114.243 77.8823 102.135 75.74 96.0944C81.2652 92.801 93.0846 87.1576 94 78.4008C90.1785 70.4591 76.5892 65.9619 70.2722 64.706C67.9505 58.7312 60.9035 45.8776 52.3815 43.4877Z" fill="#C2EDFB" style="mix-blend-mode:luminosity"/>
<path d="M0 196.488H393L390 366.5H0V196.488Z" fill="#C2EDFB" style="mix-blend-mode:luminosity"/>
</svg>
