<?xml version="1.0" encoding="UTF-8" standalone="no"?>
<svg
   width="85.775894"
   height="83.574265"
   viewBox="0 0 85.775894 83.574265"
   fill="none"
   version="1.1"
   id="svg4"
   sodipodi:docname="feito.svg"
   inkscape:version="1.3.2 (091e20e, 2023-11-25)"
   xmlns:inkscape="http://www.inkscape.org/namespaces/inkscape"
   xmlns:sodipodi="http://sodipodi.sourceforge.net/DTD/sodipodi-0.dtd"
   xmlns="http://www.w3.org/2000/svg"
   xmlns:svg="http://www.w3.org/2000/svg">
  <sodipodi:namedview
     id="namedview4"
     pagecolor="#ffffff"
     bordercolor="#000000"
     borderopacity="0.25"
     inkscape:showpageshadow="2"
     inkscape:pageopacity="0.0"
     inkscape:pagecheckerboard="0"
     inkscape:deskcolor="#d1d1d1"
     inkscape:zoom="1.6737589"
     inkscape:cx="43.016949"
     inkscape:cy="37.042373"
     inkscape:window-width="1504"
     inkscape:window-height="449"
     inkscape:window-x="0"
     inkscape:window-y="25"
     inkscape:window-maximized="0"
     inkscape:current-layer="svg4" />
  <path
     d="m 14.772004,21.473725 c 6.8432,0 12.9157,-4.4152 15.0146,-10.9302 4.0995,-12.7247 22.1029,-12.7247 26.2024,0 2.0989,6.515 8.1714,10.9302 15.0148,10.9302 13.346,0 18.865,17.1922 8.056,25.1128 -5.514,4.0397 -7.835,11.2471 -5.741,17.7498 4.103,12.7332 -10.4118,23.4242 -21.1233,15.5752 -5.541,-4.06 -13.0744,-4.06 -18.6154,0 -10.7115,7.849 -25.2260005,-2.842 -21.1237,-15.5752 2.0949,-6.5027 -0.227,-13.7101 -5.7401005,-17.7498 -10.8094,-7.9206 -5.2901,-25.1128 8.0557005,-25.1128 z"
     fill="url(#paint0_linear_590_767)"
     stroke="#9adada"
     stroke-width="2"
     id="path1"
     style="fill:url(#paint0_linear_590_767)" />
  <path
     d="m 44.873804,51.604425 c -1.7793,1.8801 -4.7727,1.8801 -6.552,0 l -1.598,-1.6886 c -0.7494,-0.7919 -0.7494,-2.0315 0,-2.8235 0.8111,-0.857 2.1758,-0.856 2.9856,0.0022 l 0.198,0.2098 c 0.9175,0.9724 2.464,0.9732 3.3826,0.0016 l 6.6953,-7.0819 c 0.8105,-0.8573 2.1748,-0.8577 2.9858,-8e-4 0.7498,0.7924 0.7498,2.0326 0,2.825 z"
     fill="#65c2c2"
     id="path2" />
  <defs
     id="defs4">
    <linearGradient
       id="paint0_linear_590_767"
       x1="73.5"
       y1="0"
       x2="73.5"
       y2="141"
       gradientUnits="userSpaceOnUse"
       gradientTransform="translate(-30.612196,-33.383475)">
      <stop
         stop-color="#DCF0F0"
         id="stop2" />
      <stop
         offset="0.551355"
         stop-color="#C7E9E9"
         id="stop3" />
      <stop
         offset="1"
         stop-color="#B7E4E4"
         id="stop4" />
    </linearGradient>
  </defs>
</svg>
