<svg width="67" height="65" viewBox="0 0 67 65" fill="none" xmlns="http://www.w3.org/2000/svg">
<mask id="mask0_497_389" style="mask-type:alpha" maskUnits="userSpaceOnUse" x="0" y="0" width="67" height="65">
<rect width="67" height="65" fill="#D9D9D9"/>
</mask>
<g mask="url(#mask0_497_389)">
<mask id="path-2-inside-1_497_389" fill="white">
<path fill-rule="evenodd" clip-rule="evenodd" d="M33.4681 1.05226C31.1136 9.18158 29.9772 20.5423 34.3305 31.2974C39.3033 43.5827 35.9884 51.3349 33.3079 57.6035C33.0095 58.3013 32.719 58.9806 32.4487 59.6458C35.2281 59.268 38.1203 59.9485 40.4933 61.6872C49.1583 68.0365 60.8171 59.3737 57.523 49.149C56.048 44.5704 57.6845 39.4928 61.5646 36.6497C70.255 30.2817 65.8419 16.4247 55.0681 16.4247C50.2523 16.4247 45.9793 13.3174 44.5025 8.73361C42.7918 3.42337 38.0764 0.862921 33.4681 1.05226Z"/>
</mask>
<path fill-rule="evenodd" clip-rule="evenodd" d="M33.4681 1.05226C31.1136 9.18158 29.9772 20.5423 34.3305 31.2974C39.3033 43.5827 35.9884 51.3349 33.3079 57.6035C33.0095 58.3013 32.719 58.9806 32.4487 59.6458C35.2281 59.268 38.1203 59.9485 40.4933 61.6872C49.1583 68.0365 60.8171 59.3737 57.523 49.149C56.048 44.5704 57.6845 39.4928 61.5646 36.6497C70.255 30.2817 65.8419 16.4247 55.0681 16.4247C50.2523 16.4247 45.9793 13.3174 44.5025 8.73361C42.7918 3.42337 38.0764 0.862921 33.4681 1.05226Z" fill="url(#paint0_linear_497_389)"/>
<path d="M34.3305 31.2974L32.9105 31.8721L32.9105 31.8721L34.3305 31.2974ZM33.4681 1.05226L33.4052 -0.478365L32.3034 -0.433097L31.9967 0.626081L33.4681 1.05226ZM33.3079 57.6035L31.8993 57.0012L31.8993 57.0012L33.3079 57.6035ZM32.4487 59.6458L31.0295 59.0691L30.0333 61.5202L32.655 61.1638L32.4487 59.6458ZM40.4933 61.6872L39.5878 62.9229L39.5878 62.9229L40.4933 61.6872ZM57.523 49.149L58.9811 48.6792L58.9811 48.6792L57.523 49.149ZM61.5646 36.6497L60.6592 35.414L60.6592 35.414L61.5646 36.6497ZM44.5025 8.73361L43.0444 9.20337L43.0444 9.20337L44.5025 8.73361ZM35.7505 30.7226C31.5691 20.3923 32.6429 9.40805 34.9395 1.47844L31.9967 0.626081C29.5843 8.95512 28.3852 20.6924 32.9105 31.8721L35.7505 30.7226ZM34.7164 58.2058C36.0518 55.0828 37.6362 51.3961 38.2088 46.9002C38.7857 42.3701 38.3306 37.0967 35.7505 30.7226L32.9105 31.8721C35.3032 37.7834 35.677 42.5287 35.1695 46.5132C34.6577 50.5319 33.2444 53.8556 31.8993 57.0012L34.7164 58.2058ZM33.8678 60.2226C34.1321 59.5725 34.417 58.9061 34.7164 58.2058L31.8993 57.0012C31.602 57.6965 31.3059 58.3888 31.0295 59.0691L33.8678 60.2226ZM41.3987 60.4515C38.6974 58.4721 35.4045 57.698 32.2423 58.1279L32.655 61.1638C35.0516 60.838 37.5433 61.4248 39.5878 62.9229L41.3987 60.4515ZM56.0649 49.6187C58.9267 58.5017 48.805 65.8785 41.3987 60.4515L39.5878 62.9229C49.5116 70.1946 62.7075 60.2457 58.9811 48.6792L56.0649 49.6187ZM60.6592 35.414C56.2448 38.6486 54.3882 44.4142 56.0649 49.6187L58.9811 48.6792C57.7078 44.7266 59.1242 40.3371 62.4701 37.8853L60.6592 35.414ZM55.0681 17.9567C64.3191 17.9567 68.189 29.8965 60.6592 35.414L62.4701 37.8853C72.3211 30.667 67.3647 14.8928 55.0681 14.8928V17.9567ZM43.0444 9.20337C44.7255 14.4213 49.5884 17.9567 55.0681 17.9567V14.8928C50.9162 14.8928 47.2331 12.2135 45.9607 8.26386L43.0444 9.20337ZM33.531 2.58288C37.5365 2.41831 41.5697 4.62588 43.0444 9.20337L45.9607 8.26386C44.0138 2.22086 38.6163 -0.692468 33.4052 -0.478365L33.531 2.58288Z" fill="#B6D6BB" mask="url(#path-2-inside-1_497_389)"/>
<path d="M11.7624 17.0183C17.004 17.0183 21.6552 13.6364 23.2629 8.64618C26.403 -1.10041 40.1928 -1.10041 43.3328 8.64618C44.9405 13.6364 49.5918 17.0183 54.8334 17.0183C65.0557 17.0183 69.2832 30.1868 61.0037 36.2536C56.7809 39.3479 55.0024 44.8684 56.6071 49.8492C59.7492 59.6024 48.6318 67.791 40.4272 61.7791C36.183 58.6692 30.4127 58.6692 26.1686 61.7791C17.964 67.791 6.84654 59.6024 9.98869 49.8492C11.5933 44.8684 9.81485 39.3479 5.59201 36.2536C-2.68749 30.1868 1.54002 17.0183 11.7624 17.0183Z" fill="url(#paint1_linear_497_389)" fill-opacity="0.1" stroke="#B6D6BB" stroke-width="1.53191"/>
</g>
<defs>
<linearGradient id="paint0_linear_497_389" x1="48.777" y1="1.04248" x2="48.777" y2="63.851" gradientUnits="userSpaceOnUse">
<stop stop-color="#D8EEDB"/>
<stop offset="1" stop-color="#B1D6B6"/>
</linearGradient>
<linearGradient id="paint1_linear_497_389" x1="33.2979" y1="-25" x2="33.2979" y2="94.4019" gradientUnits="userSpaceOnUse">
<stop stop-color="#D8EEDB"/>
<stop offset="1" stop-color="#B1D6B6"/>
</linearGradient>
</defs>
</svg>
