<svg width="772" height="734" viewBox="0 0 772 734" fill="none" xmlns="http://www.w3.org/2000/svg">
<path d="M221.53 195.144L221.8 195.091L221.899 194.835C232.663 167.156 253.783 124.159 282.089 85.3198C310.375 46.5084 345.772 11.9371 385.108 0.857738C424.445 11.9383 460.446 47.1377 489.337 86.5804C518.247 126.05 539.971 169.677 550.735 197.354L550.834 197.61L551.103 197.664C580.391 203.482 626.55 216.812 669.81 237.885C713.04 258.943 753.276 287.686 770.971 324.304C766.69 364.646 737.303 397.885 702.465 424.894C675.763 445.595 645.938 462.578 621.898 476.268C614.54 480.457 607.725 484.338 601.706 487.923L601.354 488.133L601.491 488.52C603.767 494.932 606.453 502.076 609.357 509.8C619.16 535.869 631.451 568.559 638.878 602.145C648.497 645.641 649.915 690.476 627.31 724.258C590.235 741.204 545.84 730.362 504.027 711.656C483.111 702.299 462.875 690.99 444.57 680.253C438.604 676.753 432.839 673.312 427.323 670.019C415.929 663.218 405.594 657.048 396.719 652.295L396.483 652.169L396.247 652.295C390.581 655.33 384.224 658.849 377.302 662.682C352.034 676.673 319.234 694.835 285.017 708.782C241.464 726.534 195.779 737.385 160.507 724.242C137.923 690.471 140.616 645.651 151.515 602.159C159.228 571.382 171.019 541.374 180.79 516.508C184.845 506.189 188.552 496.755 191.474 488.52L191.612 488.133L191.259 487.923C182.511 482.712 171.464 476.829 159.128 470.259C153.365 467.19 147.321 463.971 141.098 460.601C121.543 450.01 100.202 437.913 80.2023 424.238C40.2132 396.894 5.73595 363.337 1.44674 323.026C19.1426 286.406 59.4338 257.354 102.717 235.985C146.032 214.602 192.245 200.962 221.53 195.144Z" fill="black" stroke="black"/>
</svg>
