<?xml version="1.0" encoding="UTF-8" standalone="no"?>
<svg
   width="85.790672"
   height="83.587814"
   viewBox="0 0 85.790672 83.587814"
   fill="none"
   version="1.1"
   id="svg3"
   sodipodi:docname="bloqueado.svg"
   inkscape:version="1.3.2 (091e20e, 2023-11-25)"
   xmlns:inkscape="http://www.inkscape.org/namespaces/inkscape"
   xmlns:sodipodi="http://sodipodi.sourceforge.net/DTD/sodipodi-0.dtd"
   xmlns="http://www.w3.org/2000/svg"
   xmlns:svg="http://www.w3.org/2000/svg">
  <sodipodi:namedview
     id="namedview3"
     pagecolor="#ffffff"
     bordercolor="#000000"
     borderopacity="0.25"
     inkscape:showpageshadow="2"
     inkscape:pageopacity="0.0"
     inkscape:pagecheckerboard="0"
     inkscape:deskcolor="#d1d1d1"
     inkscape:zoom="3.4781804"
     inkscape:cx="50.313664"
     inkscape:cy="65.69527"
     inkscape:window-width="2560"
     inkscape:window-height="1440"
     inkscape:window-x="0"
     inkscape:window-y="0"
     inkscape:window-maximized="0"
     inkscape:current-layer="svg3" />
  <path
     d="m 14.779451,21.473786 c 6.8432,0 12.9157,-4.4152 15.0146,-10.9302 4.0995,-12.7246997 22.1029,-12.7246997 26.2024,0 2.0989,6.515 8.1714,10.9302 15.0148,10.9302 13.346,0 18.865,17.1922 8.056,25.1128 -5.514,4.0397 -7.835,11.2471 -5.741,17.7498 4.103,12.7332 -10.4118,23.4242 -21.1233,15.5752 -5.541,-4.06 -13.0744,-4.06 -18.6154,0 -10.7115,7.849 -25.226,-2.842 -21.1237,-15.5752 2.0949,-6.5027 -0.227,-13.7101 -5.7401,-17.7498 -10.8094,-7.9206 -5.2901,-25.1128 8.0557,-25.1128 z"
     fill="url(#paint0_linear_599_768)"
     fill-opacity="0.1"
     stroke="#DBDBDB"
     stroke-width="2"
     id="path1"
     style="fill:url(#paint0_linear_599_768);stroke:#dbdbdb;stroke-dasharray:6, 2;stroke-dashoffset:0;stroke-opacity:1" />
  <path
     d="m 39.495351,54.457886 c -1.1154,0 -1.6961,-0.5883 -1.6961,-1.7955 v -5.18 c 0,-1.062 0.4661,-1.6503 1.3523,-1.7649 v -1.7037 c 0,-2.6435 1.7496,-4.0493 3.759,-4.0493 2.0093,0 3.7742,1.4058 3.7742,4.0493 l -0.0076,1.7037 c 0.7029,0.0994 1.1384,0.489 1.2759,1.1766 l 0.0076,0.0993 c -0.2292,-0.0382 -0.4507,-0.0534 -0.6876,-0.0534 -2.6282,0 -4.7827,2.1545 -4.7827,4.7751 0,1.0161 0.3285,1.9635 0.8939,2.7428 z m 1.1002,-10.5587 v 1.7954 h 4.6452 v -1.7954 c 0,-1.6427 -1.062,-2.5442 -2.3302,-2.5442 -1.2606,0 -2.315,0.9015 -2.315,2.5442 z m 6.6775,11.5595 c -2.0476,0 -3.7437,-1.6884 -3.7437,-3.7436 0,-2.0476 1.6961,-3.7361 3.7437,-3.7361 2.0552,0 3.7437,1.6885 3.7437,3.7361 0,2.0475 -1.7114,3.7436 -3.7437,3.7436 z m -1.719,-3.1095 h 1.7649 c 0.2979,0 0.5271,-0.2292 0.5271,-0.5272 v -2.1774 c 0,-0.2904 -0.2292,-0.5119 -0.5271,-0.5119 -0.2904,0 -0.5272,0.2215 -0.5272,0.5119 v 1.6579 h -1.2377 c -0.298,0 -0.5348,0.2292 -0.5348,0.5195 0,0.298 0.2368,0.5272 0.5348,0.5272 z"
     fill="#dbdbdb"
     id="path2" />
  <defs
     id="defs3">
    <linearGradient
       id="paint0_linear_599_768"
       x1="73.5"
       y1="0"
       x2="73.5"
       y2="155.886"
       gradientUnits="userSpaceOnUse"
       gradientTransform="translate(-30.604749,-33.383414)">
      <stop
         stop-color="#F7F7F7"
         id="stop2" />
      <stop
         offset="1"
         stop-color="#D8D8D8"
         id="stop3" />
    </linearGradient>
  </defs>
</svg>
