<svg width="131" height="127" viewBox="0 0 131 127" fill="none" xmlns="http://www.w3.org/2000/svg">
<path d="M62.9324 21.8174C53.0652 24.5824 45.2072 39.1395 42.519 46.0521C35.2049 47.5051 19.4435 52.8631 15.0188 62.0514C16.0787 72.1827 32.3265 78.8714 38.7239 82.6818C36.2434 89.6706 29.1913 103.679 34.8798 112.153C43.7315 115.471 57.7853 106.7 64.351 103.183C70.9167 106.7 83.8745 116.425 93.1815 112.153C98.8699 103.679 92.4585 89.6706 89.9781 82.6818C96.3755 78.8714 110.061 72.3421 111.12 62.2108C106.696 53.0225 90.9613 47.8194 83.6472 46.3663C80.959 39.4537 72.7996 24.5824 62.9324 21.8174Z" fill="url(#paint0_radial_342_2756)"/>
<path d="M66.3085 77.1824C63.2347 78.375 61.9873 77.1824 61.7471 77.1824C59.8259 76.1886 59.585 78.4247 59.8255 78.9215C60.066 79.4184 60.4668 80.0281 60.9467 80.525C63.3486 82.5125 65.5885 81.9029 66.7888 80.4122C68.7104 77.4309 67.2691 76.8512 66.3085 77.1824Z" fill="#082A39"/>
<path d="M61.7454 80.9244C62.411 80.3919 64.2215 79.6464 66.1385 80.9244C64.2215 82.5219 62.411 81.59 61.7454 80.9244Z" fill="#DC6060"/>
<path d="M48.2134 57.214C48.4269 56.7869 49.3666 55.9326 51.4168 55.9326" stroke="#25607A" stroke-width="0.638995" stroke-linecap="round" stroke-linejoin="round"/>
<path d="M77.0442 57.8546C76.8306 57.4275 75.891 56.5732 73.8408 56.5732" stroke="#25607A" stroke-width="0.638995" stroke-linecap="round" stroke-linejoin="round"/>
<path d="M57.8237 74.512C57.8237 76.6351 54.1806 78.3561 52.0576 78.3561C49.9346 78.3561 46.2915 76.6351 46.2915 74.512C46.2915 72.389 49.9346 70.668 52.0576 70.668C54.1806 70.668 57.8237 72.389 57.8237 74.512Z" fill="#FFA498"/>
<path d="M81.3947 74.512C81.3947 76.6351 77.7517 78.3561 75.6286 78.3561C73.5056 78.3561 69.8625 76.6351 69.8625 74.512C69.8625 72.389 73.5056 70.668 75.6286 70.668C77.7517 70.668 81.3947 72.389 81.3947 74.512Z" fill="#FFA498"/>
<g filter="url(#filter0_d_342_2756)">
<path d="M28.6066 31.4023C29.2627 31.5715 29.7852 32.462 29.9639 32.8848C30.4503 32.9737 31.4983 33.3015 31.7925 33.8636C31.722 34.4833 30.6417 34.8925 30.2163 35.1256C30.3812 35.5531 30.8501 36.41 30.4719 36.9284C29.8833 37.1314 28.9489 36.5948 28.5123 36.3797C28.0757 36.5948 27.2142 37.1897 26.5953 36.9284C26.2171 36.41 26.6434 35.5531 26.8083 35.1256C26.3829 34.8925 25.473 34.4931 25.4025 33.8733C25.6967 33.3112 26.7429 32.993 27.2293 32.9041C27.408 32.4812 27.9505 31.5715 28.6066 31.4023Z" fill="url(#paint1_radial_342_2756)"/>
</g>
<g filter="url(#filter1_d_342_2756)">
<path d="M11.8329 80.9248C12.489 81.0939 13.0115 81.9844 13.1903 82.4073C13.6766 82.4962 14.7246 82.8239 15.0188 83.386C14.9483 84.0058 13.868 84.4149 13.4426 84.648C13.6075 85.0756 14.0764 85.9325 13.6982 86.4509C13.1096 86.6538 12.1752 86.1173 11.7386 85.9022C11.3021 86.1173 10.4405 86.7122 9.82164 86.4509C9.4434 85.9325 9.86971 85.0756 10.0346 84.648C9.60926 84.4149 8.69932 84.0155 8.62884 83.3958C8.92305 82.8337 9.96926 82.5154 10.4556 82.4265C10.6343 82.0037 11.1769 81.0939 11.8329 80.9248Z" fill="url(#paint2_radial_342_2756)"/>
</g>
<g filter="url(#filter2_d_342_2756)">
<path d="M118.865 80.9248C119.521 81.0939 120.043 81.9844 120.222 82.4073C120.708 82.4962 121.756 82.8239 122.051 83.386C121.98 84.0058 120.9 84.4149 120.474 84.648C120.639 85.0756 121.108 85.9325 120.73 86.4509C120.141 86.6538 119.207 86.1173 118.77 85.9022C118.334 86.1173 117.472 86.7122 116.853 86.4509C116.475 85.9325 116.901 85.0756 117.066 84.648C116.641 84.4149 115.731 84.0155 115.661 83.3958C115.955 82.8337 117.001 82.5154 117.487 82.4265C117.666 82.0037 118.209 81.0939 118.865 80.9248Z" fill="url(#paint3_radial_342_2756)"/>
</g>
<g filter="url(#filter3_d_342_2756)">
<path d="M74.1349 8.23926C74.791 8.4084 75.3135 9.2989 75.4923 9.72176C75.9786 9.81064 77.0266 10.1384 77.3208 10.7005C77.2503 11.3202 76.17 11.7294 75.7446 11.9625C75.9095 12.39 76.3784 13.2469 76.0002 13.7653C75.4116 13.9683 74.4772 13.4317 74.0406 13.2166C73.6041 13.4317 72.7425 14.0266 72.1236 13.7653C71.7454 13.2469 72.1717 12.39 72.3366 11.9625C71.9113 11.7294 71.0013 11.33 70.9308 10.7102C71.2251 10.1482 72.2713 9.82986 72.7576 9.74098C72.9363 9.31812 73.4789 8.4084 74.1349 8.23926Z" fill="url(#paint4_radial_342_2756)"/>
</g>
<path d="M58.1678 67.8281C55.8381 65.5075 52.9259 66.8612 51.7611 67.8281L50.1636 66.5468" stroke="#25607A" stroke-width="0.638995" stroke-linecap="round" stroke-linejoin="round"/>
<path d="M67.9394 72.7291C70.6427 75.3375 73.7364 73.3937 77.5569 72.5572C81.0474 71.5683 80.0883 65.5479 77.385 62.9396C74.6817 60.3313 70.3758 60.4083 67.7674 63.1115C65.1591 65.8148 65.2361 70.1208 67.9394 72.7291Z" fill="white"/>
<circle cx="5.12542" cy="5.12542" r="5.12542" transform="matrix(-0.694354 0.719633 0.719633 0.694354 71.4233 60.748)" fill="url(#paint5_linear_342_2756)"/>
<circle cx="4.48474" cy="4.48474" r="4.48474" transform="matrix(-0.694354 0.719633 0.719633 0.694354 70.5337 61.6699)" fill="#1A3A47"/>
<path d="M71.1058 64.2003C70.6531 63.9716 70.1769 64.4652 70.4216 64.9094C70.5307 65.1075 70.4966 65.355 70.3396 65.5178C69.9876 65.8826 70.2936 66.4921 70.7948 66.4158L70.8469 66.4079C71.0688 66.3742 71.2882 66.4824 71.3965 66.6789L71.432 66.7434C71.6726 67.18 72.3318 67.0503 72.3891 66.5551C72.4156 66.3257 72.5925 66.1425 72.8208 66.1077C73.3136 66.0328 73.4196 65.3693 72.9747 65.1445L72.909 65.1113C72.7087 65.0101 72.5927 64.7948 72.6185 64.5718L72.6246 64.5194C72.6829 64.0158 72.0628 63.7318 71.7108 64.0966C71.5538 64.2594 71.3076 64.3023 71.1058 64.2003Z" fill="white"/>
<defs>
<filter id="filter0_d_342_2756" x="17.4151" y="23.4149" width="22.3648" height="21.5657" filterUnits="userSpaceOnUse" color-interpolation-filters="sRGB">
<feFlood flood-opacity="0" result="BackgroundImageFix"/>
<feColorMatrix in="SourceAlpha" type="matrix" values="0 0 0 0 0 0 0 0 0 0 0 0 0 0 0 0 0 0 127 0" result="hardAlpha"/>
<feOffset/>
<feGaussianBlur stdDeviation="3.99372"/>
<feComposite in2="hardAlpha" operator="out"/>
<feColorMatrix type="matrix" values="0 0 0 0 1 0 0 0 0 0.99125 0 0 0 0 0.925 0 0 0 1 0"/>
<feBlend mode="normal" in2="BackgroundImageFix" result="effect1_dropShadow_342_2756"/>
<feBlend mode="normal" in="SourceGraphic" in2="effect1_dropShadow_342_2756" result="shape"/>
</filter>
<filter id="filter1_d_342_2756" x="0.641464" y="72.9374" width="22.3648" height="21.5657" filterUnits="userSpaceOnUse" color-interpolation-filters="sRGB">
<feFlood flood-opacity="0" result="BackgroundImageFix"/>
<feColorMatrix in="SourceAlpha" type="matrix" values="0 0 0 0 0 0 0 0 0 0 0 0 0 0 0 0 0 0 127 0" result="hardAlpha"/>
<feOffset/>
<feGaussianBlur stdDeviation="3.99372"/>
<feComposite in2="hardAlpha" operator="out"/>
<feColorMatrix type="matrix" values="0 0 0 0 1 0 0 0 0 0.99125 0 0 0 0 0.925 0 0 0 1 0"/>
<feBlend mode="normal" in2="BackgroundImageFix" result="effect1_dropShadow_342_2756"/>
<feBlend mode="normal" in="SourceGraphic" in2="effect1_dropShadow_342_2756" result="shape"/>
</filter>
<filter id="filter2_d_342_2756" x="107.673" y="72.9374" width="22.3648" height="21.5657" filterUnits="userSpaceOnUse" color-interpolation-filters="sRGB">
<feFlood flood-opacity="0" result="BackgroundImageFix"/>
<feColorMatrix in="SourceAlpha" type="matrix" values="0 0 0 0 0 0 0 0 0 0 0 0 0 0 0 0 0 0 127 0" result="hardAlpha"/>
<feOffset/>
<feGaussianBlur stdDeviation="3.99372"/>
<feComposite in2="hardAlpha" operator="out"/>
<feColorMatrix type="matrix" values="0 0 0 0 1 0 0 0 0 0.99125 0 0 0 0 0.925 0 0 0 1 0"/>
<feBlend mode="normal" in2="BackgroundImageFix" result="effect1_dropShadow_342_2756"/>
<feBlend mode="normal" in="SourceGraphic" in2="effect1_dropShadow_342_2756" result="shape"/>
</filter>
<filter id="filter3_d_342_2756" x="62.9435" y="0.251815" width="22.3648" height="21.5657" filterUnits="userSpaceOnUse" color-interpolation-filters="sRGB">
<feFlood flood-opacity="0" result="BackgroundImageFix"/>
<feColorMatrix in="SourceAlpha" type="matrix" values="0 0 0 0 0 0 0 0 0 0 0 0 0 0 0 0 0 0 127 0" result="hardAlpha"/>
<feOffset/>
<feGaussianBlur stdDeviation="3.99372"/>
<feComposite in2="hardAlpha" operator="out"/>
<feColorMatrix type="matrix" values="0 0 0 0 1 0 0 0 0 0.99125 0 0 0 0 0.925 0 0 0 1 0"/>
<feBlend mode="normal" in2="BackgroundImageFix" result="effect1_dropShadow_342_2756"/>
<feBlend mode="normal" in="SourceGraphic" in2="effect1_dropShadow_342_2756" result="shape"/>
</filter>
<radialGradient id="paint0_radial_342_2756" cx="0" cy="0" r="1" gradientUnits="userSpaceOnUse" gradientTransform="translate(66.1044 75.9103) rotate(91.1277) scale(25.6991 28.8338)">
<stop stop-color="#FFF2D4"/>
<stop offset="1" stop-color="#FEE09A"/>
</radialGradient>
<radialGradient id="paint1_radial_342_2756" cx="0" cy="0" r="1" gradientUnits="userSpaceOnUse" gradientTransform="translate(28.3957 34.7113) rotate(88.7742) scale(1.57214 1.91714)">
<stop stop-color="#C6FFF8"/>
<stop offset="1" stop-color="#48F2DE"/>
</radialGradient>
<radialGradient id="paint2_radial_342_2756" cx="0" cy="0" r="1" gradientUnits="userSpaceOnUse" gradientTransform="translate(11.622 84.2338) rotate(88.7742) scale(1.57214 1.91714)">
<stop stop-color="#FFD9DA"/>
<stop offset="1" stop-color="#FF9FA1"/>
</radialGradient>
<radialGradient id="paint3_radial_342_2756" cx="0" cy="0" r="1" gradientUnits="userSpaceOnUse" gradientTransform="translate(118.654 84.2338) rotate(88.7742) scale(1.57214 1.91714)">
<stop stop-color="#EED4FF"/>
<stop offset="1" stop-color="#D89DFF"/>
</radialGradient>
<radialGradient id="paint4_radial_342_2756" cx="0" cy="0" r="1" gradientUnits="userSpaceOnUse" gradientTransform="translate(73.924 11.5483) rotate(88.7742) scale(1.57214 1.91714)">
<stop stop-color="#DEFFDC"/>
<stop offset="1" stop-color="#9EE69A"/>
</radialGradient>
<linearGradient id="paint5_linear_342_2756" x1="5.12542" y1="0" x2="5.12542" y2="10.2508" gradientUnits="userSpaceOnUse">
<stop stop-color="#48C7FF"/>
<stop offset="1" stop-color="#0481B8"/>
</linearGradient>
</defs>
</svg>
