<svg width="66" height="65" viewBox="0 0 66 65" fill="none" xmlns="http://www.w3.org/2000/svg">
<path d="M11.5784 16.7858C16.7879 16.7858 21.4107 13.4247 23.0085 8.46505C26.1349 -1.23933 39.8651 -1.23933 42.9915 8.46506C44.5893 13.4247 49.2121 16.7858 54.4216 16.7858C64.5999 16.7858 68.8086 29.8973 60.5653 35.9377C56.3683 39.013 54.6007 44.4998 56.1955 49.4501C59.3239 59.1605 48.2551 67.3143 40.0856 61.3281C35.8675 58.2373 30.1325 58.2373 25.9144 61.3281C17.7449 67.3143 6.67612 59.1605 9.8045 49.4501C11.3993 44.4998 9.6317 39.013 5.43474 35.9377C-2.80862 29.8973 1.40012 16.7858 11.5784 16.7858Z" fill="url(#paint0_linear_497_371)" fill-opacity="0.3" stroke="#B6D6BB" stroke-width="1.50355"/>
<defs>
<linearGradient id="paint0_linear_497_371" x1="33" y1="-25" x2="33" y2="82.4286" gradientUnits="userSpaceOnUse">
<stop stop-color="#D8EEDB"/>
<stop offset="1" stop-color="#B1D6B6"/>
</linearGradient>
</defs>
</svg>
