<svg width="1211" height="1048" viewBox="0 0 1211 1048" fill="none" xmlns="http://www.w3.org/2000/svg">
<path d="M974.403 165.916C715.252 150.697 581.686 448.104 547.296 598.71C600.049 485.711 789.115 259.681 1123.36 259.555L974.403 165.916Z" fill="url(#paint0_linear_289_744)"/>
<path d="M1122.62 259.492C788.377 259.618 599.311 485.648 546.559 598.647C649.645 511.714 923.468 352.053 1181.32 407.77L1122.62 259.492Z" fill="url(#paint1_linear_289_744)"/>
<path d="M923.32 30.0146C566.584 96.914 523.998 437.02 547.298 598.71C581.687 448.105 715.253 150.698 974.404 165.916L948.862 97.9654L923.32 30.0146Z" fill="url(#paint2_linear_289_744)"/>
<path d="M495.108 204.389C415.993 226.559 352.987 343.278 331.433 398.704C272.788 410.355 146.412 453.315 110.935 526.987C119.433 608.22 249.708 661.851 301.003 692.403C281.115 748.44 224.571 860.758 270.181 928.704C341.155 955.309 453.838 884.981 506.483 856.786C559.127 884.981 663.024 962.957 737.647 928.704C783.258 860.758 731.851 748.44 711.962 692.403C763.257 661.851 872.985 609.499 881.483 528.265C846.005 454.593 719.846 412.874 661.201 401.223C639.647 345.798 574.224 226.559 495.108 204.389Z" fill="url(#paint3_radial_289_744)"/>
<path d="M527.178 648.309C502.531 657.871 492.529 648.308 490.603 648.308C475.2 640.34 473.267 658.269 475.196 662.253C477.125 666.237 480.338 671.125 484.186 675.11C503.444 691.046 521.404 686.157 531.029 674.205C546.436 650.301 534.88 645.653 527.178 648.309Z" fill="#082A39"/>
<path d="M382.091 488.206C383.804 484.781 391.338 477.932 407.776 477.932" stroke="#25607A" stroke-width="5.1235" stroke-linecap="round" stroke-linejoin="round"/>
<path d="M613.259 493.343C611.546 489.919 604.012 483.069 587.574 483.069" stroke="#25607A" stroke-width="5.1235" stroke-linecap="round" stroke-linejoin="round"/>
<path d="M459.146 626.903C459.146 643.925 429.936 657.725 412.914 657.725C395.891 657.725 366.681 643.925 366.681 626.903C366.681 609.881 395.891 596.081 412.914 596.081C429.936 596.081 459.146 609.881 459.146 626.903Z" fill="#FFA498"/>
<path d="M648.141 626.903C648.141 643.925 618.931 657.725 601.908 657.725C584.886 657.725 555.675 643.925 555.675 626.903C555.675 609.881 584.886 596.081 601.908 596.081C618.931 596.081 648.141 609.881 648.141 626.903Z" fill="#FFA498"/>
<g filter="url(#filter0_d_289_744)">
<path d="M224.882 281.241C230.142 282.597 234.332 289.737 235.765 293.128C239.664 293.841 248.067 296.469 250.426 300.975C249.861 305.945 241.199 309.225 237.788 311.094C239.111 314.522 242.87 321.393 239.838 325.549C235.119 327.177 227.626 322.875 224.126 321.15C220.625 322.875 213.717 327.645 208.755 325.549C205.722 321.393 209.141 314.522 210.463 311.094C207.052 309.225 199.756 306.023 199.191 301.054C201.55 296.547 209.939 293.995 213.838 293.282C215.271 289.892 219.621 282.597 224.882 281.241Z" fill="url(#paint4_radial_289_744)"/>
</g>
<g filter="url(#filter1_d_289_744)">
<path d="M90.3902 678.312C95.6508 679.669 99.8401 686.809 101.273 690.199C105.173 690.912 113.576 693.54 115.935 698.047C115.37 703.016 106.707 706.297 103.297 708.166C104.619 711.593 108.379 718.464 105.346 722.621C100.627 724.248 93.1343 719.946 89.6339 718.221C86.1335 719.946 79.2253 724.716 74.2634 722.621C71.2307 718.464 74.6489 711.593 75.9713 708.166C72.5606 706.297 65.2646 703.094 64.6996 698.125C67.0586 693.618 75.4471 691.066 79.3465 690.353C80.7797 686.963 85.1297 679.669 90.3902 678.312Z" fill="url(#paint5_radial_289_744)"/>
</g>
<g filter="url(#filter2_d_289_744)">
<path d="M948.576 678.312C953.837 679.669 958.026 686.809 959.459 690.199C963.359 690.912 971.762 693.54 974.121 698.047C973.556 703.016 964.893 706.297 961.483 708.166C962.805 711.593 966.565 718.464 963.532 722.621C958.813 724.248 951.32 719.946 947.82 718.221C944.32 719.946 937.411 724.716 932.449 722.621C929.417 718.464 932.835 711.593 934.157 708.166C930.747 706.297 923.451 703.094 922.886 698.125C925.245 693.618 933.633 691.066 937.533 690.353C938.966 686.963 943.316 679.669 948.576 678.312Z" fill="url(#paint6_radial_289_744)"/>
</g>
<g filter="url(#filter3_d_289_744)">
<path d="M589.931 95.5146C595.192 96.8709 599.381 104.011 600.814 107.401C604.714 108.114 613.117 110.742 615.476 115.249C614.911 120.218 606.248 123.499 602.838 125.368C604.16 128.796 607.92 135.666 604.887 139.823C600.168 141.45 592.675 137.148 589.175 135.423C585.675 137.148 578.766 141.918 573.804 139.823C570.772 135.666 574.19 128.796 575.512 125.368C572.102 123.499 564.806 120.296 564.241 115.327C566.6 110.82 574.988 108.268 578.888 107.556C580.321 104.165 584.671 96.8709 589.931 95.5146Z" fill="url(#paint7_radial_289_744)"/>
</g>
<path d="M547.253 594.599C568.928 615.513 593.734 599.927 624.367 593.22C652.353 585.291 644.663 537.02 622.988 516.106C601.313 495.192 566.788 495.809 545.874 517.485C524.96 539.16 525.577 573.685 547.253 594.599Z" fill="white"/>
<circle cx="41.0959" cy="41.0959" r="41.0959" transform="matrix(-0.694354 0.719633 0.719633 0.694354 575.189 498.536)" fill="url(#paint8_linear_289_744)"/>
<circle cx="35.9589" cy="35.9589" r="35.9589" transform="matrix(-0.694354 0.719633 0.719633 0.694354 568.056 505.929)" fill="#1A3A47"/>
<path d="M547.296 564.642C543.666 562.808 539.848 566.765 541.81 570.327C542.685 571.915 542.412 573.9 541.153 575.205C538.33 578.13 540.784 583.017 544.802 582.406L545.221 582.342C547 582.072 548.759 582.939 549.627 584.515L549.912 585.032C551.841 588.533 557.127 587.493 557.586 583.523C557.799 581.683 559.216 580.214 561.047 579.935C564.999 579.335 565.849 574.015 562.281 572.212L561.755 571.946C560.148 571.135 559.219 569.408 559.425 567.62L559.474 567.2C559.941 563.162 554.97 560.885 552.147 563.81C550.888 565.115 548.914 565.459 547.296 564.642Z" fill="white"/>
<path d="M572.642 526.216C569.012 524.382 565.194 528.34 567.156 531.901C568.031 533.489 567.758 535.474 566.498 536.779C563.676 539.704 566.13 544.591 570.148 543.98L570.566 543.916C572.345 543.646 574.104 544.513 574.973 546.09L575.257 546.606C577.186 550.107 582.472 549.067 582.932 545.097C583.144 543.257 584.562 541.788 586.393 541.51C590.344 540.909 591.194 535.589 587.627 533.786L587.1 533.521C585.494 532.709 584.564 530.982 584.771 529.194L584.82 528.774C585.287 524.736 580.315 522.459 577.493 525.384C576.234 526.689 574.26 527.033 572.642 526.216Z" fill="white"/>
<path d="M470.614 595.508C449.106 616.593 424.501 600.892 394.114 594.14C366.353 586.157 373.995 537.502 395.504 516.417C417.012 495.331 451.262 495.943 472.003 517.784C492.744 539.624 492.122 574.423 470.614 595.508Z" fill="white"/>
<circle cx="41.0959" cy="41.0959" r="41.0959" transform="matrix(0.688621 0.725121 -0.714096 0.700047 442.927 498.694)" fill="url(#paint9_linear_289_744)"/>
<circle cx="35.9589" cy="35.9589" r="35.9589" transform="matrix(0.688621 0.725121 -0.714096 0.700047 450.001 506.144)" fill="#1A3A47"/>
<path d="M470.579 565.314C474.18 563.465 477.967 567.453 476.02 571.043C475.151 572.644 475.422 574.645 476.67 575.959C479.469 578.907 477.034 583.833 473.048 583.218L472.633 583.154C470.868 582.882 469.123 583.757 468.261 585.346L467.978 585.866C466.064 589.396 460.82 588.349 460.366 584.347C460.155 582.493 458.749 581.013 456.933 580.733C453.013 580.128 452.171 574.767 455.711 572.949L456.233 572.681C457.827 571.862 458.75 570.122 458.545 568.32L458.497 567.896C458.035 563.827 462.968 561.53 465.767 564.478C467.015 565.792 468.973 566.139 470.579 565.314Z" fill="white"/>
<path d="M451.53 526.59C455.131 524.74 458.918 528.728 456.97 532.318C456.102 533.919 456.372 535.92 457.621 537.235C460.42 540.182 457.985 545.108 453.998 544.494L453.584 544.43C451.819 544.157 450.073 545.032 449.212 546.621L448.929 547.142C447.015 550.671 441.771 549.625 441.316 545.623C441.106 543.769 439.7 542.288 437.884 542.008C433.964 541.404 433.122 536.042 436.662 534.224L437.184 533.956C438.778 533.138 439.701 531.397 439.496 529.595L439.448 529.172C438.986 525.102 443.918 522.806 446.717 525.753C447.966 527.068 449.924 527.414 451.53 526.59Z" fill="white"/>
<path d="M489.351 677.565C494.603 673.296 508.891 667.318 524.019 677.565C508.891 690.374 494.603 682.902 489.351 677.565Z" fill="#DC6060"/>
<defs>
<filter id="filter0_d_289_744" x="135.148" y="217.197" width="179.322" height="172.919" filterUnits="userSpaceOnUse" color-interpolation-filters="sRGB">
<feFlood flood-opacity="0" result="BackgroundImageFix"/>
<feColorMatrix in="SourceAlpha" type="matrix" values="0 0 0 0 0 0 0 0 0 0 0 0 0 0 0 0 0 0 127 0" result="hardAlpha"/>
<feOffset/>
<feGaussianBlur stdDeviation="32.0219"/>
<feComposite in2="hardAlpha" operator="out"/>
<feColorMatrix type="matrix" values="0 0 0 0 1 0 0 0 0 0.99125 0 0 0 0 0.925 0 0 0 1 0"/>
<feBlend mode="normal" in2="BackgroundImageFix" result="effect1_dropShadow_289_744"/>
<feBlend mode="normal" in="SourceGraphic" in2="effect1_dropShadow_289_744" result="shape"/>
</filter>
<filter id="filter1_d_289_744" x="0.65596" y="614.269" width="179.322" height="172.919" filterUnits="userSpaceOnUse" color-interpolation-filters="sRGB">
<feFlood flood-opacity="0" result="BackgroundImageFix"/>
<feColorMatrix in="SourceAlpha" type="matrix" values="0 0 0 0 0 0 0 0 0 0 0 0 0 0 0 0 0 0 127 0" result="hardAlpha"/>
<feOffset/>
<feGaussianBlur stdDeviation="32.0219"/>
<feComposite in2="hardAlpha" operator="out"/>
<feColorMatrix type="matrix" values="0 0 0 0 1 0 0 0 0 0.99125 0 0 0 0 0.925 0 0 0 1 0"/>
<feBlend mode="normal" in2="BackgroundImageFix" result="effect1_dropShadow_289_744"/>
<feBlend mode="normal" in="SourceGraphic" in2="effect1_dropShadow_289_744" result="shape"/>
</filter>
<filter id="filter2_d_289_744" x="858.842" y="614.269" width="179.322" height="172.919" filterUnits="userSpaceOnUse" color-interpolation-filters="sRGB">
<feFlood flood-opacity="0" result="BackgroundImageFix"/>
<feColorMatrix in="SourceAlpha" type="matrix" values="0 0 0 0 0 0 0 0 0 0 0 0 0 0 0 0 0 0 127 0" result="hardAlpha"/>
<feOffset/>
<feGaussianBlur stdDeviation="32.0219"/>
<feComposite in2="hardAlpha" operator="out"/>
<feColorMatrix type="matrix" values="0 0 0 0 1 0 0 0 0 0.99125 0 0 0 0 0.925 0 0 0 1 0"/>
<feBlend mode="normal" in2="BackgroundImageFix" result="effect1_dropShadow_289_744"/>
<feBlend mode="normal" in="SourceGraphic" in2="effect1_dropShadow_289_744" result="shape"/>
</filter>
<filter id="filter3_d_289_744" x="500.197" y="31.4709" width="179.322" height="172.919" filterUnits="userSpaceOnUse" color-interpolation-filters="sRGB">
<feFlood flood-opacity="0" result="BackgroundImageFix"/>
<feColorMatrix in="SourceAlpha" type="matrix" values="0 0 0 0 0 0 0 0 0 0 0 0 0 0 0 0 0 0 127 0" result="hardAlpha"/>
<feOffset/>
<feGaussianBlur stdDeviation="32.0219"/>
<feComposite in2="hardAlpha" operator="out"/>
<feColorMatrix type="matrix" values="0 0 0 0 1 0 0 0 0 0.99125 0 0 0 0 0.925 0 0 0 1 0"/>
<feBlend mode="normal" in2="BackgroundImageFix" result="effect1_dropShadow_289_744"/>
<feBlend mode="normal" in="SourceGraphic" in2="effect1_dropShadow_289_744" result="shape"/>
</filter>
<linearGradient id="paint0_linear_289_744" x1="566.92" y1="365.47" x2="1110.6" y2="411.213" gradientUnits="userSpaceOnUse">
<stop stop-color="#FFDA51"/>
<stop offset="0.72" stop-color="white" stop-opacity="0"/>
</linearGradient>
<linearGradient id="paint1_linear_289_744" x1="562.812" y1="405.465" x2="1177.16" y2="457.154" gradientUnits="userSpaceOnUse">
<stop offset="0.345" stop-color="#DFAEFF"/>
<stop offset="0.73" stop-color="white" stop-opacity="0"/>
</linearGradient>
<linearGradient id="paint2_linear_289_744" x1="558.589" y1="299.014" x2="960.362" y2="332.817" gradientUnits="userSpaceOnUse">
<stop stop-color="#FF8889"/>
<stop offset="1" stop-color="white" stop-opacity="0"/>
</linearGradient>
<radialGradient id="paint3_radial_289_744" cx="0" cy="0" r="1" gradientUnits="userSpaceOnUse" gradientTransform="translate(520.542 638.109) rotate(91.1277) scale(206.057 231.191)">
<stop stop-color="#FFF2D4"/>
<stop offset="1" stop-color="#FEE09A"/>
</radialGradient>
<radialGradient id="paint4_radial_289_744" cx="0" cy="0" r="1" gradientUnits="userSpaceOnUse" gradientTransform="translate(223.191 307.773) rotate(88.7742) scale(12.6055 15.3717)">
<stop stop-color="#C6FFF8"/>
<stop offset="1" stop-color="#48F2DE"/>
</radialGradient>
<radialGradient id="paint5_radial_289_744" cx="0" cy="0" r="1" gradientUnits="userSpaceOnUse" gradientTransform="translate(88.6991 704.844) rotate(88.7742) scale(12.6055 15.3717)">
<stop stop-color="#FFD9DA"/>
<stop offset="1" stop-color="#FF9FA1"/>
</radialGradient>
<radialGradient id="paint6_radial_289_744" cx="0" cy="0" r="1" gradientUnits="userSpaceOnUse" gradientTransform="translate(946.885 704.844) rotate(88.7742) scale(12.6055 15.3717)">
<stop stop-color="#EED4FF"/>
<stop offset="1" stop-color="#D89DFF"/>
</radialGradient>
<radialGradient id="paint7_radial_289_744" cx="0" cy="0" r="1" gradientUnits="userSpaceOnUse" gradientTransform="translate(588.24 122.046) rotate(88.7742) scale(12.6055 15.3717)">
<stop stop-color="#DEFFDC"/>
<stop offset="1" stop-color="#9EE69A"/>
</radialGradient>
<linearGradient id="paint8_linear_289_744" x1="41.0959" y1="0" x2="41.0959" y2="82.1918" gradientUnits="userSpaceOnUse">
<stop stop-color="#48C7FF"/>
<stop offset="1" stop-color="#0481B8"/>
</linearGradient>
<linearGradient id="paint9_linear_289_744" x1="41.0959" y1="0" x2="41.0959" y2="82.1918" gradientUnits="userSpaceOnUse">
<stop stop-color="#48C7FF"/>
<stop offset="1" stop-color="#0481B8"/>
</linearGradient>
</defs>
</svg>
