<svg width="66" height="65" viewBox="0 0 66 65" fill="none" xmlns="http://www.w3.org/2000/svg">
<path d="M11.5784 17.0341C16.8955 17.0341 21.6138 13.6036 23.2448 8.54117C26.2973 -0.933733 39.7027 -0.933733 42.7552 8.54117C44.3862 13.6036 49.1045 17.0341 54.4216 17.0341C64.3531 17.0341 68.4739 29.8349 60.4185 35.7374C56.135 38.8762 54.3317 44.4745 55.9592 49.5262C59.0176 59.0192 48.1978 66.9646 40.2323 61.1279C35.9268 57.973 30.0732 57.973 25.7677 61.1279C17.8022 66.9646 6.98243 59.0192 10.0408 49.5262C11.6683 44.4745 9.86498 38.8762 5.58146 35.7374C-2.47385 29.8349 1.64686 17.0341 11.5784 17.0341Z" fill="url(#paint0_linear_497_374)" stroke="#E3ADAD" stroke-width="2"/>
<defs>
<linearGradient id="paint0_linear_497_374" x1="33" y1="-25" x2="33" y2="82.4286" gradientUnits="userSpaceOnUse">
<stop stop-color="#FFD5D5"/>
<stop offset="1" stop-color="#FFB5B5"/>
</linearGradient>
</defs>
</svg>
