<svg width="130" height="128" viewBox="0 0 130 128" fill="none" xmlns="http://www.w3.org/2000/svg">
<g filter="url(#filter0_d_289_229)">
<path d="M63.4888 21.9551C53.7434 24.686 45.9825 39.0633 43.3275 45.8906C36.1037 47.3257 20.5369 52.6175 16.1667 61.6924C17.2135 71.6986 33.2607 78.3048 39.5792 82.0681C37.1294 88.9706 30.1643 102.806 35.7826 111.175C44.525 114.453 58.4052 105.79 64.8899 102.317C71.3746 105.79 84.1724 115.395 93.3645 111.175C98.9827 102.806 92.6504 88.9706 90.2006 82.0681C96.519 78.3048 110.035 71.856 111.082 61.8498C106.712 52.7749 91.1717 47.636 83.9479 46.201C81.2929 39.3737 73.2342 24.686 63.4888 21.9551Z" fill="url(#paint0_radial_289_229)"/>
</g>
<path d="M48.9519 56.9169C49.1628 56.4951 50.0909 55.6514 52.1157 55.6514" stroke="#25607A" stroke-width="0.631107" stroke-linecap="round" stroke-linejoin="round"/>
<path d="M77.4265 57.5497C77.2156 57.1279 76.2875 56.2842 74.2627 56.2842" stroke="#25607A" stroke-width="0.631107" stroke-linecap="round" stroke-linejoin="round"/>
<path d="M58.4433 74.0017C58.4433 76.0985 54.8452 77.7983 52.7484 77.7983C50.6516 77.7983 47.0535 76.0985 47.0535 74.0017C47.0535 71.9049 50.6516 70.2051 52.7484 70.2051C54.8452 70.2051 58.4433 71.9049 58.4433 74.0017Z" fill="#FFA498"/>
<path d="M81.7233 74.0017C81.7233 76.0985 78.1252 77.7983 76.0284 77.7983C73.9316 77.7983 70.3335 76.0985 70.3335 74.0017C70.3335 71.9049 73.9316 70.2051 76.0284 70.2051C78.1252 70.2051 81.7233 71.9049 81.7233 74.0017Z" fill="#FFA498"/>
<path d="M61.093 76.2412C62.2435 77.1962 65.1197 78.5332 67.4207 76.2412" stroke="#25607A" stroke-width="0.631107" stroke-linecap="round" stroke-linejoin="round"/>
<g filter="url(#filter1_d_289_229)">
<path d="M29.5869 31.4219C30.2349 31.5889 30.7509 32.4684 30.9274 32.8861C31.4078 32.9739 32.4428 33.2976 32.7334 33.8527C32.6638 34.4648 31.5968 34.8689 31.1767 35.0991C31.3396 35.5214 31.8027 36.3677 31.4291 36.8797C30.8478 37.0802 29.9249 36.5502 29.4937 36.3378C29.0625 36.5502 28.2116 37.1378 27.6004 36.8797C27.2268 36.3677 27.6479 35.5214 27.8108 35.0991C27.3906 34.8689 26.4919 34.4744 26.4223 33.8623C26.7129 33.3072 27.7462 32.9928 28.2265 32.9051C28.4031 32.4874 28.9389 31.5889 29.5869 31.4219Z" fill="url(#paint1_radial_289_229)"/>
</g>
<g filter="url(#filter2_d_289_229)">
<path d="M13.0202 80.333C13.6682 80.5001 14.1843 81.3796 14.3608 81.7972C14.8411 81.885 15.8762 82.2087 16.1667 82.7638C16.0971 83.3759 15.0301 83.7801 14.61 84.0103C14.7729 84.4325 15.236 85.2789 14.8625 85.7908C14.2812 85.9913 13.3582 85.4614 12.9271 85.2489C12.4959 85.4614 11.6449 86.0489 11.0337 85.7908C10.6602 85.2789 11.0812 84.4325 11.2441 84.0103C10.824 83.7801 9.92528 83.3856 9.85568 82.7735C10.1463 82.2183 11.1795 81.904 11.6599 81.8162C11.8364 81.3985 12.3722 80.5001 13.0202 80.333Z" fill="url(#paint2_radial_289_229)"/>
</g>
<g filter="url(#filter3_d_289_229)">
<path d="M118.731 80.333C119.379 80.5001 119.895 81.3796 120.071 81.7972C120.552 81.885 121.587 82.2087 121.877 82.7638C121.808 83.3759 120.741 83.7801 120.32 84.0103C120.483 84.4325 120.946 85.2789 120.573 85.7908C119.992 85.9913 119.069 85.4614 118.638 85.2489C118.206 85.4614 117.355 86.0489 116.744 85.7908C116.371 85.2789 116.792 84.4325 116.955 84.0103C116.534 83.7801 115.636 83.3856 115.566 82.7735C115.857 82.2183 116.89 81.904 117.37 81.8162C117.547 81.3985 118.083 80.5001 118.731 80.333Z" fill="url(#paint3_radial_289_229)"/>
</g>
<g filter="url(#filter4_d_289_229)">
<path d="M74.5532 8.54492C75.2012 8.71198 75.7172 9.59148 75.8937 10.0091C76.3741 10.0969 77.4091 10.4206 77.6997 10.9758C77.6301 11.5879 76.5631 11.992 76.143 12.2222C76.3059 12.6444 76.769 13.4908 76.3954 14.0028C75.8141 14.2032 74.8912 13.6733 74.46 13.4608C74.0289 13.6733 73.1779 14.2609 72.5667 14.0028C72.1931 13.4908 72.6142 12.6444 72.7771 12.2222C72.357 11.992 71.4582 11.5975 71.3886 10.9854C71.6792 10.4302 72.7125 10.1159 73.1928 10.0281C73.3694 9.61046 73.9052 8.71198 74.5532 8.54492Z" fill="url(#paint4_radial_289_229)"/>
</g>
<circle cx="71.0063" cy="65.1865" r="6.71776" fill="white"/>
<mask id="mask0_289_229" style="mask-type:alpha" maskUnits="userSpaceOnUse" x="64" y="58" width="14" height="14">
<circle cx="71.0063" cy="65.1865" r="6.71776" fill="#D9D9D9"/>
</mask>
<g mask="url(#mask0_289_229)">
<circle cx="71.8815" cy="64.5094" r="5.06214" fill="url(#paint5_linear_289_229)"/>
<circle cx="72.5141" cy="63.8766" r="4.42938" fill="#1A3A47"/>
<path d="M73.9261 59.7564C74.074 59.2778 74.7514 59.2778 74.8993 59.7564C74.9652 59.9698 75.1646 60.1153 75.3879 60.1153C75.8886 60.1153 76.112 60.7507 75.7141 61.0547L75.6727 61.0863C75.4965 61.2209 75.423 61.451 75.4884 61.6628L75.5099 61.7322C75.6552 62.2026 75.111 62.5823 74.7197 62.2834C74.5385 62.1449 74.287 62.1449 74.1057 62.2834C73.7145 62.5823 73.1702 62.2026 73.3156 61.7322L73.337 61.6628C73.4024 61.451 73.3289 61.2209 73.1527 61.0863L73.1113 61.0547C72.7135 60.7507 72.9368 60.1153 73.4375 60.1153C73.6608 60.1153 73.8602 59.9698 73.9261 59.7564Z" fill="white"/>
</g>
<circle cx="55.6697" cy="65.1865" r="6.71776" fill="white"/>
<mask id="mask1_289_229" style="mask-type:alpha" maskUnits="userSpaceOnUse" x="48" y="58" width="15" height="14">
<circle cx="55.6697" cy="65.1865" r="6.71776" fill="#D9D9D9"/>
</mask>
<g mask="url(#mask1_289_229)">
<circle cx="56.5448" cy="64.5094" r="5.06214" fill="url(#paint6_linear_289_229)"/>
<circle cx="57.1774" cy="63.8766" r="4.42938" fill="#1A3A47"/>
<path d="M58.5897 59.7564C58.7376 59.2778 59.415 59.2778 59.5629 59.7564C59.6288 59.9698 59.8282 60.1153 60.0515 60.1153C60.5522 60.1153 60.7755 60.7507 60.3777 61.0547L60.3363 61.0863C60.1601 61.2209 60.0866 61.451 60.152 61.6628L60.1734 61.7322C60.3188 62.2026 59.7745 62.5823 59.3833 62.2834C59.202 62.1449 58.9505 62.1449 58.7693 62.2834C58.378 62.5823 57.8338 62.2026 57.9791 61.7322L58.0006 61.6628C58.066 61.451 57.9925 61.2209 57.8163 61.0863L57.7749 61.0547C57.377 60.7507 57.6004 60.1153 58.1011 60.1153C58.3244 60.1153 58.5238 59.9698 58.5897 59.7564Z" fill="white"/>
</g>
<defs>
<filter id="filter0_d_289_229" x="0.389083" y="6.17741" width="126.471" height="121.828" filterUnits="userSpaceOnUse" color-interpolation-filters="sRGB">
<feFlood flood-opacity="0" result="BackgroundImageFix"/>
<feColorMatrix in="SourceAlpha" type="matrix" values="0 0 0 0 0 0 0 0 0 0 0 0 0 0 0 0 0 0 127 0" result="hardAlpha"/>
<feOffset/>
<feGaussianBlur stdDeviation="7.88883"/>
<feComposite in2="hardAlpha" operator="out"/>
<feColorMatrix type="matrix" values="0 0 0 0 1 0 0 0 0 0.898889 0 0 0 0 0.566667 0 0 0 1 0"/>
<feBlend mode="normal" in2="BackgroundImageFix" result="effect1_dropShadow_289_229"/>
<feBlend mode="normal" in="SourceGraphic" in2="effect1_dropShadow_289_229" result="shape"/>
</filter>
<filter id="filter1_d_289_229" x="18.5335" y="23.533" width="22.0887" height="21.3001" filterUnits="userSpaceOnUse" color-interpolation-filters="sRGB">
<feFlood flood-opacity="0" result="BackgroundImageFix"/>
<feColorMatrix in="SourceAlpha" type="matrix" values="0 0 0 0 0 0 0 0 0 0 0 0 0 0 0 0 0 0 127 0" result="hardAlpha"/>
<feOffset/>
<feGaussianBlur stdDeviation="3.94442"/>
<feComposite in2="hardAlpha" operator="out"/>
<feColorMatrix type="matrix" values="0 0 0 0 1 0 0 0 0 0.99125 0 0 0 0 0.925 0 0 0 1 0"/>
<feBlend mode="normal" in2="BackgroundImageFix" result="effect1_dropShadow_289_229"/>
<feBlend mode="normal" in="SourceGraphic" in2="effect1_dropShadow_289_229" result="shape"/>
</filter>
<filter id="filter2_d_289_229" x="1.96688" y="72.4442" width="22.0887" height="21.3001" filterUnits="userSpaceOnUse" color-interpolation-filters="sRGB">
<feFlood flood-opacity="0" result="BackgroundImageFix"/>
<feColorMatrix in="SourceAlpha" type="matrix" values="0 0 0 0 0 0 0 0 0 0 0 0 0 0 0 0 0 0 127 0" result="hardAlpha"/>
<feOffset/>
<feGaussianBlur stdDeviation="3.94442"/>
<feComposite in2="hardAlpha" operator="out"/>
<feColorMatrix type="matrix" values="0 0 0 0 1 0 0 0 0 0.99125 0 0 0 0 0.925 0 0 0 1 0"/>
<feBlend mode="normal" in2="BackgroundImageFix" result="effect1_dropShadow_289_229"/>
<feBlend mode="normal" in="SourceGraphic" in2="effect1_dropShadow_289_229" result="shape"/>
</filter>
<filter id="filter3_d_289_229" x="107.677" y="72.4442" width="22.0887" height="21.3001" filterUnits="userSpaceOnUse" color-interpolation-filters="sRGB">
<feFlood flood-opacity="0" result="BackgroundImageFix"/>
<feColorMatrix in="SourceAlpha" type="matrix" values="0 0 0 0 0 0 0 0 0 0 0 0 0 0 0 0 0 0 127 0" result="hardAlpha"/>
<feOffset/>
<feGaussianBlur stdDeviation="3.94442"/>
<feComposite in2="hardAlpha" operator="out"/>
<feColorMatrix type="matrix" values="0 0 0 0 1 0 0 0 0 0.99125 0 0 0 0 0.925 0 0 0 1 0"/>
<feBlend mode="normal" in2="BackgroundImageFix" result="effect1_dropShadow_289_229"/>
<feBlend mode="normal" in="SourceGraphic" in2="effect1_dropShadow_289_229" result="shape"/>
</filter>
<filter id="filter4_d_289_229" x="63.4998" y="0.656089" width="22.0887" height="21.3001" filterUnits="userSpaceOnUse" color-interpolation-filters="sRGB">
<feFlood flood-opacity="0" result="BackgroundImageFix"/>
<feColorMatrix in="SourceAlpha" type="matrix" values="0 0 0 0 0 0 0 0 0 0 0 0 0 0 0 0 0 0 127 0" result="hardAlpha"/>
<feOffset/>
<feGaussianBlur stdDeviation="3.94442"/>
<feComposite in2="hardAlpha" operator="out"/>
<feColorMatrix type="matrix" values="0 0 0 0 1 0 0 0 0 0.99125 0 0 0 0 0.925 0 0 0 1 0"/>
<feBlend mode="normal" in2="BackgroundImageFix" result="effect1_dropShadow_289_229"/>
<feBlend mode="normal" in="SourceGraphic" in2="effect1_dropShadow_289_229" result="shape"/>
</filter>
<radialGradient id="paint0_radial_289_229" cx="0" cy="0" r="1" gradientUnits="userSpaceOnUse" gradientTransform="translate(66.6217 75.3802) rotate(91.1277) scale(25.3818 28.4778)">
<stop stop-color="#FFF2D4"/>
<stop offset="1" stop-color="#FEE09A"/>
</radialGradient>
<radialGradient id="paint1_radial_289_229" cx="0" cy="0" r="1" gradientUnits="userSpaceOnUse" gradientTransform="translate(29.3786 34.69) rotate(88.7742) scale(1.55273 1.89347)">
<stop stop-color="#C6FFF8"/>
<stop offset="1" stop-color="#48F2DE"/>
</radialGradient>
<radialGradient id="paint2_radial_289_229" cx="0" cy="0" r="1" gradientUnits="userSpaceOnUse" gradientTransform="translate(12.8119 83.6012) rotate(88.7742) scale(1.55273 1.89347)">
<stop stop-color="#FFD9DA"/>
<stop offset="1" stop-color="#FF9FA1"/>
</radialGradient>
<radialGradient id="paint3_radial_289_229" cx="0" cy="0" r="1" gradientUnits="userSpaceOnUse" gradientTransform="translate(118.522 83.6012) rotate(88.7742) scale(1.55273 1.89347)">
<stop stop-color="#EED4FF"/>
<stop offset="1" stop-color="#D89DFF"/>
</radialGradient>
<radialGradient id="paint4_radial_289_229" cx="0" cy="0" r="1" gradientUnits="userSpaceOnUse" gradientTransform="translate(74.3449 11.8131) rotate(88.7742) scale(1.55273 1.89347)">
<stop stop-color="#DEFFDC"/>
<stop offset="1" stop-color="#9EE69A"/>
</radialGradient>
<linearGradient id="paint5_linear_289_229" x1="71.8815" y1="59.4473" x2="71.8815" y2="69.5716" gradientUnits="userSpaceOnUse">
<stop stop-color="#48C7FF"/>
<stop offset="1" stop-color="#0481B8"/>
</linearGradient>
<linearGradient id="paint6_linear_289_229" x1="56.5448" y1="59.4473" x2="56.5448" y2="69.5716" gradientUnits="userSpaceOnUse">
<stop stop-color="#48C7FF"/>
<stop offset="1" stop-color="#0481B8"/>
</linearGradient>
</defs>
</svg>
