<svg width="340" height="283" viewBox="0 0 340 283" fill="none" xmlns="http://www.w3.org/2000/svg">
<path d="M109.636 31C87.0579 37.327 69.0773 70.6365 62.9262 86.454C46.19 89.7788 10.1247 102.039 0 123.064C2.42519 146.246 39.6035 161.551 54.2421 170.27C48.5663 186.262 32.4297 218.316 45.446 237.706C65.7006 245.299 97.8584 225.228 112.882 217.182C127.906 225.228 157.556 247.481 178.852 237.706C191.869 218.316 177.198 186.262 171.522 170.27C186.161 161.551 217.475 146.611 219.9 123.428C209.776 102.404 173.772 90.4978 157.036 87.173C150.885 71.3555 132.214 37.327 109.636 31Z" fill="url(#paint0_radial_490_279)"/>
<path d="M81.3984 100.932C81.8871 99.9547 84.0372 98 88.7284 98" stroke="#25607A" stroke-width="1.46215" stroke-linecap="round" stroke-linejoin="round"/>
<path d="M147.368 102.399C146.88 101.421 144.73 99.4668 140.038 99.4668" stroke="#25607A" stroke-width="1.46215" stroke-linecap="round" stroke-linejoin="round"/>
<path d="M103.388 140.514C103.388 145.372 95.0519 149.31 90.194 149.31C85.3361 149.31 77 145.372 77 140.514C77 135.656 85.3361 131.718 90.194 131.718C95.0519 131.718 103.388 135.656 103.388 140.514Z" fill="#FFA498"/>
<path d="M157.324 140.514C157.324 145.372 148.988 149.31 144.13 149.31C139.272 149.31 130.936 145.372 130.936 140.514C130.936 135.656 139.272 131.718 144.13 131.718C148.988 131.718 157.324 135.656 157.324 140.514Z" fill="#FFA498"/>
<g filter="url(#filter0_d_490_279)">
<path d="M44.3317 59C45.833 59.387 47.0285 61.4247 47.4375 62.3923C48.5503 62.5957 50.9484 63.3456 51.6216 64.6318C51.4603 66.0499 48.9883 66.9862 48.0149 67.5195C48.3923 68.4978 49.4653 70.4586 48.5998 71.6447C47.253 72.1092 45.1148 70.8814 44.1159 70.3892C43.1169 70.8814 41.1454 72.2427 39.7294 71.6447C38.8639 70.4586 39.8394 68.4978 40.2168 67.5195C39.2435 66.9862 37.1613 66.0722 37.0001 64.6541C37.6733 63.3679 40.0672 62.6396 41.18 62.4362C41.589 61.4686 42.8304 59.387 44.3317 59Z" fill="url(#paint1_radial_490_279)"/>
</g>
<g filter="url(#filter1_d_490_279)">
<path d="M29.3317 167C30.833 167.387 32.0285 169.425 32.4375 170.392C33.5503 170.596 35.9484 171.346 36.6216 172.632C36.4603 174.05 33.9883 174.986 33.0149 175.52C33.3923 176.498 34.4653 178.459 33.5998 179.645C32.253 180.109 30.1148 178.881 29.1159 178.389C28.1169 178.881 26.1454 180.243 24.7294 179.645C23.8639 178.459 24.8394 176.498 25.2168 175.52C24.2435 174.986 22.1613 174.072 22.0001 172.654C22.6733 171.368 25.0672 170.64 26.18 170.436C26.589 169.469 27.8304 167.387 29.3317 167Z" fill="url(#paint2_radial_490_279)"/>
</g>
<g filter="url(#filter2_d_490_279)">
<path d="M197.332 75C198.833 75.387 200.029 77.4247 200.438 78.3923C201.55 78.5957 203.948 79.3456 204.622 80.6318C204.46 82.0499 201.988 82.9862 201.015 83.5195C201.392 84.4978 202.465 86.4586 201.6 87.6447C200.253 88.1092 198.115 86.8814 197.116 86.3892C196.117 86.8814 194.145 88.2427 192.729 87.6447C191.864 86.4586 192.839 84.4978 193.217 83.5195C192.243 82.9862 190.161 82.0722 190 80.6541C190.673 79.3679 193.067 78.6396 194.18 78.4362C194.589 77.4686 195.83 75.387 197.332 75Z" fill="url(#paint3_radial_490_279)"/>
</g>
<ellipse cx="138.5" cy="119" rx="14.5" ry="15" fill="white"/>
<ellipse cx="139.5" cy="118" rx="11.5" ry="12" fill="url(#paint4_linear_490_279)"/>
<circle cx="142" cy="116" r="9" fill="#1A3A47"/>
<ellipse cx="94.5" cy="123" rx="14.5" ry="15" fill="white"/>
<ellipse cx="97.5" cy="121" rx="11.5" ry="12" fill="url(#paint5_linear_490_279)"/>
<path d="M108.5 118.5C108.5 123.471 104.471 127.5 99.5 127.5C94.5294 127.5 90.5 123.471 90.5 118.5C90.5 113.529 94.5294 109.5 99.5 109.5C104.471 109.5 108.5 113.529 108.5 118.5Z" fill="#1A3A47"/>
<path d="M109 153C111.727 156.018 118.545 160.244 124 153" stroke="#25607A" stroke-linecap="round" stroke-linejoin="round"/>
<g filter="url(#filter3_d_490_279)">
<path d="M115.979 249C116.998 249.263 117.81 250.647 118.088 251.304C118.843 251.442 120.472 251.951 120.929 252.824C120.82 253.787 119.141 254.423 118.48 254.785C118.736 255.45 119.465 256.781 118.877 257.587C117.963 257.902 116.511 257.068 115.832 256.734C115.154 257.068 113.815 257.993 112.853 257.587C112.266 256.781 112.928 255.45 113.184 254.785C112.523 254.423 111.11 253.803 111 252.84C111.457 251.966 113.083 251.472 113.839 251.333C114.116 250.676 114.959 249.263 115.979 249Z" fill="url(#paint6_radial_490_279)"/>
</g>
<g filter="url(#filter4_d_490_279)">
<path d="M133.332 19C134.833 19.387 136.029 21.4247 136.438 22.3923C137.55 22.5957 139.948 23.3456 140.622 24.6318C140.46 26.0499 137.988 26.9862 137.015 27.5195C137.392 28.4978 138.465 30.4586 137.6 31.6447C136.253 32.1092 134.115 30.8814 133.116 30.3892C132.117 30.8814 130.145 32.2427 128.729 31.6447C127.864 30.4586 128.839 28.4978 129.217 27.5195C128.243 26.9862 126.161 26.0722 126 24.6541C126.673 23.3679 129.067 22.6396 130.18 22.4362C130.589 21.4686 131.83 19.387 133.332 19Z" fill="url(#paint7_radial_490_279)"/>
</g>
<path d="M256.834 111.624C241.502 115.921 229.291 138.54 225.114 149.281C213.749 151.539 189.259 159.864 182.383 174.142C184.03 189.884 209.277 200.277 219.217 206.198C215.363 217.058 204.405 238.824 213.244 251.992C226.998 257.148 248.836 243.519 259.038 238.055C269.24 243.519 289.375 258.63 303.836 251.992C312.675 238.824 302.713 217.058 298.859 206.198C308.799 200.277 330.064 190.132 331.711 174.389C324.835 160.112 300.386 152.027 289.021 149.769C284.844 139.028 272.166 115.921 256.834 111.624Z" fill="url(#paint8_radial_490_279)"/>
<path d="M262.08 197.653C257.303 199.506 255.365 197.653 254.992 197.653C252.007 196.109 251.632 199.583 252.006 200.355C252.38 201.127 253.002 202.075 253.748 202.847C257.48 205.935 260.961 204.988 262.826 202.672C265.812 198.039 263.572 197.138 262.08 197.653Z" fill="#082A39"/>
<path d="M254.989 203.469C256.023 202.641 258.837 201.483 261.815 203.469C258.837 205.951 256.023 204.503 254.989 203.469Z" fill="#DC6060"/>
<path d="M233.963 166.627C234.294 165.963 235.754 164.636 238.94 164.636" stroke="#25607A" stroke-width="0.992903" stroke-linecap="round" stroke-linejoin="round"/>
<path d="M278.762 167.622C278.43 166.958 276.97 165.631 273.784 165.631" stroke="#25607A" stroke-width="0.992903" stroke-linecap="round" stroke-linejoin="round"/>
<path d="M248.895 193.505C248.895 196.804 243.235 199.478 239.936 199.478C236.637 199.478 230.976 196.804 230.976 193.505C230.976 190.206 236.637 187.532 239.936 187.532C243.235 187.532 248.895 190.206 248.895 193.505Z" fill="#FFA498"/>
<path d="M285.521 193.505C285.521 196.804 279.861 199.478 276.562 199.478C273.263 199.478 267.602 196.804 267.602 193.505C267.602 190.206 273.263 187.532 276.562 187.532C279.861 187.532 285.521 190.206 285.521 193.505Z" fill="#FFA498"/>
<g filter="url(#filter5_d_490_279)">
<path d="M220.979 261C221.998 261.263 222.81 262.647 223.088 263.304C223.843 263.442 225.472 263.951 225.929 264.824C225.82 265.787 224.141 266.423 223.48 266.785C223.736 267.45 224.465 268.781 223.877 269.587C222.963 269.902 221.511 269.068 220.832 268.734C220.154 269.068 218.815 269.993 217.853 269.587C217.266 268.781 217.928 267.45 218.184 266.785C217.523 266.423 216.11 265.803 216 264.84C216.457 263.966 218.083 263.472 218.839 263.333C219.116 262.676 219.959 261.263 220.979 261Z" fill="url(#paint9_radial_490_279)"/>
</g>
<g filter="url(#filter6_d_490_279)">
<path d="M321.979 210C322.998 210.263 323.81 211.647 324.088 212.304C324.843 212.442 326.472 212.951 326.929 213.824C326.819 214.787 325.141 215.423 324.48 215.785C324.736 216.45 325.465 217.781 324.877 218.587C323.962 218.902 322.51 218.068 321.832 217.734C321.154 218.068 319.815 218.993 318.853 218.587C318.266 217.781 318.928 216.45 319.184 215.785C318.523 215.423 317.109 214.803 317 213.84C317.457 212.966 319.083 212.472 319.838 212.333C320.116 211.676 320.959 210.263 321.979 210Z" fill="url(#paint10_radial_490_279)"/>
</g>
<path d="M249.43 183.118C245.81 179.512 241.285 181.616 239.475 183.118L236.993 181.127" stroke="#25607A" stroke-width="0.992903" stroke-linecap="round" stroke-linejoin="round"/>
<path d="M268.021 183.118C271.641 179.512 276.166 181.616 277.976 183.118L280.458 181.127" stroke="#25607A" stroke-width="0.992903" stroke-linecap="round" stroke-linejoin="round"/>
<g filter="url(#filter7_d_490_279)">
<path d="M302.332 119C303.833 119.387 305.029 121.425 305.438 122.392C306.55 122.596 308.948 123.346 309.622 124.632C309.46 126.05 306.988 126.986 306.015 127.52C306.392 128.498 307.465 130.459 306.6 131.645C305.253 132.109 303.115 130.881 302.116 130.389C301.117 130.881 299.145 132.243 297.729 131.645C296.864 130.459 297.839 128.498 298.217 127.52C297.243 126.986 295.161 126.072 295 124.654C295.673 123.368 298.067 122.64 299.18 122.436C299.589 121.469 300.83 119.387 302.332 119Z" fill="url(#paint11_radial_490_279)"/>
</g>
<defs>
<filter id="filter0_d_490_279" x="18.7231" y="40.7231" width="51.1754" height="49.3478" filterUnits="userSpaceOnUse" color-interpolation-filters="sRGB">
<feFlood flood-opacity="0" result="BackgroundImageFix"/>
<feColorMatrix in="SourceAlpha" type="matrix" values="0 0 0 0 0 0 0 0 0 0 0 0 0 0 0 0 0 0 127 0" result="hardAlpha"/>
<feOffset/>
<feGaussianBlur stdDeviation="9.13845"/>
<feComposite in2="hardAlpha" operator="out"/>
<feColorMatrix type="matrix" values="0 0 0 0 1 0 0 0 0 0.99125 0 0 0 0 0.925 0 0 0 1 0"/>
<feBlend mode="normal" in2="BackgroundImageFix" result="effect1_dropShadow_490_279"/>
<feBlend mode="normal" in="SourceGraphic" in2="effect1_dropShadow_490_279" result="shape"/>
</filter>
<filter id="filter1_d_490_279" x="3.7231" y="148.723" width="51.1754" height="49.3478" filterUnits="userSpaceOnUse" color-interpolation-filters="sRGB">
<feFlood flood-opacity="0" result="BackgroundImageFix"/>
<feColorMatrix in="SourceAlpha" type="matrix" values="0 0 0 0 0 0 0 0 0 0 0 0 0 0 0 0 0 0 127 0" result="hardAlpha"/>
<feOffset/>
<feGaussianBlur stdDeviation="9.13845"/>
<feComposite in2="hardAlpha" operator="out"/>
<feColorMatrix type="matrix" values="0 0 0 0 1 0 0 0 0 0.99125 0 0 0 0 0.925 0 0 0 1 0"/>
<feBlend mode="normal" in2="BackgroundImageFix" result="effect1_dropShadow_490_279"/>
<feBlend mode="normal" in="SourceGraphic" in2="effect1_dropShadow_490_279" result="shape"/>
</filter>
<filter id="filter2_d_490_279" x="171.723" y="56.7231" width="51.1754" height="49.3478" filterUnits="userSpaceOnUse" color-interpolation-filters="sRGB">
<feFlood flood-opacity="0" result="BackgroundImageFix"/>
<feColorMatrix in="SourceAlpha" type="matrix" values="0 0 0 0 0 0 0 0 0 0 0 0 0 0 0 0 0 0 127 0" result="hardAlpha"/>
<feOffset/>
<feGaussianBlur stdDeviation="9.13845"/>
<feComposite in2="hardAlpha" operator="out"/>
<feColorMatrix type="matrix" values="0 0 0 0 1 0 0 0 0 0.99125 0 0 0 0 0.925 0 0 0 1 0"/>
<feBlend mode="normal" in2="BackgroundImageFix" result="effect1_dropShadow_490_279"/>
<feBlend mode="normal" in="SourceGraphic" in2="effect1_dropShadow_490_279" result="shape"/>
</filter>
<filter id="filter3_d_490_279" x="98.5887" y="236.589" width="34.7517" height="33.5101" filterUnits="userSpaceOnUse" color-interpolation-filters="sRGB">
<feFlood flood-opacity="0" result="BackgroundImageFix"/>
<feColorMatrix in="SourceAlpha" type="matrix" values="0 0 0 0 0 0 0 0 0 0 0 0 0 0 0 0 0 0 127 0" result="hardAlpha"/>
<feOffset/>
<feGaussianBlur stdDeviation="6.20565"/>
<feComposite in2="hardAlpha" operator="out"/>
<feColorMatrix type="matrix" values="0 0 0 0 1 0 0 0 0 0.99125 0 0 0 0 0.925 0 0 0 1 0"/>
<feBlend mode="normal" in2="BackgroundImageFix" result="effect1_dropShadow_490_279"/>
<feBlend mode="normal" in="SourceGraphic" in2="effect1_dropShadow_490_279" result="shape"/>
</filter>
<filter id="filter4_d_490_279" x="107.723" y="0.723097" width="51.1754" height="49.3478" filterUnits="userSpaceOnUse" color-interpolation-filters="sRGB">
<feFlood flood-opacity="0" result="BackgroundImageFix"/>
<feColorMatrix in="SourceAlpha" type="matrix" values="0 0 0 0 0 0 0 0 0 0 0 0 0 0 0 0 0 0 127 0" result="hardAlpha"/>
<feOffset/>
<feGaussianBlur stdDeviation="9.13845"/>
<feComposite in2="hardAlpha" operator="out"/>
<feColorMatrix type="matrix" values="0 0 0 0 1 0 0 0 0 0.99125 0 0 0 0 0.925 0 0 0 1 0"/>
<feBlend mode="normal" in2="BackgroundImageFix" result="effect1_dropShadow_490_279"/>
<feBlend mode="normal" in="SourceGraphic" in2="effect1_dropShadow_490_279" result="shape"/>
</filter>
<filter id="filter5_d_490_279" x="203.589" y="248.589" width="34.7517" height="33.5101" filterUnits="userSpaceOnUse" color-interpolation-filters="sRGB">
<feFlood flood-opacity="0" result="BackgroundImageFix"/>
<feColorMatrix in="SourceAlpha" type="matrix" values="0 0 0 0 0 0 0 0 0 0 0 0 0 0 0 0 0 0 127 0" result="hardAlpha"/>
<feOffset/>
<feGaussianBlur stdDeviation="6.20565"/>
<feComposite in2="hardAlpha" operator="out"/>
<feColorMatrix type="matrix" values="0 0 0 0 1 0 0 0 0 0.99125 0 0 0 0 0.925 0 0 0 1 0"/>
<feBlend mode="normal" in2="BackgroundImageFix" result="effect1_dropShadow_490_279"/>
<feBlend mode="normal" in="SourceGraphic" in2="effect1_dropShadow_490_279" result="shape"/>
</filter>
<filter id="filter6_d_490_279" x="304.589" y="197.589" width="34.7517" height="33.5101" filterUnits="userSpaceOnUse" color-interpolation-filters="sRGB">
<feFlood flood-opacity="0" result="BackgroundImageFix"/>
<feColorMatrix in="SourceAlpha" type="matrix" values="0 0 0 0 0 0 0 0 0 0 0 0 0 0 0 0 0 0 127 0" result="hardAlpha"/>
<feOffset/>
<feGaussianBlur stdDeviation="6.20565"/>
<feComposite in2="hardAlpha" operator="out"/>
<feColorMatrix type="matrix" values="0 0 0 0 1 0 0 0 0 0.99125 0 0 0 0 0.925 0 0 0 1 0"/>
<feBlend mode="normal" in2="BackgroundImageFix" result="effect1_dropShadow_490_279"/>
<feBlend mode="normal" in="SourceGraphic" in2="effect1_dropShadow_490_279" result="shape"/>
</filter>
<filter id="filter7_d_490_279" x="276.723" y="100.723" width="51.1754" height="49.3478" filterUnits="userSpaceOnUse" color-interpolation-filters="sRGB">
<feFlood flood-opacity="0" result="BackgroundImageFix"/>
<feColorMatrix in="SourceAlpha" type="matrix" values="0 0 0 0 0 0 0 0 0 0 0 0 0 0 0 0 0 0 127 0" result="hardAlpha"/>
<feOffset/>
<feGaussianBlur stdDeviation="9.13845"/>
<feComposite in2="hardAlpha" operator="out"/>
<feColorMatrix type="matrix" values="0 0 0 0 1 0 0 0 0 0.99125 0 0 0 0 0.925 0 0 0 1 0"/>
<feBlend mode="normal" in2="BackgroundImageFix" result="effect1_dropShadow_490_279"/>
<feBlend mode="normal" in="SourceGraphic" in2="effect1_dropShadow_490_279" result="shape"/>
</filter>
<radialGradient id="paint0_radial_490_279" cx="0" cy="0" r="1" gradientUnits="userSpaceOnUse" gradientTransform="translate(116.894 154.776) rotate(91.1277) scale(58.8048 65.9776)">
<stop stop-color="#FFF2D4"/>
<stop offset="1" stop-color="#FEE09A"/>
</radialGradient>
<radialGradient id="paint1_radial_490_279" cx="0" cy="0" r="1" gradientUnits="userSpaceOnUse" gradientTransform="translate(43.8491 66.5717) rotate(88.7742) scale(3.59737 4.3868)">
<stop stop-color="#C6FFF8"/>
<stop offset="1" stop-color="#48F2DE"/>
</radialGradient>
<radialGradient id="paint2_radial_490_279" cx="0" cy="0" r="1" gradientUnits="userSpaceOnUse" gradientTransform="translate(28.8491 174.572) rotate(88.7742) scale(3.59737 4.3868)">
<stop stop-color="#FFD9DA"/>
<stop offset="1" stop-color="#FF9FA1"/>
</radialGradient>
<radialGradient id="paint3_radial_490_279" cx="0" cy="0" r="1" gradientUnits="userSpaceOnUse" gradientTransform="translate(196.849 82.5717) rotate(88.7742) scale(3.59737 4.3868)">
<stop stop-color="#EED4FF"/>
<stop offset="1" stop-color="#D89DFF"/>
</radialGradient>
<linearGradient id="paint4_linear_490_279" x1="139.5" y1="106" x2="139.5" y2="130" gradientUnits="userSpaceOnUse">
<stop stop-color="#48C7FF"/>
<stop offset="1" stop-color="#0481B8"/>
</linearGradient>
<linearGradient id="paint5_linear_490_279" x1="97.5" y1="109" x2="97.5" y2="133" gradientUnits="userSpaceOnUse">
<stop stop-color="#48C7FF"/>
<stop offset="1" stop-color="#0481B8"/>
</linearGradient>
<radialGradient id="paint6_radial_490_279" cx="0" cy="0" r="1" gradientUnits="userSpaceOnUse" gradientTransform="translate(115.651 254.142) rotate(88.7742) scale(2.44286 2.97895)">
<stop stop-color="#DEFFDC"/>
<stop offset="1" stop-color="#9EE69A"/>
</radialGradient>
<radialGradient id="paint7_radial_490_279" cx="0" cy="0" r="1" gradientUnits="userSpaceOnUse" gradientTransform="translate(132.849 26.5717) rotate(88.7742) scale(3.59737 4.3868)">
<stop stop-color="#DEFFDC"/>
<stop offset="1" stop-color="#9EE69A"/>
</radialGradient>
<radialGradient id="paint8_radial_490_279" cx="0" cy="0" r="1" gradientUnits="userSpaceOnUse" gradientTransform="translate(261.763 195.676) rotate(91.1277) scale(39.9326 44.8034)">
<stop stop-color="#FFF2D4"/>
<stop offset="1" stop-color="#FEE09A"/>
</radialGradient>
<radialGradient id="paint9_radial_490_279" cx="0" cy="0" r="1" gradientUnits="userSpaceOnUse" gradientTransform="translate(220.651 266.142) rotate(88.7742) scale(2.44286 2.97895)">
<stop stop-color="#EED4FF"/>
<stop offset="1" stop-color="#D89DFF"/>
</radialGradient>
<radialGradient id="paint10_radial_490_279" cx="0" cy="0" r="1" gradientUnits="userSpaceOnUse" gradientTransform="translate(321.651 215.142) rotate(88.7742) scale(2.44286 2.97895)">
<stop stop-color="#C6FFF8"/>
<stop offset="1" stop-color="#48F2DE"/>
</radialGradient>
<radialGradient id="paint11_radial_490_279" cx="0" cy="0" r="1" gradientUnits="userSpaceOnUse" gradientTransform="translate(301.849 126.572) rotate(88.7742) scale(3.59737 4.3868)">
<stop stop-color="#DEFFDC"/>
<stop offset="1" stop-color="#9EE69A"/>
</radialGradient>
</defs>
</svg>
