<svg width="497" height="331" viewBox="0 0 497 331" fill="none" xmlns="http://www.w3.org/2000/svg">
<path d="M50.5 244.501C53.3 145.701 172 104.522 231 96.2832C185.833 112.689 92.7 177.201 81.5 304.001L50.5 244.501Z" fill="url(#paint0_linear_672_878)"/>
<path d="M81.5 303.718C92.7 176.918 185.833 112.406 231 96C194.167 132.333 123.7 231.118 136.5 330.718L81.5 303.718Z" fill="url(#paint1_linear_672_878)"/>
<path d="M0 220.782C37.6 87.5824 169.667 82.2824 231 96.2824C172 104.522 53.3 145.7 50.5 244.5L25.25 232.641L0 220.782Z" fill="url(#paint2_linear_672_878)"/>
<path d="M446.5 242.501C443.7 143.701 325 102.522 266 94.2832C311.167 110.689 404.3 175.201 415.5 302.001L446.5 242.501Z" fill="url(#paint3_linear_672_878)"/>
<path d="M415.5 301.718C404.3 174.918 311.167 110.406 266 94C302.833 130.333 373.3 229.118 360.5 328.718L415.5 301.718Z" fill="url(#paint4_linear_672_878)"/>
<path d="M497 218.782C459.4 85.5824 327.333 80.2824 266 94.2824C325 102.522 443.7 143.7 446.5 242.5L471.75 230.641L497 218.782Z" fill="url(#paint5_linear_672_878)"/>
<g filter="url(#filter0_d_672_878)">
<path d="M233.025 188.034L239.863 114.957H257.812L264.222 188.034H233.025Z" fill="#FFD47A"/>
</g>
<g filter="url(#filter1_f_672_878)">
<path d="M247.555 147.976L236.872 154.814L237.726 136.01L259.948 130.027L260.803 156.096L247.555 147.976Z" fill="#F5C483"/>
</g>
<g filter="url(#filter2_i_672_878)">
<rect x="226.188" y="188.033" width="43.5896" height="17.094" rx="4.27349" fill="#FFD47A"/>
</g>
<g filter="url(#filter3_i_672_878)">
<rect x="201.402" y="202.562" width="94.0168" height="23.0769" rx="4.27349" fill="#FFD47A"/>
</g>
<g filter="url(#filter4_d_672_878)">
<path d="M158.4 121.199L158.791 121.155C158.79 121.147 158.789 121.14 158.788 121.133L158.4 121.199ZM165.671 107.868L165.729 107.479L165.671 107.868ZM169.913 140.893L169.701 141.225C169.815 141.297 169.957 141.307 170.079 141.25C170.2 141.194 170.285 141.079 170.303 140.946L169.913 140.893ZM161.96 156.37L161.771 156.716L161.771 156.716L161.96 156.37ZM155.243 141.33L154.973 141.043L154.973 141.043L155.243 141.33ZM180.803 161.565L180.827 161.958C180.973 161.949 181.101 161.861 181.161 161.729C181.222 161.596 181.204 161.441 181.116 161.326L180.803 161.565ZM180.526 182.134L180.491 182.527L180.526 182.134ZM167.195 171.53L166.805 171.475L166.805 171.475L167.195 171.53ZM197.493 179.71L197.712 180.038C197.817 179.968 197.882 179.852 197.887 179.725C197.892 179.599 197.836 179.479 197.736 179.401L197.493 179.71ZM188.81 143.505L188.453 143.339C188.45 143.345 188.447 143.352 188.445 143.359L188.81 143.505ZM186.992 128.659L186.829 129.018L186.829 129.018L186.992 128.659ZM182.196 161.026L181.859 161.229C181.93 161.347 182.057 161.419 182.194 161.42C182.331 161.42 182.459 161.35 182.531 161.233L182.196 161.026ZM204.132 161.068L203.775 160.902C203.772 160.908 203.769 160.915 203.766 160.922L204.132 161.068ZM202.729 146.41L202.423 146.659L202.423 146.659L202.729 146.41ZM197.933 178.777L197.596 178.981C197.667 179.098 197.794 179.17 197.931 179.171C198.069 179.172 198.196 179.101 198.268 178.984L197.933 178.777ZM170.276 141.043C170.191 140.843 169.96 140.748 169.76 140.833C169.559 140.917 169.465 141.148 169.549 141.349L170.276 141.043ZM210.321 188.805C210.512 188.91 210.752 188.841 210.856 188.65C210.961 188.46 210.892 188.22 210.701 188.115L210.321 188.805ZM158.788 121.133C158.493 119.414 158.435 115.868 159.368 112.909C159.833 111.432 160.534 110.14 161.537 109.285C162.526 108.442 163.841 107.995 165.613 108.258L165.729 107.479C163.746 107.185 162.199 107.685 161.026 108.685C159.868 109.673 159.106 111.12 158.616 112.673C157.639 115.774 157.7 119.45 158.012 121.266L158.788 121.133ZM165.613 108.258C167.468 108.533 168.769 109.861 169.647 112.013C170.529 114.171 170.952 117.089 171.072 120.38C171.31 126.957 170.331 134.878 169.522 140.84L170.303 140.946C171.111 134.99 172.1 127.005 171.859 120.352C171.739 117.028 171.31 114.001 170.377 111.715C169.441 109.423 167.964 107.81 165.729 107.479L165.613 108.258ZM170.124 140.561C166.867 138.488 159.987 131.675 158.791 121.155L158.008 121.244C159.237 132.053 166.293 139.056 169.701 141.225L170.124 140.561ZM162.148 156.024C160.626 155.195 157.613 152.777 155.672 149.935C154.703 148.516 154.026 147.025 153.909 145.601C153.794 144.198 154.22 142.834 155.513 141.617L154.973 141.043C153.501 142.428 152.99 144.029 153.124 145.665C153.257 147.28 154.014 148.903 155.022 150.379C157.035 153.328 160.144 155.829 161.771 156.716L162.148 156.024ZM155.513 141.617C156.92 140.294 158.425 139.963 160.09 140.406C161.793 140.859 163.684 142.128 165.784 144.076C169.98 147.969 174.839 154.409 180.49 161.804L181.116 161.326C175.487 153.959 170.578 147.449 166.319 143.498C164.192 141.525 162.185 140.148 160.293 139.645C158.363 139.132 156.578 139.534 154.973 141.043L155.513 141.617ZM180.778 161.172C176.627 161.432 170.891 160.79 162.148 156.024L161.771 156.716C170.629 161.545 176.512 162.228 180.827 161.958L180.778 161.172ZM180.562 181.742C178.818 181.584 175.315 180.545 172.366 178.758C169.392 176.955 167.167 174.511 167.585 171.586L166.805 171.475C166.314 174.912 168.944 177.605 171.958 179.432C174.996 181.273 178.614 182.356 180.491 182.527L180.562 181.742ZM167.585 171.586C167.847 169.748 168.737 168.573 170.149 167.986C171.594 167.386 173.646 167.375 176.26 168.039C181.481 169.365 188.724 173.326 197.25 180.02L197.736 179.401C189.179 172.682 181.832 168.642 176.454 167.276C173.768 166.594 171.519 166.564 169.847 167.259C168.142 167.967 167.101 169.402 166.805 171.475L167.585 171.586ZM197.274 179.383C195.548 180.537 193.858 181.345 191.372 181.759C188.87 182.175 185.55 182.195 180.562 181.742L180.491 182.527C185.501 182.982 188.901 182.969 191.501 182.536C194.118 182.1 195.912 181.241 197.712 180.038L197.274 179.383ZM189.167 143.671C189.575 142.796 189.836 141.489 189.963 140.032C190.09 138.566 190.085 136.911 189.941 135.319C189.798 133.729 189.514 132.183 189.075 130.943C188.646 129.728 188.032 128.699 187.155 128.301L186.829 129.018C187.392 129.274 187.914 130.021 188.333 131.205C188.742 132.363 189.017 133.838 189.157 135.39C189.297 136.938 189.301 138.546 189.178 139.964C189.054 141.391 188.803 142.589 188.453 143.339L189.167 143.671ZM187.155 128.301C183.55 126.662 178.499 128.911 176.256 134.49C174.002 140.096 174.527 149.079 181.859 161.229L182.533 160.822C175.271 148.786 174.861 140.072 176.987 134.783C179.125 129.468 183.769 127.627 186.829 129.018L187.155 128.301ZM182.531 161.233C183.292 160 183.967 158.06 184.934 155.243C185.908 152.405 187.192 148.626 189.176 143.651L188.445 143.359C186.453 148.354 185.163 152.149 184.189 154.987C183.208 157.844 182.564 159.68 181.861 160.819L182.531 161.233ZM204.489 161.234C204.897 160.357 205.128 159.132 205.225 157.78C205.322 156.419 205.285 154.896 205.138 153.403C204.991 151.909 204.732 150.436 204.382 149.174C204.035 147.924 203.585 146.841 203.035 146.162L202.423 146.659C202.869 147.208 203.284 148.164 203.623 149.385C203.959 150.595 204.211 152.022 204.354 153.48C204.498 154.937 204.533 156.415 204.439 157.724C204.345 159.041 204.123 160.153 203.775 160.902L204.489 161.234ZM203.035 146.162C202.29 145.245 201.391 144.676 200.413 144.457C199.436 144.238 198.41 144.374 197.419 144.815C195.446 145.693 193.593 147.784 192.405 150.81C190.021 156.878 190.254 166.813 197.596 178.981L198.27 178.574C191.018 166.555 190.867 156.879 193.138 151.098C194.277 148.198 196.012 146.304 197.74 145.535C198.6 145.152 199.453 145.049 200.24 145.226C201.026 145.402 201.777 145.862 202.423 146.659L203.035 146.162ZM198.268 178.984C198.658 178.352 198.991 177.538 199.333 176.539C199.675 175.538 200.034 174.323 200.468 172.886C201.336 170.005 202.516 166.183 204.498 161.214L203.766 160.922C201.772 165.923 200.585 169.769 199.714 172.658C199.277 174.105 198.924 175.3 198.588 176.284C198.251 177.27 197.94 178.016 197.598 178.57L198.268 178.984ZM169.549 141.349C171.835 146.783 176.609 155.659 183.514 164.666C190.419 173.672 199.471 182.832 210.321 188.805L210.701 188.115C199.98 182.212 191.005 173.142 184.139 164.187C177.274 155.232 172.535 146.415 170.276 141.043L169.549 141.349Z" fill="#FFD175"/>
<g filter="url(#filter5_f_672_878)">
<path d="M177.13 143.539L182.281 160.809L186.825 143.539H177.13Z" fill="#F7D8A0"/>
</g>
<g filter="url(#filter6_f_672_878)">
<path d="M160.23 123.584L168.99 139.333L169.696 121.489L160.23 123.584Z" fill="#F7D8A0"/>
</g>
<g filter="url(#filter7_f_672_878)">
<circle cx="183.795" cy="135.057" r="4.84763" fill="#FFEABC"/>
</g>
<g filter="url(#filter8_f_672_878)">
<circle cx="165.011" cy="115.666" r="4.84763" fill="#FFEABC"/>
</g>
<g filter="url(#filter9_f_672_878)">
<circle cx="161.375" cy="145.963" r="4.84763" fill="#FFEABC"/>
</g>
<g filter="url(#filter10_f_672_878)">
<circle cx="200.156" cy="150.811" r="4.84763" fill="#FFEABC"/>
</g>
<g filter="url(#filter11_f_672_878)">
<circle cx="172.888" cy="172.627" r="4.84763" fill="#FFEABC"/>
</g>
<g filter="url(#filter12_f_672_878)">
<path d="M192.582 159.9L197.732 177.17L202.277 159.9H192.582Z" fill="#F7D8A0"/>
</g>
<g filter="url(#filter13_f_672_878)">
<path d="M175.918 180.158L193.935 179.753L178.48 170.807L175.918 180.158Z" fill="#F7D8A0"/>
</g>
<g filter="url(#filter14_f_672_878)">
<path d="M161.981 155.443L178.784 161.958L167.923 147.782L161.981 155.443Z" fill="#F7D8A0"/>
</g>
</g>
<g filter="url(#filter15_d_672_878)">
<path d="M148.316 82.0488C149.612 82.3722 150.655 84.1195 151.014 84.9503C151.974 85.118 154.045 85.748 154.633 86.8515C154.504 88.0742 152.381 88.8973 151.546 89.3633C151.877 90.2035 152.815 91.8854 152.077 92.913C150.92 93.3222 149.07 92.2788 148.206 91.8615C147.349 92.2922 145.66 93.4781 144.436 92.9724C143.682 91.9564 144.51 90.2607 144.828 89.4155C143.986 88.9625 142.186 88.1892 142.038 86.9686C142.609 85.8561 144.667 85.2127 145.624 85.0301C145.97 84.1938 147.025 82.3923 148.316 82.0488Z" fill="url(#paint6_radial_672_878)"/>
</g>
<g filter="url(#filter16_d_672_878)">
<path d="M343.112 121.199L342.72 121.155C342.721 121.147 342.722 121.14 342.724 121.133L343.112 121.199ZM335.84 107.868L335.783 107.479L335.84 107.868ZM331.599 140.893L331.81 141.225C331.697 141.297 331.555 141.307 331.433 141.25C331.311 141.194 331.226 141.079 331.208 140.946L331.599 140.893ZM339.552 156.37L339.74 156.716L339.74 156.716L339.552 156.37ZM346.269 141.33L346.538 141.043L346.538 141.043L346.269 141.33ZM320.709 161.565L320.684 161.958C320.539 161.949 320.411 161.861 320.35 161.729C320.29 161.596 320.307 161.441 320.396 161.326L320.709 161.565ZM320.985 182.134L321.021 182.527L320.985 182.134ZM334.316 171.53L334.706 171.475L334.706 171.475L334.316 171.53ZM304.018 179.71L303.799 180.038C303.695 179.968 303.63 179.852 303.625 179.725C303.62 179.599 303.676 179.479 303.775 179.401L304.018 179.71ZM312.701 143.505L313.058 143.339C313.061 143.345 313.064 143.352 313.067 143.359L312.701 143.505ZM314.52 128.659L314.683 129.018L314.683 129.018L314.52 128.659ZM319.315 161.026L319.653 161.229C319.582 161.347 319.455 161.419 319.317 161.42C319.18 161.42 319.052 161.35 318.98 161.233L319.315 161.026ZM297.38 161.068L297.737 160.902C297.74 160.908 297.743 160.915 297.746 160.922L297.38 161.068ZM298.783 146.41L299.088 146.659L299.088 146.659L298.783 146.41ZM303.578 178.777L303.915 178.981C303.845 179.098 303.717 179.17 303.58 179.171C303.443 179.172 303.315 179.101 303.243 178.984L303.578 178.777ZM331.236 141.043C331.32 140.843 331.551 140.748 331.752 140.833C331.952 140.917 332.046 141.148 331.962 141.349L331.236 141.043ZM291.19 188.805C290.999 188.91 290.76 188.841 290.655 188.65C290.55 188.46 290.62 188.22 290.81 188.115L291.19 188.805ZM342.724 121.133C343.018 119.414 343.076 115.868 342.144 112.909C341.678 111.432 340.978 110.14 339.974 109.285C338.985 108.442 337.67 107.995 335.898 108.258L335.783 107.479C337.765 107.185 339.312 107.685 340.485 108.685C341.644 109.673 342.406 111.12 342.895 112.673C343.872 115.774 343.811 119.45 343.5 121.266L342.724 121.133ZM335.898 108.258C334.044 108.533 332.743 109.861 331.864 112.013C330.983 114.171 330.559 117.089 330.44 120.38C330.201 126.957 331.181 134.878 331.989 140.84L331.208 140.946C330.401 134.99 329.411 127.005 329.652 120.352C329.773 117.028 330.201 114.001 331.135 111.715C332.071 109.423 333.547 107.81 335.783 107.479L335.898 108.258ZM331.387 140.561C334.645 138.488 341.525 131.675 342.72 121.155L343.503 121.244C342.275 132.053 335.218 139.056 331.81 141.225L331.387 140.561ZM339.363 156.024C340.885 155.195 343.899 152.777 345.839 149.935C346.808 148.516 347.485 147.025 347.602 145.601C347.717 144.198 347.292 142.834 345.999 141.617L346.538 141.043C348.01 142.428 348.521 144.029 348.387 145.665C348.255 147.28 347.498 148.903 346.49 150.379C344.476 153.328 341.367 155.829 339.74 156.716L339.363 156.024ZM345.999 141.617C344.592 140.294 343.087 139.963 341.421 140.406C339.719 140.859 337.827 142.128 335.728 144.076C331.532 147.969 326.672 154.409 321.022 161.804L320.396 161.326C326.025 153.959 330.934 147.449 335.192 143.498C337.32 141.525 339.327 140.148 341.219 139.645C343.148 139.132 344.934 139.534 346.538 141.043L345.999 141.617ZM320.733 161.172C324.885 161.432 330.621 160.79 339.363 156.024L339.74 156.716C330.882 161.545 324.999 162.228 320.684 161.958L320.733 161.172ZM320.949 181.742C322.693 181.584 326.196 180.545 329.145 178.758C332.119 176.955 334.344 174.511 333.927 171.586L334.706 171.475C335.197 174.912 332.567 177.605 329.554 179.432C326.515 181.273 322.898 182.356 321.021 182.527L320.949 181.742ZM333.927 171.586C333.664 169.748 332.774 168.573 331.362 167.986C329.918 167.386 327.865 167.375 325.252 168.039C320.031 169.365 312.787 173.326 304.262 180.02L303.775 179.401C312.333 172.682 319.679 168.642 325.058 167.276C327.743 166.594 329.993 166.564 331.665 167.259C333.369 167.967 334.41 169.402 334.706 171.475L333.927 171.586ZM304.237 179.383C305.963 180.537 307.654 181.345 310.14 181.759C312.641 182.175 315.962 182.195 320.949 181.742L321.021 182.527C316.01 182.982 312.611 182.969 310.01 182.536C307.394 182.1 305.6 181.241 303.799 180.038L304.237 179.383ZM312.344 143.671C311.936 142.796 311.676 141.489 311.549 140.032C311.421 138.566 311.426 136.911 311.57 135.319C311.714 133.729 311.998 132.183 312.436 130.943C312.865 129.728 313.479 128.699 314.357 128.301L314.683 129.018C314.12 129.274 313.597 130.021 313.179 131.205C312.77 132.363 312.495 133.838 312.355 135.39C312.215 136.938 312.21 138.546 312.334 139.964C312.458 141.391 312.709 142.589 313.058 143.339L312.344 143.671ZM314.357 128.301C317.962 126.662 323.012 128.911 325.255 134.49C327.509 140.096 326.984 149.079 319.653 161.229L318.978 160.822C326.241 148.786 326.65 140.072 324.524 134.783C322.387 129.468 317.742 127.627 314.683 129.018L314.357 128.301ZM318.98 161.233C318.219 160 317.544 158.06 316.578 155.243C315.604 152.405 314.319 148.626 312.335 143.651L313.067 143.359C315.059 148.354 316.349 152.149 317.323 154.987C318.303 157.844 318.947 159.68 319.651 160.819L318.98 161.233ZM297.023 161.234C296.614 160.357 296.383 159.132 296.287 157.78C296.189 156.419 296.226 154.896 296.373 153.403C296.52 151.909 296.779 150.436 297.13 149.174C297.477 147.924 297.926 146.841 298.477 146.162L299.088 146.659C298.642 147.208 298.228 148.164 297.889 149.385C297.552 150.595 297.301 152.022 297.157 153.48C297.014 154.937 296.979 156.415 297.072 157.724C297.166 159.041 297.388 160.153 297.737 160.902L297.023 161.234ZM298.477 146.162C299.222 145.245 300.12 144.676 301.099 144.457C302.076 144.238 303.102 144.374 304.092 144.815C306.066 145.693 307.918 147.784 309.107 150.81C311.491 156.878 311.258 166.813 303.915 178.981L303.241 178.574C310.493 166.555 310.645 156.879 308.374 151.098C307.234 148.198 305.5 146.304 303.772 145.535C302.912 145.152 302.059 145.049 301.271 145.226C300.485 145.402 299.735 145.862 299.088 146.659L298.477 146.162ZM303.243 178.984C302.853 178.352 302.52 177.538 302.179 176.539C301.836 175.538 301.477 174.323 301.044 172.886C300.175 170.005 298.995 166.183 297.014 161.214L297.746 160.922C299.739 165.923 300.927 169.769 301.798 172.658C302.234 174.105 302.588 175.3 302.924 176.284C303.261 177.27 303.571 178.016 303.913 178.57L303.243 178.984ZM331.962 141.349C329.676 146.783 324.903 155.659 317.997 164.666C311.093 173.672 302.04 182.832 291.19 188.805L290.81 188.115C301.532 182.212 310.506 173.142 317.372 164.187C324.237 155.232 328.977 146.415 331.236 141.043L331.962 141.349Z" fill="#FFD175"/>
<g filter="url(#filter17_f_672_878)">
<path d="M324.381 143.539L319.231 160.809L314.686 143.539H324.381Z" fill="#F7D8A0"/>
</g>
<g filter="url(#filter18_f_672_878)">
<path d="M341.282 123.584L332.521 139.333L331.816 121.489L341.282 123.584Z" fill="#F7D8A0"/>
</g>
<g filter="url(#filter19_f_672_878)">
<circle cx="4.84763" cy="4.84763" r="4.84763" transform="matrix(-1 0 0 1 322.564 130.209)" fill="#FFEABC"/>
</g>
<g filter="url(#filter20_f_672_878)">
<circle cx="4.84763" cy="4.84763" r="4.84763" transform="matrix(-1 0 0 1 341.348 110.818)" fill="#FFEABC"/>
</g>
<g filter="url(#filter21_f_672_878)">
<circle cx="4.84763" cy="4.84763" r="4.84763" transform="matrix(-1 0 0 1 344.984 141.115)" fill="#FFEABC"/>
</g>
<g filter="url(#filter22_f_672_878)">
<circle cx="4.84763" cy="4.84763" r="4.84763" transform="matrix(-1 0 0 1 306.203 145.963)" fill="#FFEABC"/>
</g>
<g filter="url(#filter23_f_672_878)">
<circle cx="4.84763" cy="4.84763" r="4.84763" transform="matrix(-1 0 0 1 333.471 167.779)" fill="#FFEABC"/>
</g>
<g filter="url(#filter24_f_672_878)">
<path d="M308.93 159.9L303.779 177.17L299.235 159.9H308.93Z" fill="#F7D8A0"/>
</g>
<g filter="url(#filter25_f_672_878)">
<path d="M325.594 180.158L307.577 179.753L323.032 170.807L325.594 180.158Z" fill="#F7D8A0"/>
</g>
<g filter="url(#filter26_f_672_878)">
<path d="M339.531 155.443L322.728 161.958L333.589 147.782L339.531 155.443Z" fill="#F7D8A0"/>
</g>
</g>
<g filter="url(#filter27_d_672_878)">
<path d="M247.421 44.4415C234.255 48.2415 223.898 67.7889 220.376 77.0605C210.61 79.0795 189.59 86.4079 183.768 98.7406C185.291 112.277 207.087 121.053 215.681 126.081C212.437 135.453 203.153 154.258 210.847 165.53C222.718 169.875 241.42 158 250.163 153.23C258.979 157.864 276.408 170.734 288.809 164.924C296.327 153.534 287.608 134.868 284.219 125.549C292.734 120.387 310.966 111.514 312.278 97.955C306.265 85.7143 285.171 78.9202 275.376 77.0532C271.709 67.8375 260.644 48.0364 247.421 44.4415Z" fill="url(#paint7_radial_672_878)"/>
</g>
<path d="M252.511 118.44C248.413 120.067 246.732 118.485 246.411 118.488C243.832 117.179 243.533 120.171 243.859 120.833C244.186 121.495 244.729 122.306 245.375 122.966C248.608 125.599 251.597 124.76 253.186 122.754C255.725 118.748 253.792 117.987 252.511 118.44Z" fill="#082A39"/>
<path d="M228.106 91.9283C228.387 91.3549 229.635 90.2029 232.377 90.1816" stroke="#25607A" stroke-width="0.854494" stroke-linecap="round" stroke-linejoin="round"/>
<path d="M266.666 92.4849C266.376 91.916 265.11 90.7835 262.369 90.8048" stroke="#25607A" stroke-width="0.854494" stroke-linecap="round" stroke-linejoin="round"/>
<path d="M241.137 114.958C241.159 117.797 236.306 120.136 233.467 120.158C230.628 120.18 225.738 117.917 225.716 115.078C225.694 112.239 230.548 109.9 233.387 109.878C236.226 109.856 241.115 112.119 241.137 114.958Z" fill="#FFA498"/>
<path d="M272.656 114.714C272.678 117.553 267.825 119.892 264.986 119.914C262.147 119.936 257.258 117.673 257.236 114.834C257.213 111.995 262.067 109.655 264.906 109.633C267.745 109.611 272.634 111.875 272.656 114.714Z" fill="#FFA498"/>
<g filter="url(#filter28_d_672_878)">
<path d="M194.967 51.0616C196.602 51.4695 197.919 53.6737 198.371 54.7217C199.582 54.9334 202.195 55.7281 202.937 57.1201C202.774 58.6625 200.095 59.7008 199.042 60.2887C199.46 61.3486 200.643 63.4703 199.712 64.7666C198.253 65.2827 195.919 63.9666 194.829 63.4401C193.748 63.9835 191.617 65.4794 190.073 64.8416C189.122 63.5599 190.166 61.4208 190.568 60.3545C189.505 59.7831 187.235 58.8075 187.048 57.2678C187.769 55.8645 190.364 55.0528 191.572 54.8224C192.008 53.7674 193.339 51.4948 194.967 51.0616Z" fill="url(#paint8_radial_672_878)"/>
</g>
<g filter="url(#filter29_d_672_878)">
<path d="M308.281 38.8902C310.551 39.4566 312.379 42.5174 313.008 43.9728C314.689 44.2666 318.317 45.3702 319.348 47.3032C319.121 49.445 315.402 50.8869 313.939 51.7031C314.52 53.1749 316.162 56.1213 314.87 57.9214C312.843 58.638 309.602 56.8104 308.089 56.0794C306.587 56.8338 303.628 58.9111 301.484 58.0254C300.165 56.2456 301.614 53.2752 302.172 51.7946C300.697 51.0012 297.544 49.6464 297.284 47.5083C298.285 45.5596 301.889 44.4325 303.565 44.1125C304.171 42.6476 306.02 39.4918 308.281 38.8902Z" fill="url(#paint9_radial_672_878)"/>
</g>
<path d="M256.623 109.451C260.265 112.911 264.382 110.28 269.482 109.121C274.139 107.763 272.794 99.7223 269.152 96.2625C265.51 92.8028 259.753 92.9504 256.293 96.5924C252.833 100.234 252.981 105.991 256.623 109.451Z" fill="white"/>
<circle cx="6.85395" cy="6.85395" r="6.85395" transform="matrix(-0.688741 0.725008 0.725008 0.688741 261.158 93.3945)" fill="url(#paint10_linear_672_878)"/>
<circle cx="5.9972" cy="5.9972" r="5.9972" transform="matrix(-0.688741 0.725008 0.725008 0.688741 259.977 94.6367)" fill="#1A3A47"/>
<path d="M256.592 104.456C255.984 104.155 255.352 104.82 255.684 105.411V105.411C255.832 105.675 255.789 106.006 255.581 106.226V106.226C255.114 106.717 255.529 107.529 256.199 107.422L256.268 107.411C256.565 107.363 256.859 107.506 257.006 107.767L257.054 107.853C257.381 108.434 258.261 108.254 258.332 107.591V107.591C258.365 107.284 258.6 107.038 258.905 106.989V106.989C259.563 106.883 259.698 105.995 259.101 105.699L259.012 105.655C258.743 105.522 258.586 105.235 258.618 104.937L258.626 104.867C258.699 104.193 257.867 103.819 257.4 104.311V104.311C257.191 104.53 256.863 104.59 256.592 104.456V104.456Z" fill="white"/>
<path d="M260.769 98.0126C260.161 97.7115 259.53 98.3764 259.862 98.9679V98.9679C260.01 99.2316 259.967 99.563 259.758 99.7822V99.7822C259.291 100.274 259.707 101.086 260.376 100.978L260.446 100.967C260.742 100.92 261.037 101.062 261.184 101.324L261.232 101.41C261.558 101.991 262.438 101.811 262.51 101.148V101.148C262.543 100.841 262.777 100.594 263.082 100.545V100.545C263.741 100.44 263.875 99.5517 263.278 99.2557L263.19 99.2121C262.921 99.0788 262.764 98.792 262.796 98.4936L262.803 98.4235C262.876 97.7495 262.044 97.3761 261.577 97.8676V97.8676C261.369 98.0869 261.04 98.1468 260.769 98.0126V98.0126Z" fill="white"/>
<path d="M243.655 109.55C240.067 113.066 235.91 110.499 230.793 109.42C226.115 108.134 227.335 100.074 230.923 96.5576C234.51 93.0417 240.269 93.0999 243.785 96.6876C247.301 100.275 247.243 106.034 243.655 109.55Z" fill="white"/>
<circle cx="238.774" cy="103.257" r="6.85395" transform="rotate(45.5789 238.774 103.257)" fill="url(#paint11_linear_672_878)"/>
<circle cx="239.984" cy="103.27" r="5.9972" transform="rotate(45.5789 239.984 103.27)" fill="#1A3A47"/>
<path d="M243.61 104.555C244.213 104.245 244.855 104.9 244.532 105.496V105.496C244.388 105.762 244.436 106.093 244.648 106.309V106.309C245.123 106.793 244.72 107.611 244.049 107.515L243.979 107.505C243.682 107.462 243.39 107.609 243.247 107.873L243.2 107.959C242.883 108.546 242 108.379 241.918 107.718V107.718C241.88 107.411 241.642 107.168 241.336 107.124V107.124C240.677 107.029 240.528 106.143 241.121 105.837L241.208 105.792C241.475 105.655 241.628 105.366 241.591 105.068L241.582 104.998C241.499 104.325 242.325 103.939 242.8 104.423V104.423C243.011 104.639 243.341 104.694 243.61 104.555V104.555Z" fill="white"/>
<path d="M240.355 98.1706C240.958 97.8601 241.6 98.5151 241.278 99.1117V99.1117C241.134 99.3777 241.182 99.7084 241.394 99.9243V99.9243C241.868 100.409 241.465 101.227 240.794 101.13L240.724 101.12C240.427 101.077 240.135 101.224 239.992 101.488L239.946 101.575C239.628 102.161 238.746 101.994 238.664 101.333V101.333C238.626 101.026 238.388 100.783 238.082 100.739V100.739C237.422 100.644 237.273 99.7579 237.866 99.4526L237.954 99.4076C238.22 99.2702 238.373 98.981 238.336 98.6831L238.328 98.6131C238.245 97.9403 239.071 97.5541 239.545 98.0382V98.0382C239.757 98.2542 240.087 98.3091 240.355 98.1706V98.1706Z" fill="white"/>
<path d="M246.98 123.364C247.865 122.645 250.278 121.629 252.855 123.318C250.308 125.474 247.877 124.247 246.98 123.364Z" fill="#DC6060"/>
<defs>
<filter id="filter0_d_672_878" x="229.607" y="114.957" width="38.0341" height="79.9138" filterUnits="userSpaceOnUse" color-interpolation-filters="sRGB">
<feFlood flood-opacity="0" result="BackgroundImageFix"/>
<feColorMatrix in="SourceAlpha" type="matrix" values="0 0 0 0 0 0 0 0 0 0 0 0 0 0 0 0 0 0 127 0" result="hardAlpha"/>
<feOffset dy="3.41879"/>
<feGaussianBlur stdDeviation="1.7094"/>
<feComposite in2="hardAlpha" operator="out"/>
<feColorMatrix type="matrix" values="0 0 0 0 0 0 0 0 0 0 0 0 0 0 0 0 0 0 0.25 0"/>
<feBlend mode="normal" in2="BackgroundImageFix" result="effect1_dropShadow_672_878"/>
<feBlend mode="normal" in="SourceGraphic" in2="effect1_dropShadow_672_878" result="shape"/>
</filter>
<filter id="filter1_f_672_878" x="219.778" y="112.933" width="58.1196" height="60.2563" filterUnits="userSpaceOnUse" color-interpolation-filters="sRGB">
<feFlood flood-opacity="0" result="BackgroundImageFix"/>
<feBlend mode="normal" in="SourceGraphic" in2="BackgroundImageFix" result="shape"/>
<feGaussianBlur stdDeviation="8.54698" result="effect1_foregroundBlur_672_878"/>
</filter>
<filter id="filter2_i_672_878" x="226.188" y="188.033" width="43.5896" height="18.5309" filterUnits="userSpaceOnUse" color-interpolation-filters="sRGB">
<feFlood flood-opacity="0" result="BackgroundImageFix"/>
<feBlend mode="normal" in="SourceGraphic" in2="BackgroundImageFix" result="shape"/>
<feColorMatrix in="SourceAlpha" type="matrix" values="0 0 0 0 0 0 0 0 0 0 0 0 0 0 0 0 0 0 127 0" result="hardAlpha"/>
<feMorphology radius="4.3116" operator="erode" in="SourceAlpha" result="effect1_innerShadow_672_878"/>
<feOffset dy="1.4372"/>
<feGaussianBlur stdDeviation="4.27349"/>
<feComposite in2="hardAlpha" operator="arithmetic" k2="-1" k3="1"/>
<feColorMatrix type="matrix" values="0 0 0 0 1 0 0 0 0 0.881996 0 0 0 0 0.691667 0 0 0 1 0"/>
<feBlend mode="normal" in2="shape" result="effect1_innerShadow_672_878"/>
</filter>
<filter id="filter3_i_672_878" x="201.402" y="202.562" width="94.0168" height="24.5134" filterUnits="userSpaceOnUse" color-interpolation-filters="sRGB">
<feFlood flood-opacity="0" result="BackgroundImageFix"/>
<feBlend mode="normal" in="SourceGraphic" in2="BackgroundImageFix" result="shape"/>
<feColorMatrix in="SourceAlpha" type="matrix" values="0 0 0 0 0 0 0 0 0 0 0 0 0 0 0 0 0 0 127 0" result="hardAlpha"/>
<feMorphology radius="4.3116" operator="erode" in="SourceAlpha" result="effect1_innerShadow_672_878"/>
<feOffset dy="1.4372"/>
<feGaussianBlur stdDeviation="4.27349"/>
<feComposite in2="hardAlpha" operator="arithmetic" k2="-1" k3="1"/>
<feColorMatrix type="matrix" values="0 0 0 0 1 0 0 0 0 0.881996 0 0 0 0 0.691667 0 0 0 1 0"/>
<feBlend mode="normal" in2="shape" result="effect1_innerShadow_672_878"/>
</filter>
<filter id="filter4_d_672_878" x="149.104" y="103.395" width="65.8015" height="89.459" filterUnits="userSpaceOnUse" color-interpolation-filters="sRGB">
<feFlood flood-opacity="0" result="BackgroundImageFix"/>
<feColorMatrix in="SourceAlpha" type="matrix" values="0 0 0 0 0 0 0 0 0 0 0 0 0 0 0 0 0 0 127 0" result="hardAlpha"/>
<feOffset/>
<feGaussianBlur stdDeviation="2"/>
<feComposite in2="hardAlpha" operator="out"/>
<feColorMatrix type="matrix" values="0 0 0 0 1 0 0 0 0 1 0 0 0 0 1 0 0 0 1 0"/>
<feBlend mode="normal" in2="BackgroundImageFix" result="effect1_dropShadow_672_878"/>
<feBlend mode="normal" in="SourceGraphic" in2="effect1_dropShadow_672_878" result="shape"/>
</filter>
<filter id="filter5_f_672_878" x="171.071" y="137.48" width="21.8144" height="29.3886" filterUnits="userSpaceOnUse" color-interpolation-filters="sRGB">
<feFlood flood-opacity="0" result="BackgroundImageFix"/>
<feBlend mode="normal" in="SourceGraphic" in2="BackgroundImageFix" result="shape"/>
<feGaussianBlur stdDeviation="3.02977" result="effect1_foregroundBlur_672_878"/>
</filter>
<filter id="filter6_f_672_878" x="154.17" y="115.429" width="21.5854" height="29.9628" filterUnits="userSpaceOnUse" color-interpolation-filters="sRGB">
<feFlood flood-opacity="0" result="BackgroundImageFix"/>
<feBlend mode="normal" in="SourceGraphic" in2="BackgroundImageFix" result="shape"/>
<feGaussianBlur stdDeviation="3.02977" result="effect1_foregroundBlur_672_878"/>
</filter>
<filter id="filter7_f_672_878" x="172.888" y="124.149" width="21.8144" height="21.8144" filterUnits="userSpaceOnUse" color-interpolation-filters="sRGB">
<feFlood flood-opacity="0" result="BackgroundImageFix"/>
<feBlend mode="normal" in="SourceGraphic" in2="BackgroundImageFix" result="shape"/>
<feGaussianBlur stdDeviation="3.02977" result="effect1_foregroundBlur_672_878"/>
</filter>
<filter id="filter8_f_672_878" x="154.104" y="104.759" width="21.8144" height="21.8144" filterUnits="userSpaceOnUse" color-interpolation-filters="sRGB">
<feFlood flood-opacity="0" result="BackgroundImageFix"/>
<feBlend mode="normal" in="SourceGraphic" in2="BackgroundImageFix" result="shape"/>
<feGaussianBlur stdDeviation="3.02977" result="effect1_foregroundBlur_672_878"/>
</filter>
<filter id="filter9_f_672_878" x="150.468" y="135.056" width="21.8144" height="21.8144" filterUnits="userSpaceOnUse" color-interpolation-filters="sRGB">
<feFlood flood-opacity="0" result="BackgroundImageFix"/>
<feBlend mode="normal" in="SourceGraphic" in2="BackgroundImageFix" result="shape"/>
<feGaussianBlur stdDeviation="3.02977" result="effect1_foregroundBlur_672_878"/>
</filter>
<filter id="filter10_f_672_878" x="189.249" y="139.903" width="21.8144" height="21.8144" filterUnits="userSpaceOnUse" color-interpolation-filters="sRGB">
<feFlood flood-opacity="0" result="BackgroundImageFix"/>
<feBlend mode="normal" in="SourceGraphic" in2="BackgroundImageFix" result="shape"/>
<feGaussianBlur stdDeviation="3.02977" result="effect1_foregroundBlur_672_878"/>
</filter>
<filter id="filter11_f_672_878" x="161.981" y="161.72" width="21.8144" height="21.8144" filterUnits="userSpaceOnUse" color-interpolation-filters="sRGB">
<feFlood flood-opacity="0" result="BackgroundImageFix"/>
<feBlend mode="normal" in="SourceGraphic" in2="BackgroundImageFix" result="shape"/>
<feGaussianBlur stdDeviation="3.02977" result="effect1_foregroundBlur_672_878"/>
</filter>
<filter id="filter12_f_672_878" x="186.522" y="153.841" width="21.8144" height="29.3886" filterUnits="userSpaceOnUse" color-interpolation-filters="sRGB">
<feFlood flood-opacity="0" result="BackgroundImageFix"/>
<feBlend mode="normal" in="SourceGraphic" in2="BackgroundImageFix" result="shape"/>
<feGaussianBlur stdDeviation="3.02977" result="effect1_foregroundBlur_672_878"/>
</filter>
<filter id="filter13_f_672_878" x="169.858" y="164.747" width="30.1359" height="21.4706" filterUnits="userSpaceOnUse" color-interpolation-filters="sRGB">
<feFlood flood-opacity="0" result="BackgroundImageFix"/>
<feBlend mode="normal" in="SourceGraphic" in2="BackgroundImageFix" result="shape"/>
<feGaussianBlur stdDeviation="3.02977" result="effect1_foregroundBlur_672_878"/>
</filter>
<filter id="filter14_f_672_878" x="155.921" y="141.724" width="28.9221" height="26.2929" filterUnits="userSpaceOnUse" color-interpolation-filters="sRGB">
<feFlood flood-opacity="0" result="BackgroundImageFix"/>
<feBlend mode="normal" in="SourceGraphic" in2="BackgroundImageFix" result="shape"/>
<feGaussianBlur stdDeviation="3.02977" result="effect1_foregroundBlur_672_878"/>
</filter>
<filter id="filter15_d_672_878" x="126.293" y="66.3037" width="44.0856" height="42.537" filterUnits="userSpaceOnUse" color-interpolation-filters="sRGB">
<feFlood flood-opacity="0" result="BackgroundImageFix"/>
<feColorMatrix in="SourceAlpha" type="matrix" values="0 0 0 0 0 0 0 0 0 0 0 0 0 0 0 0 0 0 127 0" result="hardAlpha"/>
<feOffset/>
<feGaussianBlur stdDeviation="7.87254"/>
<feComposite in2="hardAlpha" operator="out"/>
<feColorMatrix type="matrix" values="0 0 0 0 1 0 0 0 0 0.99125 0 0 0 0 0.925 0 0 0 1 0"/>
<feBlend mode="normal" in2="BackgroundImageFix" result="effect1_dropShadow_672_878"/>
<feBlend mode="normal" in="SourceGraphic" in2="effect1_dropShadow_672_878" result="shape"/>
</filter>
<filter id="filter16_d_672_878" x="286.606" y="103.395" width="65.8015" height="89.459" filterUnits="userSpaceOnUse" color-interpolation-filters="sRGB">
<feFlood flood-opacity="0" result="BackgroundImageFix"/>
<feColorMatrix in="SourceAlpha" type="matrix" values="0 0 0 0 0 0 0 0 0 0 0 0 0 0 0 0 0 0 127 0" result="hardAlpha"/>
<feOffset/>
<feGaussianBlur stdDeviation="2"/>
<feComposite in2="hardAlpha" operator="out"/>
<feColorMatrix type="matrix" values="0 0 0 0 1 0 0 0 0 1 0 0 0 0 1 0 0 0 1 0"/>
<feBlend mode="normal" in2="BackgroundImageFix" result="effect1_dropShadow_672_878"/>
<feBlend mode="normal" in="SourceGraphic" in2="effect1_dropShadow_672_878" result="shape"/>
</filter>
<filter id="filter17_f_672_878" x="308.626" y="137.48" width="21.8144" height="29.3886" filterUnits="userSpaceOnUse" color-interpolation-filters="sRGB">
<feFlood flood-opacity="0" result="BackgroundImageFix"/>
<feBlend mode="normal" in="SourceGraphic" in2="BackgroundImageFix" result="shape"/>
<feGaussianBlur stdDeviation="3.02977" result="effect1_foregroundBlur_672_878"/>
</filter>
<filter id="filter18_f_672_878" x="325.756" y="115.429" width="21.5854" height="29.9628" filterUnits="userSpaceOnUse" color-interpolation-filters="sRGB">
<feFlood flood-opacity="0" result="BackgroundImageFix"/>
<feBlend mode="normal" in="SourceGraphic" in2="BackgroundImageFix" result="shape"/>
<feGaussianBlur stdDeviation="3.02977" result="effect1_foregroundBlur_672_878"/>
</filter>
<filter id="filter19_f_672_878" x="306.809" y="124.149" width="21.8144" height="21.8144" filterUnits="userSpaceOnUse" color-interpolation-filters="sRGB">
<feFlood flood-opacity="0" result="BackgroundImageFix"/>
<feBlend mode="normal" in="SourceGraphic" in2="BackgroundImageFix" result="shape"/>
<feGaussianBlur stdDeviation="3.02977" result="effect1_foregroundBlur_672_878"/>
</filter>
<filter id="filter20_f_672_878" x="325.593" y="104.759" width="21.8144" height="21.8144" filterUnits="userSpaceOnUse" color-interpolation-filters="sRGB">
<feFlood flood-opacity="0" result="BackgroundImageFix"/>
<feBlend mode="normal" in="SourceGraphic" in2="BackgroundImageFix" result="shape"/>
<feGaussianBlur stdDeviation="3.02977" result="effect1_foregroundBlur_672_878"/>
</filter>
<filter id="filter21_f_672_878" x="329.229" y="135.056" width="21.8144" height="21.8144" filterUnits="userSpaceOnUse" color-interpolation-filters="sRGB">
<feFlood flood-opacity="0" result="BackgroundImageFix"/>
<feBlend mode="normal" in="SourceGraphic" in2="BackgroundImageFix" result="shape"/>
<feGaussianBlur stdDeviation="3.02977" result="effect1_foregroundBlur_672_878"/>
</filter>
<filter id="filter22_f_672_878" x="290.448" y="139.903" width="21.8144" height="21.8144" filterUnits="userSpaceOnUse" color-interpolation-filters="sRGB">
<feFlood flood-opacity="0" result="BackgroundImageFix"/>
<feBlend mode="normal" in="SourceGraphic" in2="BackgroundImageFix" result="shape"/>
<feGaussianBlur stdDeviation="3.02977" result="effect1_foregroundBlur_672_878"/>
</filter>
<filter id="filter23_f_672_878" x="317.716" y="161.72" width="21.8144" height="21.8144" filterUnits="userSpaceOnUse" color-interpolation-filters="sRGB">
<feFlood flood-opacity="0" result="BackgroundImageFix"/>
<feBlend mode="normal" in="SourceGraphic" in2="BackgroundImageFix" result="shape"/>
<feGaussianBlur stdDeviation="3.02977" result="effect1_foregroundBlur_672_878"/>
</filter>
<filter id="filter24_f_672_878" x="293.175" y="153.841" width="21.8144" height="29.3886" filterUnits="userSpaceOnUse" color-interpolation-filters="sRGB">
<feFlood flood-opacity="0" result="BackgroundImageFix"/>
<feBlend mode="normal" in="SourceGraphic" in2="BackgroundImageFix" result="shape"/>
<feGaussianBlur stdDeviation="3.02977" result="effect1_foregroundBlur_672_878"/>
</filter>
<filter id="filter25_f_672_878" x="301.517" y="164.747" width="30.1359" height="21.4706" filterUnits="userSpaceOnUse" color-interpolation-filters="sRGB">
<feFlood flood-opacity="0" result="BackgroundImageFix"/>
<feBlend mode="normal" in="SourceGraphic" in2="BackgroundImageFix" result="shape"/>
<feGaussianBlur stdDeviation="3.02977" result="effect1_foregroundBlur_672_878"/>
</filter>
<filter id="filter26_f_672_878" x="316.668" y="141.724" width="28.9221" height="26.2929" filterUnits="userSpaceOnUse" color-interpolation-filters="sRGB">
<feFlood flood-opacity="0" result="BackgroundImageFix"/>
<feBlend mode="normal" in="SourceGraphic" in2="BackgroundImageFix" result="shape"/>
<feGaussianBlur stdDeviation="3.02977" result="effect1_foregroundBlur_672_878"/>
</filter>
<filter id="filter27_d_672_878" x="163.769" y="24.4414" width="168.509" height="162.027" filterUnits="userSpaceOnUse" color-interpolation-filters="sRGB">
<feFlood flood-opacity="0" result="BackgroundImageFix"/>
<feColorMatrix in="SourceAlpha" type="matrix" values="0 0 0 0 0 0 0 0 0 0 0 0 0 0 0 0 0 0 127 0" result="hardAlpha"/>
<feOffset/>
<feGaussianBlur stdDeviation="10"/>
<feComposite in2="hardAlpha" operator="out"/>
<feColorMatrix type="matrix" values="0 0 0 0 1 0 0 0 0 1 0 0 0 0 1 0 0 0 1 0"/>
<feBlend mode="normal" in2="BackgroundImageFix" result="effect1_dropShadow_672_878"/>
<feBlend mode="normal" in="SourceGraphic" in2="effect1_dropShadow_672_878" result="shape"/>
</filter>
<filter id="filter28_d_672_878" x="167.186" y="31.2003" width="55.6136" height="53.658" filterUnits="userSpaceOnUse" color-interpolation-filters="sRGB">
<feFlood flood-opacity="0" result="BackgroundImageFix"/>
<feColorMatrix in="SourceAlpha" type="matrix" values="0 0 0 0 0 0 0 0 0 0 0 0 0 0 0 0 0 0 127 0" result="hardAlpha"/>
<feOffset/>
<feGaussianBlur stdDeviation="9.9311"/>
<feComposite in2="hardAlpha" operator="out"/>
<feColorMatrix type="matrix" values="0 0 0 0 1 0 0 0 0 0.99125 0 0 0 0 0.925 0 0 0 1 0"/>
<feBlend mode="normal" in2="BackgroundImageFix" result="effect1_dropShadow_672_878"/>
<feBlend mode="normal" in="SourceGraphic" in2="effect1_dropShadow_672_878" result="shape"/>
</filter>
<filter id="filter29_d_672_878" x="269.703" y="11.3095" width="77.2262" height="74.5138" filterUnits="userSpaceOnUse" color-interpolation-filters="sRGB">
<feFlood flood-opacity="0" result="BackgroundImageFix"/>
<feColorMatrix in="SourceAlpha" type="matrix" values="0 0 0 0 0 0 0 0 0 0 0 0 0 0 0 0 0 0 127 0" result="hardAlpha"/>
<feOffset/>
<feGaussianBlur stdDeviation="13.7906"/>
<feComposite in2="hardAlpha" operator="out"/>
<feColorMatrix type="matrix" values="0 0 0 0 1 0 0 0 0 0.99125 0 0 0 0 0.925 0 0 0 1 0"/>
<feBlend mode="normal" in2="BackgroundImageFix" result="effect1_dropShadow_672_878"/>
<feBlend mode="normal" in="SourceGraphic" in2="effect1_dropShadow_672_878" result="shape"/>
</filter>
<linearGradient id="paint0_linear_672_878" x1="140.75" y1="96.2832" x2="140.75" y2="304.001" gradientUnits="userSpaceOnUse">
<stop stop-color="#51FFEB"/>
<stop offset="0.72" stop-color="white" stop-opacity="0"/>
</linearGradient>
<linearGradient id="paint1_linear_672_878" x1="156.25" y1="96" x2="156.25" y2="330.718" gradientUnits="userSpaceOnUse">
<stop stop-color="#BEFFC0"/>
<stop offset="0.73" stop-color="white" stop-opacity="0"/>
</linearGradient>
<linearGradient id="paint2_linear_672_878" x1="115.5" y1="91" x2="115.5" y2="244.5" gradientUnits="userSpaceOnUse">
<stop stop-color="#88B2FF"/>
<stop offset="1" stop-color="white" stop-opacity="0"/>
</linearGradient>
<linearGradient id="paint3_linear_672_878" x1="356.25" y1="94.2832" x2="356.25" y2="302.001" gradientUnits="userSpaceOnUse">
<stop stop-color="#FFDA51"/>
<stop offset="0.72" stop-color="white" stop-opacity="0"/>
</linearGradient>
<linearGradient id="paint4_linear_672_878" x1="340.75" y1="94" x2="340.75" y2="328.718" gradientUnits="userSpaceOnUse">
<stop stop-color="#DFAEFF"/>
<stop offset="0.73" stop-color="white" stop-opacity="0"/>
</linearGradient>
<linearGradient id="paint5_linear_672_878" x1="381.5" y1="89" x2="381.5" y2="242.5" gradientUnits="userSpaceOnUse">
<stop stop-color="#FF8889"/>
<stop offset="1" stop-color="white" stop-opacity="0"/>
</linearGradient>
<radialGradient id="paint6_radial_672_878" cx="0" cy="0" r="1" gradientUnits="userSpaceOnUse" gradientTransform="translate(147.951 88.5746) rotate(88.3289) scale(3.09904 3.77912)">
<stop stop-color="#FFD9DA"/>
<stop offset="1" stop-color="#FF9FA1"/>
</radialGradient>
<radialGradient id="paint7_radial_672_878" cx="0" cy="0" r="1" gradientUnits="userSpaceOnUse" gradientTransform="translate(252.224 116.742) rotate(90.6825) scale(34.366 38.5579)">
<stop stop-color="#FFF2D4"/>
<stop offset="1" stop-color="#FEE09A"/>
</radialGradient>
<radialGradient id="paint8_radial_672_878" cx="0" cy="0" r="1" gradientUnits="userSpaceOnUse" gradientTransform="translate(194.507 59.2938) rotate(88.3289) scale(3.9094 4.76731)">
<stop stop-color="#C6FFF8"/>
<stop offset="1" stop-color="#48F2DE"/>
</radialGradient>
<radialGradient id="paint9_radial_672_878" cx="0" cy="0" r="1" gradientUnits="userSpaceOnUse" gradientTransform="translate(307.642 50.3217) rotate(88.3289) scale(5.42868 6.61999)">
<stop stop-color="#DEFFDC"/>
<stop offset="1" stop-color="#9EE69A"/>
</radialGradient>
<linearGradient id="paint10_linear_672_878" x1="6.85395" y1="0" x2="6.85395" y2="13.7079" gradientUnits="userSpaceOnUse">
<stop stop-color="#48C7FF"/>
<stop offset="1" stop-color="#0481B8"/>
</linearGradient>
<linearGradient id="paint11_linear_672_878" x1="238.774" y1="96.403" x2="238.774" y2="110.111" gradientUnits="userSpaceOnUse">
<stop stop-color="#48C7FF"/>
<stop offset="1" stop-color="#0481B8"/>
</linearGradient>
</defs>
</svg>
