<svg width="16" height="17" viewBox="0 0 16 17" fill="none" xmlns="http://www.w3.org/2000/svg">
<path d="M14.8794 3.68915C15.5238 2.93946 15.5238 1.83144 14.8794 1.08176L14.6067 0.764508C13.8087 -0.163899 12.3713 -0.163899 11.5733 0.764507L9.5167 3.15713C8.71868 4.08553 7.28132 4.08553 6.4833 3.15713L4.4267 0.764507C3.62868 -0.1639 2.19132 -0.163899 1.3933 0.764508L1.1206 1.08176C0.476204 1.83144 0.476204 2.93946 1.1206 3.68915L3.9694 7.00339C4.6138 7.75308 4.6138 8.8611 3.9694 9.61078L1.1206 12.925C0.476204 13.6747 0.476204 14.7827 1.1206 15.5324L1.3933 15.8497C2.19132 16.7781 3.62868 16.7781 4.4267 15.8497L6.4833 13.457C7.28132 12.5286 8.71868 12.5286 9.5167 13.457L11.5733 15.8497C12.3713 16.7781 13.8087 16.7781 14.6067 15.8497L14.8794 15.5324C15.5238 14.7827 15.5238 13.6747 14.8794 12.925L12.0306 9.61078C11.3862 8.8611 11.3862 7.75308 12.0306 7.00339L14.8794 3.68915Z" fill="black"/>
</svg>
