<?xml version="1.0" encoding="UTF-8" standalone="no"?>
<svg
   width="20.000048"
   height="19.021681"
   viewBox="0 0 20.000048 19.021681"
   fill="none"
   version="1.1"
   id="svg1"
   sodipodi:docname="little_star.svg"
   inkscape:version="1.3.2 (091e20e, 2023-11-25)"
   xmlns:inkscape="http://www.inkscape.org/namespaces/inkscape"
   xmlns:sodipodi="http://sodipodi.sourceforge.net/DTD/sodipodi-0.dtd"
   xmlns="http://www.w3.org/2000/svg"
   xmlns:svg="http://www.w3.org/2000/svg">
  <defs
     id="defs1" />
  <sodipodi:namedview
     id="namedview1"
     pagecolor="#ffffff"
     bordercolor="#000000"
     borderopacity="0.25"
     inkscape:showpageshadow="2"
     inkscape:pageopacity="0.0"
     inkscape:pagecheckerboard="0"
     inkscape:deskcolor="#d1d1d1"
     inkscape:zoom="0.32152589"
     inkscape:cx="385.66102"
     inkscape:cy="367"
     inkscape:window-width="1504"
     inkscape:window-height="449"
     inkscape:window-x="0"
     inkscape:window-y="38"
     inkscape:window-maximized="0"
     inkscape:current-layer="svg1" />
  <path
     d="m 5.7256737,5.0562849 0.00701,-0.00138 0.00257,-0.00664 C 6.0146366,4.3298416 6.5628173,3.2138319 7.2975144,2.20574 8.0316924,1.1983697 8.9504402,0.30105341 9.9714265,0.01348274 10.99244,0.30108456 11.926865,1.2147035 12.676746,2.2384595 c 0.750374,1.0244543 1.314232,2.156816 1.593617,2.8751871 l 0.0026,0.00664 0.007,0.0014 c 0.760185,0.1510093 1.958266,0.4969964 3.081102,1.0439572 1.122058,0.5465715 2.166404,1.2926112 2.625687,2.2430506 -0.111115,1.0470979 -0.87387,1.9098336 -1.778109,2.6108666 -0.693064,0.537305 -1.467188,0.978108 -2.091159,1.333439 -0.19098,0.108728 -0.367867,0.209461 -0.524094,0.302512 l -0.0091,0.0054 0.0036,0.01004 c 0.05907,0.166427 0.128791,0.351853 0.204166,0.552334 0.254442,0.676634 0.573461,1.525121 0.766233,2.396863 0.249666,1.128961 0.286471,2.292677 -0.300253,3.169507 -0.962302,0.439842 -2.114597,0.158433 -3.199876,-0.327091 -0.542885,-0.242866 -1.068121,-0.536397 -1.543237,-0.815082 -0.154851,-0.09084 -0.304485,-0.180157 -0.447655,-0.265629 -0.295737,-0.176523 -0.563988,-0.336669 -0.794343,-0.460035 l -0.0061,-0.0033 -0.0061,0.0033 c -0.147064,0.07878 -0.3120635,0.170112 -0.4917285,0.2696 -0.656023,0.363204 -1.5073641,0.834609 -2.3954843,1.19661 C 6.2430711,18.848792 5.0572929,19.130435 4.1417896,18.789302 3.55561,17.912758 3.6255082,16.749431 3.9083975,15.620573 4.1085925,14.82174 4.4146341,14.042867 4.6682455,13.397456 4.7734952,13.129621 4.8697123,12.884757 4.9455544,12.671013 l 0.00358,-0.01004 -0.00916,-0.0054 C 4.712915,12.520264 4.4261843,12.367567 4.1059969,12.197039 3.9564152,12.117382 3.79954,12.033831 3.6380188,11.946361 3.1304585,11.671466 2.5765416,11.357482 2.0574389,11.00254 1.0195007,10.292812 0.12462562,9.4218227 0.01329689,8.3755295 0.47260222,7.4250381 1.5183815,6.6709782 2.6418198,6.1163345 3.7660834,5.5613275 4.9655661,5.2072941 5.7256737,5.0562849 Z"
     fill="#000000"
     stroke="#000000"
     id="path1"
     style="stroke-width:0.0259555" />
</svg>
