<?xml version="1.0" encoding="UTF-8" standalone="no"?>
<svg
   width="85.775894"
   height="83.574303"
   viewBox="0 0 85.775894 83.574303"
   fill="none"
   version="1.1"
   id="svg5"
   sodipodi:docname="validacao_pendente.svg"
   inkscape:version="1.3.2 (091e20e, 2023-11-25)"
   xmlns:inkscape="http://www.inkscape.org/namespaces/inkscape"
   xmlns:sodipodi="http://sodipodi.sourceforge.net/DTD/sodipodi-0.dtd"
   xmlns="http://www.w3.org/2000/svg"
   xmlns:svg="http://www.w3.org/2000/svg">
  <sodipodi:namedview
     id="namedview5"
     pagecolor="#ffffff"
     bordercolor="#000000"
     borderopacity="0.25"
     inkscape:showpageshadow="2"
     inkscape:pageopacity="0.0"
     inkscape:pagecheckerboard="0"
     inkscape:deskcolor="#d1d1d1"
     inkscape:zoom="5.181456"
     inkscape:cx="32.037327"
     inkscape:cy="66.776597"
     inkscape:window-width="1512"
     inkscape:window-height="945"
     inkscape:window-x="0"
     inkscape:window-y="37"
     inkscape:window-maximized="0"
     inkscape:current-layer="svg5" />
  <mask
     id="path-1-inside-1_590_765"
     fill="#ffffff">
    <path
       fill-rule="evenodd"
       clip-rule="evenodd"
       d="m 73.6953,34.0127 c 3.074,10.6134 4.5578,25.4456 -1.1258,39.4871 -6.4922,16.0391 -2.1645,26.1601 1.3351,34.3442 0.3895,0.911 0.7687,1.798 1.1215,2.666 -3.6284,-0.493 -7.4041,0.395 -10.5019,2.665 -11.3127,8.289 -26.5339,-3.02 -22.2333,-16.3693 1.9258,-5.9776 -0.2108,-12.6066 -5.2765,-16.3185 -11.3458,-8.3137 -5.5842,-26.4048 8.4815,-26.4048 6.2873,0 11.866,-4.0568 13.794,-10.0412 2.2334,-6.9326 8.3892,-10.2754 14.4054,-10.0285 z"
       id="path1" />
  </mask>
  <path
     fill-rule="evenodd"
     clip-rule="evenodd"
     d="m 43.083103,0.6292625 c 3.074,10.6134005 4.5578,25.4456005 -1.1258,39.4871005 -6.4922,16.0391 -2.1645,26.1601 1.3351,34.3442 0.3895,0.911 0.7687,1.798 1.1215,2.666 -3.6284,-0.493 -7.4041,0.395 -10.5019,2.665 -11.3127,8.289 -26.5338998,-3.02 -22.2333,-16.3693 1.9258,-5.9776 -0.2108,-12.6066 -5.2764998,-16.3185 -11.3458,-8.3137 -5.58419998,-26.4048 8.4814998,-26.4048 6.2873,0 11.866,-4.0568 13.794,-10.0412 2.2334,-6.9326005 8.3892,-10.2754005 14.4054,-10.0285005 z"
     fill="url(#paint0_linear_590_765)"
     id="path2"
     style="fill:url(#paint0_linear_590_765)" />
  <path
     d="m 72.5695,73.4998 -1.8539,-0.7504 z m 1.1258,-39.4871 0.082,-1.9983 1.4385,0.0591 0.4005,1.3828 z m 1.3308,76.4973 -2.9604,-1.88 v 0 z m 0,0 1.8529,-0.753 1.3005,3.2 -3.4226,-0.465 z m -10.5019,2.665 -1.1821,-1.613 v 0 z M 42.2909,96.8057 40.3873,96.1924 v 0 z m -5.2765,-16.3185 1.1821,-1.6133 v 0 z m 22.2755,-36.446 -1.9037,-0.6133 v 0 z m 11.4257,28.7082 c 5.4591,-13.4869 4.0571,-27.8277 1.0586,-38.1803 l 3.8421,-1.1128 c 3.1496,10.8741 4.7151,26.1979 -1.1929,40.7939 z m 2.10525,37.51521 C 71.07735,106.18761 68.2537,99.7398 67.5061,93.8702 66.7529,87.9558 67.3472,81.0711 70.7156,72.7494 l 3.7078,1.5008 c -3.1238,7.7174 -3.6118,13.9128 -2.9493,19.1146 0.6682,5.2467 2.5133,9.5862 4.2694,13.6932 z m 0.35245,0.99839 c -0.3449,-0.849 0.03835,-0.0844 -0.35245,-0.99839 L 75.7435,107.058 c 0.3881,0.907 0.7746,1.811 1.1355,2.699 z m -8.981,2.032 c 2.336067,-1.71172 5.465961,-2.04237 7.953796,-2.88729 1.267772,-0.43056 1.755757,-2.06909 3.149304,-1.87971 l -0.5385,3.964 c -3.1287,-0.426 -6.3815,0.341 -9.0506,2.296 z M 44.1946,97.419 c -3.7363,11.597 10.3284,22.961 19.9977,15.876 l 1.514,1.493 c -12.956,9.494 -30.184,-3.495 -25.319,-18.5956 z M 37.3285,79.9699 c 5.7632,4.223 7.1514,10.041 4.9624,16.8358 l -1.9036,-0.6133 c 1.6624,-5.1603 -0.1868,-10.8911 -4.555,-14.092 z m 8.1674,-23.8875 c -12.0776,0 -17.998,16.6841 -8.1674,23.8875 l -1.4962,2.1305 c -12.861,-9.4239 -6.3902,-30.018 9.6636,-30.018 z M 61.1935,44.6545 C 58.9988,51.4668 52.65,56.0824 45.4959,56.0824 v -4 c 5.4206,0 10.2291,-3.498 11.8903,-8.6545 z M 73.379678,34.811135 C 68.150478,34.596435 63.1188,38.6785 61.1935,44.6545 l -3.8073,-1.2266 c 2.5417,-7.8892 9.588,-11.6927 16.3911,-11.4135 z"
     fill="#9adada"
     mask="url(#path-1-inside-1_590_765)"
     id="path3"
     transform="translate(-30.612197,-33.383437)"
     sodipodi:nodetypes="cccccccccccccccccccccccccccccccccccccccccccccccccccsccccccccccccccccccccccccccccc" />
  <path
     d="m 14.772003,21.473763 c 6.8432,0 12.9157,-4.4152 15.0146,-10.9302 4.0995,-12.7247005 22.1029,-12.7248005 26.2024,0 2.0989,6.515 8.1714,10.9302 15.0148,10.9302 13.346,0 18.865,17.1922 8.056,25.1127 -5.514,4.0398 -7.835,11.2472 -5.741,17.7499 4.103,12.7332 -10.4118,23.4242 -21.1233,15.5752 -5.541,-4.06 -13.0744,-4.06 -18.6154,0 -10.7115,7.849 -25.2259998,-2.842 -21.1237,-15.5752 2.0949,-6.5027 -0.227,-13.7101 -5.7400998,-17.7499 -10.8094,-7.9205 -5.2901,-25.1127 8.0556998,-25.1127 z"
     fill="#dcf0f0"
     fill-opacity="0.1"
     stroke="#9adada"
     stroke-width="2"
     id="path4"
     sodipodi:nodetypes="sccsccccccs" />
  <defs
     id="defs5">
    <linearGradient
       id="paint0_linear_590_765"
       x1="53.7089"
       y1="34"
       x2="53.7089"
       y2="116"
       gradientUnits="userSpaceOnUse"
       gradientTransform="translate(-30.612197,-33.383437)">
      <stop
         stop-color="#DCF0F0"
         id="stop4" />
      <stop
         offset="1"
         stop-color="#B7E4E4"
         id="stop5" />
    </linearGradient>
  </defs>
</svg>
