<svg width="390" height="288" viewBox="0 0 390 288" fill="none" xmlns="http://www.w3.org/2000/svg">
<path d="M59.986 173C47.6326 176.462 37.7947 194.687 34.4292 203.341C25.2722 205.16 5.5395 211.868 -0.00012207 223.372C1.32679 236.056 21.6685 244.43 29.6778 249.2C26.5724 257.95 17.7434 275.488 24.8652 286.097C35.9472 290.251 53.542 279.27 61.7621 274.867C69.9821 279.27 86.2049 291.445 97.8568 286.097C104.979 275.488 96.9518 257.95 93.8463 249.2C101.856 244.43 118.989 236.255 120.316 223.571C114.776 212.068 95.0772 205.554 85.9202 203.734C82.5547 195.08 72.3394 176.462 59.986 173Z" fill="#587C9C" style="mix-blend-mode:luminosity"/>
<path d="M266.934 0C262.211 1.33109 258.45 8.33881 257.163 11.6665C253.662 12.366 246.118 14.9453 244 19.3685C244.507 24.2457 252.284 27.4656 255.347 29.2999C254.159 32.6643 250.784 39.4079 253.507 43.4873C257.743 45.0846 264.47 40.8622 267.613 39.1694C270.756 40.8622 276.958 45.5438 281.413 43.4873C284.136 39.4079 281.067 32.6643 279.88 29.2999C282.942 27.4656 289.493 24.3224 290 19.4453C287.882 15.022 280.351 12.5173 276.85 11.8178C275.563 8.49007 271.657 1.33109 266.934 0Z" fill="#587C9C" style="mix-blend-mode:luminosity"/>
<path d="M348.441 100C344.232 101.18 340.879 107.391 339.732 110.341C336.612 110.961 329.888 113.247 328 117.168C328.452 121.491 335.384 124.345 338.113 125.97C337.055 128.952 334.046 134.93 336.473 138.546C340.25 139.961 346.245 136.219 349.047 134.718C351.848 136.219 357.376 140.368 361.347 138.546C363.774 134.93 361.038 128.952 359.98 125.97C362.709 124.345 368.548 121.559 369 117.236C367.112 113.315 360.399 111.095 357.279 110.475C356.132 107.525 352.651 101.18 348.441 100Z" fill="#587C9C" style="mix-blend-mode:luminosity"/>
<path d="M245.934 206C241.211 207.331 237.45 214.339 236.163 217.667C232.662 218.366 225.118 220.945 223 225.369C223.507 230.246 231.284 233.466 234.347 235.3C233.159 238.664 229.784 245.408 232.507 249.487C236.743 251.085 243.47 246.862 246.613 245.169C249.756 246.862 255.958 251.544 260.413 249.487C263.136 245.408 260.067 238.664 258.88 235.3C261.942 233.466 268.493 230.322 269 225.445C266.882 221.022 259.351 218.517 255.85 217.818C254.563 214.49 250.657 207.331 245.934 206Z" fill="#587C9C" style="mix-blend-mode:luminosity"/>
<path d="M148.381 187C139.859 189.39 133.073 201.972 130.751 207.947C124.434 209.203 110.821 213.834 107 221.775C107.915 230.532 121.948 236.313 127.473 239.607C125.331 245.647 119.24 257.755 124.153 265.079C131.798 267.947 143.936 260.366 149.607 257.327C155.277 260.366 166.469 268.772 174.507 265.079C179.42 257.755 173.882 245.647 171.74 239.607C177.265 236.313 189.085 230.67 190 221.913C186.178 213.971 172.589 209.474 166.272 208.218C163.95 202.244 156.903 189.39 148.381 187Z" fill="#587C9C" style="mix-blend-mode:luminosity"/>
<path d="M210.857 44C200.59 46.8739 192.413 62.0042 189.616 69.1891C182.005 70.6993 165.604 76.2683 161 85.8184C162.103 96.3487 179.01 103.301 185.667 107.261C183.086 114.525 175.747 129.085 181.667 137.893C190.877 141.342 205.501 132.225 212.333 128.57C219.165 132.225 232.649 142.333 242.333 137.893C248.252 129.085 241.581 114.525 239 107.261C245.657 103.301 259.897 96.5144 261 85.9841C256.396 76.4339 240.023 71.0259 232.412 69.5157C229.615 62.3308 221.125 46.8739 210.857 44Z" fill="#587C9C" style="mix-blend-mode:luminosity"/>
<path d="M339.857 188C329.59 190.874 321.413 206.004 318.616 213.189C311.005 214.699 294.604 220.268 290 229.818C291.103 240.349 308.01 247.301 314.667 251.261C312.086 258.525 304.747 273.085 310.667 281.893C319.877 285.342 334.501 276.225 341.333 272.57C348.165 276.225 361.649 286.333 371.333 281.893C377.252 273.085 370.581 258.525 368 251.261C374.657 247.301 388.897 240.514 390 229.984C385.396 220.434 369.023 215.026 361.412 213.516C358.615 206.331 350.125 190.874 339.857 188Z" fill="#587C9C" style="mix-blend-mode:luminosity"/>
<path d="M289.857 149C279.59 151.874 271.413 167.004 268.616 174.189C261.005 175.699 244.604 181.268 240 190.818C241.103 201.349 258.01 208.301 264.667 212.261C262.086 219.525 254.747 234.085 260.667 242.893C269.877 246.342 284.501 237.225 291.333 233.57C298.165 237.225 311.649 247.333 321.333 242.893C327.252 234.085 320.581 219.525 318 212.261C324.657 208.301 338.897 201.514 340 190.984C335.396 181.434 319.023 176.026 311.412 174.516C308.615 167.331 300.125 151.874 289.857 149Z" fill="#587C9C" style="mix-blend-mode:luminosity"/>
<path d="M141.986 114C129.633 117.462 119.795 135.687 116.429 144.341C107.272 146.16 87.5395 152.868 81.9999 164.372C83.3268 177.056 103.668 185.43 111.678 190.2C108.572 198.95 99.7434 216.488 106.865 227.097C117.947 231.251 135.542 220.27 143.762 215.867C151.982 220.27 168.205 232.445 179.857 227.097C186.979 216.488 178.952 198.95 175.846 190.2C183.856 185.43 200.989 177.255 202.316 164.571C196.776 153.068 177.077 146.554 167.92 144.734C164.555 136.08 154.339 117.462 141.986 114Z" fill="#587C9C" style="mix-blend-mode:luminosity"/>
<path d="M141.986 114C129.633 117.462 119.795 135.687 116.429 144.341C107.272 146.16 87.5395 152.868 81.9999 164.372C83.3268 177.056 103.668 185.43 111.678 190.2C108.572 198.95 99.7434 216.488 106.865 227.097C117.947 231.251 135.542 220.27 143.762 215.867C151.982 220.27 168.205 232.445 179.857 227.097C186.979 216.488 178.952 198.95 175.846 190.2C183.856 185.43 200.989 177.255 202.316 164.571C196.776 153.068 177.077 146.554 167.92 144.734C164.555 136.08 154.339 117.462 141.986 114Z" fill="#587C9C" style="mix-blend-mode:luminosity"/>
<path d="M210.906 187C204.129 188.906 198.732 198.94 196.886 203.704C191.863 204.706 181.039 208.399 178 214.732C178.728 221.715 189.886 226.326 194.28 228.952C192.576 233.769 187.733 243.425 191.64 249.266C197.719 251.553 207.371 245.507 211.88 243.083C216.389 245.507 225.288 252.21 231.68 249.266C235.587 243.425 231.183 233.769 229.48 228.952C233.873 226.326 243.272 221.825 244 214.842C240.961 208.509 230.155 204.922 225.132 203.921C223.286 199.156 217.682 188.906 210.906 187Z" fill="#587C9C" style="mix-blend-mode:luminosity"/>
<path d="M52.3813 75C43.8593 77.3899 37.0727 89.972 34.751 95.9467C28.434 97.2026 14.8214 101.834 10.9999 109.775C11.9153 118.532 25.948 124.313 31.4732 127.607C29.3309 133.647 23.2403 145.755 28.1532 153.079C35.7982 155.947 47.9359 148.366 53.6065 145.327C59.2771 148.366 70.4684 156.772 78.5065 153.079C83.4195 145.755 77.8821 133.647 75.7399 127.607C81.2651 124.313 93.0845 118.67 93.9999 109.913C90.1784 101.971 76.589 97.4742 70.2721 96.2183C67.9504 90.2435 60.9033 77.3899 52.3813 75Z" fill="#587C9C" style="mix-blend-mode:luminosity"/>
</svg>
