<svg width="236" height="344" viewBox="0 0 236 344" fill="none" xmlns="http://www.w3.org/2000/svg">
<mask id="mask0_490_239" style="mask-type:alpha" maskUnits="userSpaceOnUse" x="0" y="-1" width="236" height="345">
<path d="M1 343H234.5L223 0H1V343Z" fill="#D9D9D9" stroke="black"/>
</mask>
<g mask="url(#mask0_490_239)">
<path d="M30.2961 100.199C187.053 91.2628 268.29 273.567 289.313 365.836C257.235 296.567 142.527 157.886 -59.6848 157.315L30.2961 100.199Z" fill="url(#paint0_linear_490_239)" fill-opacity="0.5"/>
<path d="M-59.238 157.277C142.973 157.848 257.682 296.529 289.76 365.798C227.269 312.415 61.3813 214.247 -94.5313 247.983L-59.238 157.277Z" fill="url(#paint1_linear_490_239)" fill-opacity="0.4"/>
<path d="M61.003 17.0594C276.916 58.5497 303.174 266.865 289.313 365.836C268.29 273.567 187.053 91.2627 30.296 100.199L45.6495 58.6291L61.003 17.0594Z" fill="url(#paint2_linear_490_239)" fill-opacity="0.5"/>
</g>
<defs>
<linearGradient id="paint0_linear_490_239" x1="277.102" y1="222.99" x2="-51.6682" y2="251.095" gradientUnits="userSpaceOnUse">
<stop stop-color="#FFDA51"/>
<stop offset="0.72" stop-color="white" stop-opacity="0"/>
</linearGradient>
<linearGradient id="paint1_linear_490_239" x1="279.646" y1="247.485" x2="-91.8591" y2="279.243" gradientUnits="userSpaceOnUse">
<stop offset="0.345" stop-color="#DFAEFF"/>
<stop offset="0.73" stop-color="white" stop-opacity="0"/>
</linearGradient>
<linearGradient id="paint2_linear_490_239" x1="282.047" y1="182.31" x2="39.0906" y2="203.079" gradientUnits="userSpaceOnUse">
<stop stop-color="#FF8889"/>
<stop offset="1" stop-color="white" stop-opacity="0"/>
</linearGradient>
</defs>
</svg>
