<svg width="76" height="47" viewBox="0 0 76 47" fill="none" xmlns="http://www.w3.org/2000/svg">
<path d="M63.0159 16.4373C63.1764 15.5948 63.2602 14.7254 63.2602 13.8365C63.2602 6.1948 57.0646 0 49.4218 0C44.7457 0 40.6111 2.31915 38.1063 5.86995C35.7014 3.85129 32.5996 2.63552 29.214 2.63552C21.6446 2.63552 15.4948 8.7119 15.3774 16.2522H15.3757C6.88388 16.2522 0 23.1352 0 31.6261C0 40.117 6.88388 47 15.3757 47H60.6244C69.116 47 76 40.117 76 31.6261C76 23.9487 70.3719 17.5861 63.0159 16.4373Z" fill="black"/>
</svg>
