<svg width="158" height="125" viewBox="0 0 158 125" fill="none" xmlns="http://www.w3.org/2000/svg">
<g filter="url(#filter0_d_289_254)">
<path d="M78.9476 16.8125C69.0762 19.5787 61.2149 34.142 58.5256 41.0575C51.2084 42.5112 35.4403 47.8714 31.0137 57.0636C32.074 67.1992 48.3287 73.8907 54.7288 77.7027C52.2473 84.6945 45.1922 98.7087 50.8831 107.186C59.7386 110.506 73.7983 101.731 80.3668 98.2131C86.9353 101.731 99.8986 111.46 109.21 107.186C114.9 98.7087 108.486 84.6945 106.005 77.7027C112.405 73.8907 126.096 67.3586 127.156 57.2231C122.729 48.0308 106.988 42.8255 99.6712 41.3719C96.9818 34.4563 88.819 19.5787 78.9476 16.8125Z" fill="url(#paint0_radial_289_254)"/>
</g>
<path d="M73.3651 48.7766C73.7646 49.1762 75.4589 50.1883 77.0915 51.4298" stroke="#25607A" stroke-width="0.639267" stroke-linecap="round" stroke-linejoin="round"/>
<path d="M87.4799 48.7766C87.0804 49.1762 85.386 50.1883 83.7535 51.4298" stroke="#25607A" stroke-width="0.639267" stroke-linecap="round" stroke-linejoin="round"/>
<path d="M73.8369 69.5303C73.8369 71.6542 70.1923 73.376 68.0683 73.376C65.9444 73.376 62.2998 71.6542 62.2998 69.5303C62.2998 67.4063 65.9444 65.6846 68.0683 65.6846C70.1923 65.6846 73.8369 67.4063 73.8369 69.5303Z" fill="#FFA498"/>
<path d="M97.4182 69.5303C97.4182 71.6542 93.7736 73.376 91.6496 73.376C89.5257 73.376 85.8811 71.6542 85.8811 69.5303C85.8811 67.4063 89.5257 65.6846 91.6496 65.6846C93.7736 65.6846 97.4182 67.4063 97.4182 69.5303Z" fill="#FFA498"/>
<g filter="url(#filter1_d_289_254)">
<path d="M5.93096 13.9277C6.58733 14.097 7.11004 14.9878 7.28885 15.4109C7.77539 15.4998 8.82383 15.8277 9.11816 16.39C9.04766 17.01 7.96686 17.4194 7.54131 17.6525C7.7063 18.0803 8.17541 18.9375 7.79701 19.4561C7.2082 19.6592 6.27335 19.1224 5.8366 18.9072C5.39985 19.1224 4.53789 19.7176 3.9188 19.4561C3.5404 18.9375 3.96689 18.0803 4.13189 17.6525C3.70633 17.4194 2.796 17.0198 2.7255 16.3998C3.01983 15.8374 4.06648 15.519 4.55302 15.4301C4.73183 15.0071 5.2746 14.097 5.93096 13.9277Z" fill="url(#paint1_radial_289_254)"/>
</g>
<g filter="url(#filter2_d_289_254)">
<path d="M32.1336 86.2285C32.79 86.3977 33.3127 87.2886 33.4915 87.7116C33.978 87.8006 35.0265 88.1285 35.3208 88.6908C35.2503 89.3108 34.1695 89.7201 33.7439 89.9533C33.9089 90.381 34.378 91.2383 33.9997 91.7569C33.4108 91.96 32.476 91.4232 32.0392 91.208C31.6025 91.4232 30.7405 92.0184 30.1214 91.7569C29.743 91.2383 30.1695 90.381 30.3345 89.9533C29.909 89.7201 28.9986 89.3206 28.9281 88.7005C29.2225 88.1382 30.2691 87.8198 30.7557 87.7309C30.9345 87.3078 31.4772 86.3977 32.1336 86.2285Z" fill="url(#paint2_radial_289_254)"/>
</g>
<g filter="url(#filter3_d_289_254)">
<path d="M123.843 13.9277C124.5 14.097 125.022 14.9878 125.201 15.4109C125.688 15.4998 126.736 15.8277 127.031 16.39C126.96 17.01 125.879 17.4194 125.454 17.6525C125.619 18.0803 126.088 18.9375 125.709 19.4561C125.121 19.6592 124.186 19.1224 123.749 18.9072C123.312 19.1224 122.45 19.7176 121.831 19.4561C121.453 18.9375 121.879 18.0803 122.044 17.6525C121.619 17.4194 120.708 17.0198 120.638 16.3998C120.932 15.8374 121.979 15.519 122.465 15.4301C122.644 15.0071 123.187 14.097 123.843 13.9277Z" fill="url(#paint3_radial_289_254)"/>
</g>
<g filter="url(#filter4_d_289_254)">
<path d="M146.164 95.4473C146.82 95.6165 147.343 96.5074 147.522 96.9304C148.009 97.0193 149.057 97.3472 149.351 97.9095C149.281 98.5295 148.2 98.9389 147.774 99.1721C147.939 99.5998 148.409 100.457 148.03 100.976C147.441 101.179 146.507 100.642 146.07 100.427C145.633 100.642 144.771 101.237 144.152 100.976C143.774 100.457 144.2 99.5998 144.365 99.1721C143.939 98.9389 143.029 98.5393 142.959 97.9193C143.253 97.357 144.3 97.0385 144.786 96.9496C144.965 96.5266 145.508 95.6165 146.164 95.4473Z" fill="url(#paint4_radial_289_254)"/>
</g>
<path d="M83.3063 59.1729C83.3063 55.4148 86.8548 54.5378 90.1109 52.3683C93.2475 50.5423 96.9155 55.4148 96.9155 59.1729C96.9155 62.931 93.869 65.9775 90.1109 65.9775C86.3528 65.9775 83.3063 62.931 83.3063 59.1729Z" fill="white"/>
<circle cx="90.6452" cy="59.9167" r="5.1276" fill="url(#paint5_linear_289_254)"/>
<circle cx="91.286" cy="59.2757" r="4.48665" fill="#1A3A47"/>
<path d="M92.7162 55.1029C92.866 54.6181 93.5522 54.6181 93.702 55.1029C93.7688 55.3191 93.9707 55.4665 94.1969 55.4665C94.7041 55.4665 94.9303 56.1101 94.5273 56.418L94.4854 56.4501C94.3069 56.5864 94.2324 56.8195 94.2987 57.034L94.3205 57.1043C94.4677 57.5808 93.9164 57.9654 93.5201 57.6626C93.3365 57.5223 93.0817 57.5223 92.8981 57.6626C92.5018 57.9654 91.9505 57.5808 92.0978 57.1043L92.1195 57.034C92.1858 56.8195 92.1113 56.5864 91.9328 56.4501L91.8909 56.418C91.4879 56.1101 91.7141 55.4665 92.2213 55.4665C92.4475 55.4665 92.6494 55.3191 92.7162 55.1029Z" fill="white"/>
<path d="M76.521 71.7998C77.6864 72.7672 80.5571 73.547 82.9305 71.7998" stroke="#25607A" stroke-width="0.639267" stroke-linecap="round" stroke-linejoin="round"/>
<path d="M53.8917 48.6278C60.7263 46.6231 63.1843 37.7692 63.559 33.5928L65.3576 35.4152C65.5374 36.5086 64.0512 43.1129 63.3767 46.3781C62.6588 49.8538 59.3813 52.7708 55.3859 54.7685C52.9886 55.9671 52.9886 59.7745 52.9886 60.7616L53.8917 67.0798C48.6759 67.6265 43.9247 65.0296 42.201 63.6627C42.9504 62.22 44.0466 60.8709 43.7992 58.3644C43.6193 56.5419 46.0549 52.0425 47.7946 51.1726C48.5937 50.7731 49.3928 49.9474 53.8917 48.6278Z" fill="url(#paint6_linear_289_254)"/>
<path d="M49.8686 30.5662C57.6433 33.767 61.0936 31.8998 61.847 30.5662L62.9771 33.3904C61.9977 35.9793 58.1857 40.8747 50.7726 39.745C43.3595 38.6153 39.9996 42.0986 39.2462 43.9814C34.9068 42.0986 34.726 34.2534 35.178 30.5662C36.8354 29.2325 42.0939 27.3653 49.8686 30.5662Z" fill="url(#paint7_linear_289_254)"/>
<rect x="61.2329" y="65.2861" width="6.30806" height="2.42618" rx="1.21309" transform="rotate(10.6694 61.2329 65.2861)" fill="#194457"/>
<rect x="59.9473" y="68.2744" width="6.30806" height="2.42618" rx="1.21309" transform="rotate(10.6694 59.9473 68.2744)" fill="#194457"/>
<rect width="6.30806" height="2.42618" rx="1.21309" transform="matrix(-0.982712 0.185142 0.185142 0.982712 100.634 64.8779)" fill="#194457"/>
<rect width="6.30806" height="2.42618" rx="1.21309" transform="matrix(-0.982712 0.185142 0.185142 0.982712 101.92 67.8672)" fill="#194457"/>
<path d="M78.1844 59.1729C78.1844 55.4148 74.6359 54.5378 71.3798 52.3683C68.2433 50.5423 64.5752 55.4148 64.5752 59.1729C64.5752 62.931 67.6217 65.9775 71.3798 65.9775C75.1379 65.9775 78.1844 62.931 78.1844 59.1729Z" fill="white"/>
<circle cx="71.914" cy="59.9167" r="5.1276" fill="url(#paint8_linear_289_254)"/>
<circle cx="72.5548" cy="59.2757" r="4.48665" fill="#1A3A47"/>
<path d="M73.985 55.1029C74.1348 54.6181 74.821 54.6181 74.9708 55.1029C75.0376 55.3191 75.2395 55.4665 75.4657 55.4665C75.9729 55.4665 76.1991 56.1101 75.7961 56.418L75.7542 56.4501C75.5757 56.5864 75.5012 56.8195 75.5675 57.034L75.5893 57.1043C75.7365 57.5808 75.1852 57.9654 74.7889 57.6626C74.6053 57.5223 74.3505 57.5223 74.1669 57.6626C73.7706 57.9654 73.2193 57.5808 73.3666 57.1043L73.3883 57.034C73.4546 56.8195 73.3801 56.5864 73.2016 56.4501L73.1597 56.418C72.7567 56.1101 72.9829 55.4665 73.4901 55.4665C73.7163 55.4665 73.9182 55.3191 73.985 55.1029Z" fill="white"/>
<path d="M59.8591 36.2068C59.2405 31.9496 62.4367 28.4292 64.1122 27.2012C70.0407 27.8834 84.1223 28.5111 93.7111 27.2012C95.423 28.4153 98.6888 31.8959 98.0567 36.1049C82.591 38.7247 66.1743 37.2984 59.8591 36.2068Z" fill="url(#paint9_linear_289_254)"/>
<defs>
<filter id="filter0_d_289_254" x="15.032" y="0.830836" width="128.106" height="123.403" filterUnits="userSpaceOnUse" color-interpolation-filters="sRGB">
<feFlood flood-opacity="0" result="BackgroundImageFix"/>
<feColorMatrix in="SourceAlpha" type="matrix" values="0 0 0 0 0 0 0 0 0 0 0 0 0 0 0 0 0 0 127 0" result="hardAlpha"/>
<feOffset/>
<feGaussianBlur stdDeviation="7.99083"/>
<feComposite in2="hardAlpha" operator="out"/>
<feColorMatrix type="matrix" values="0 0 0 0 1 0 0 0 0 0.898889 0 0 0 0 0.566667 0 0 0 1 0"/>
<feBlend mode="normal" in2="BackgroundImageFix" result="effect1_dropShadow_289_254"/>
<feBlend mode="normal" in="SourceGraphic" in2="effect1_dropShadow_289_254" result="shape"/>
</filter>
<filter id="filter1_d_289_254" x="-5.26525" y="5.9369" width="22.3742" height="21.5754" filterUnits="userSpaceOnUse" color-interpolation-filters="sRGB">
<feFlood flood-opacity="0" result="BackgroundImageFix"/>
<feColorMatrix in="SourceAlpha" type="matrix" values="0 0 0 0 0 0 0 0 0 0 0 0 0 0 0 0 0 0 127 0" result="hardAlpha"/>
<feOffset/>
<feGaussianBlur stdDeviation="3.99542"/>
<feComposite in2="hardAlpha" operator="out"/>
<feColorMatrix type="matrix" values="0 0 0 0 1 0 0 0 0 0.99125 0 0 0 0 0.925 0 0 0 1 0"/>
<feBlend mode="normal" in2="BackgroundImageFix" result="effect1_dropShadow_289_254"/>
<feBlend mode="normal" in="SourceGraphic" in2="effect1_dropShadow_289_254" result="shape"/>
</filter>
<filter id="filter2_d_289_254" x="20.9374" y="78.2377" width="22.3742" height="21.5754" filterUnits="userSpaceOnUse" color-interpolation-filters="sRGB">
<feFlood flood-opacity="0" result="BackgroundImageFix"/>
<feColorMatrix in="SourceAlpha" type="matrix" values="0 0 0 0 0 0 0 0 0 0 0 0 0 0 0 0 0 0 127 0" result="hardAlpha"/>
<feOffset/>
<feGaussianBlur stdDeviation="3.99542"/>
<feComposite in2="hardAlpha" operator="out"/>
<feColorMatrix type="matrix" values="0 0 0 0 1 0 0 0 0 0.99125 0 0 0 0 0.925 0 0 0 1 0"/>
<feBlend mode="normal" in2="BackgroundImageFix" result="effect1_dropShadow_289_254"/>
<feBlend mode="normal" in="SourceGraphic" in2="effect1_dropShadow_289_254" result="shape"/>
</filter>
<filter id="filter3_d_289_254" x="112.647" y="5.9369" width="22.3742" height="21.5754" filterUnits="userSpaceOnUse" color-interpolation-filters="sRGB">
<feFlood flood-opacity="0" result="BackgroundImageFix"/>
<feColorMatrix in="SourceAlpha" type="matrix" values="0 0 0 0 0 0 0 0 0 0 0 0 0 0 0 0 0 0 127 0" result="hardAlpha"/>
<feOffset/>
<feGaussianBlur stdDeviation="3.99542"/>
<feComposite in2="hardAlpha" operator="out"/>
<feColorMatrix type="matrix" values="0 0 0 0 1 0 0 0 0 0.99125 0 0 0 0 0.925 0 0 0 1 0"/>
<feBlend mode="normal" in2="BackgroundImageFix" result="effect1_dropShadow_289_254"/>
<feBlend mode="normal" in="SourceGraphic" in2="effect1_dropShadow_289_254" result="shape"/>
</filter>
<filter id="filter4_d_289_254" x="134.968" y="87.4564" width="22.3742" height="21.5754" filterUnits="userSpaceOnUse" color-interpolation-filters="sRGB">
<feFlood flood-opacity="0" result="BackgroundImageFix"/>
<feColorMatrix in="SourceAlpha" type="matrix" values="0 0 0 0 0 0 0 0 0 0 0 0 0 0 0 0 0 0 127 0" result="hardAlpha"/>
<feOffset/>
<feGaussianBlur stdDeviation="3.99542"/>
<feComposite in2="hardAlpha" operator="out"/>
<feColorMatrix type="matrix" values="0 0 0 0 1 0 0 0 0 0.99125 0 0 0 0 0.925 0 0 0 1 0"/>
<feBlend mode="normal" in2="BackgroundImageFix" result="effect1_dropShadow_289_254"/>
<feBlend mode="normal" in="SourceGraphic" in2="effect1_dropShadow_289_254" result="shape"/>
</filter>
<radialGradient id="paint0_radial_289_254" cx="0" cy="0" r="1" gradientUnits="userSpaceOnUse" gradientTransform="translate(82.121 70.9284) rotate(91.1277) scale(25.71 28.846)">
<stop stop-color="#FFF2D4"/>
<stop offset="1" stop-color="#FEE09A"/>
</radialGradient>
<radialGradient id="paint1_radial_289_254" cx="0" cy="0" r="1" gradientUnits="userSpaceOnUse" gradientTransform="translate(5.71996 17.2381) rotate(88.7742) scale(1.5728 1.91795)">
<stop stop-color="#C6FFF8"/>
<stop offset="1" stop-color="#48F2DE"/>
</radialGradient>
<radialGradient id="paint2_radial_289_254" cx="0" cy="0" r="1" gradientUnits="userSpaceOnUse" gradientTransform="translate(31.9226 89.5389) rotate(88.7742) scale(1.5728 1.91795)">
<stop stop-color="#FFD9DA"/>
<stop offset="1" stop-color="#FF9FA1"/>
</radialGradient>
<radialGradient id="paint3_radial_289_254" cx="0" cy="0" r="1" gradientUnits="userSpaceOnUse" gradientTransform="translate(123.632 17.2381) rotate(88.7742) scale(1.5728 1.91795)">
<stop stop-color="#EED4FF"/>
<stop offset="1" stop-color="#D89DFF"/>
</radialGradient>
<radialGradient id="paint4_radial_289_254" cx="0" cy="0" r="1" gradientUnits="userSpaceOnUse" gradientTransform="translate(145.953 98.7577) rotate(88.7742) scale(1.5728 1.91795)">
<stop stop-color="#DEFFDC"/>
<stop offset="1" stop-color="#9EE69A"/>
</radialGradient>
<linearGradient id="paint5_linear_289_254" x1="90.6452" y1="54.7891" x2="90.6452" y2="65.0443" gradientUnits="userSpaceOnUse">
<stop stop-color="#48C7FF"/>
<stop offset="1" stop-color="#0481B8"/>
</linearGradient>
<linearGradient id="paint6_linear_289_254" x1="63.7762" y1="58.3644" x2="56.7008" y2="42.0271" gradientUnits="userSpaceOnUse">
<stop stop-color="white"/>
<stop offset="0.5" stop-color="#E3E2E2"/>
<stop offset="1" stop-color="white"/>
</linearGradient>
<linearGradient id="paint7_linear_289_254" x1="46.5958" y1="47.9768" x2="52.5953" y2="28.0977" gradientUnits="userSpaceOnUse">
<stop stop-color="white"/>
<stop offset="0.5" stop-color="#E3E2E2"/>
<stop offset="1" stop-color="white"/>
</linearGradient>
<linearGradient id="paint8_linear_289_254" x1="71.914" y1="54.7891" x2="71.914" y2="65.0443" gradientUnits="userSpaceOnUse">
<stop stop-color="#48C7FF"/>
<stop offset="1" stop-color="#0481B8"/>
</linearGradient>
<linearGradient id="paint9_linear_289_254" x1="80.5569" y1="40.386" x2="79.7578" y2="26.4021" gradientUnits="userSpaceOnUse">
<stop stop-color="white"/>
<stop offset="0.5" stop-color="#E3E2E2"/>
<stop offset="1" stop-color="white"/>
</linearGradient>
</defs>
</svg>
