<svg width="212" height="63" viewBox="0 0 212 63" fill="none" xmlns="http://www.w3.org/2000/svg">
<path fill-rule="evenodd" clip-rule="evenodd" d="M6.42991 48.8271C7.38435 48.8271 8.18808 47.9731 8.84112 46.215C10.1974 41.5935 11.4533 32.0993 12.6589 17.6822L31.1449 35.9673C40.5888 45.0596 46.4159 49.6308 48.6262 49.6308C48.9276 49.6308 49.1787 49.5806 49.4299 49.4299C49.6811 49.5806 49.882 49.6308 50.0327 49.6308C51.59 49.6308 53.2979 49.028 55.0561 47.8224C55.7091 42.2465 56.111 39.4334 56.2617 39.3832C56.2617 34.7114 58.3213 24.6145 62.4907 9.04206C62.4907 7.03271 61.285 5.57593 58.8738 4.6215H53.8505C50.9369 4.6215 48.2745 14.4171 45.8131 33.9579C45.0093 33.8575 37.9766 27.0257 24.715 13.4626C16.0245 4.47079 10.0467 0 6.83178 0H4.42056C1.45678 0 0 14.7185 0 44.2056C0.502336 47.2699 1.50701 48.8271 3.01402 48.8271H6.42991ZM84.3523 13.111H82.5439C70.4878 15.7231 64.4598 21.4498 64.4598 30.2909V35.7664C64.4598 46.4661 72.5977 53.6998 88.9236 57.4673C102.788 54.9054 109.72 48.2745 109.72 37.5748V29.3867C109.72 21.5502 104.295 16.125 93.4446 13.111H88.9236C87.8687 13.111 87.2659 13.7138 87.1152 14.9194L84.3523 13.111ZM142.232 49.7815C139.67 55.3575 136.555 58.1706 132.989 58.1706C128.468 58.1706 120.882 43.3014 110.283 13.6133V12.7593C110.283 11.5035 111.689 10.6495 114.503 10.2477C118.17 11.5035 124.047 20.9977 132.135 38.8306C132.336 39.9357 132.888 40.4883 133.843 40.4883C133.843 39.785 138.062 31.396 146.451 15.271C148.26 11.3528 150.771 9.39369 154.036 9.39369C156.347 10.1472 158.005 11.5537 159.06 13.6133V15.271C159.06 16.8283 153.434 28.3318 142.232 49.7815ZM184.639 57.618H188.306C192.325 57.618 196.846 55.2068 201.919 50.3341H202.823V53.0467C203.577 59.125 204.833 62.139 206.49 62.139H207.395C209.806 62.139 211.011 58.5222 211.011 51.2383V43.0502C211.011 20.0432 203.125 8.53972 187.402 8.53972C169.217 10.75 160.125 18.6367 160.125 32.1495C160.125 49.1285 168.313 57.618 184.639 57.618ZM185.141 47.6717V46.868C175.496 46.868 170.674 41.493 170.674 30.6928C170.674 24.6145 175.798 20.646 185.995 18.7874H190.215C196.494 19.6916 199.608 24.2126 199.608 32.4007C199.608 38.7804 194.786 43.854 185.141 47.6717ZM81.5777 26.6893C82.4448 24.496 84.9796 19.8773 88.1625 19C91.3454 19.8773 93.9774 24.5957 94.8446 26.789C97.2039 27.25 102.279 28.9009 103.707 31.8162C103.405 34.6544 99.9282 36.6016 97.6979 37.8508C97.4022 38.0164 97.1284 38.1698 96.8868 38.3113C96.9782 38.5645 97.0861 38.8468 97.2028 39.1522C98.1084 41.521 99.5455 45.2804 97.9201 47.6621C95.4235 48.7892 92.1124 46.8451 89.85 45.5168C89.3919 45.2478 88.9768 45.0041 88.6201 44.8162C88.3925 44.9361 88.1371 45.0752 87.8588 45.2268C85.5473 46.4857 81.662 48.6017 79.1135 47.6621C77.5473 45.3672 78.975 41.7933 79.9244 39.4167C80.0874 39.0088 80.2362 38.6362 80.3535 38.3113C80.0019 38.1054 79.5582 37.8729 79.0622 37.6131C76.6464 36.3476 72.9904 34.4325 72.7068 31.7656C74.1341 28.8503 79.2183 27.1503 81.5777 26.6893Z" fill="white"/>
</svg>
