<?xml version="1.0" encoding="UTF-8" standalone="no"?>
<svg
   width="85.775894"
   height="83.574303"
   viewBox="0 0 85.775894 83.574303"
   fill="none"
   version="1.1"
   id="svg2"
   sodipodi:docname="nao_feito.svg"
   inkscape:version="1.3.2 (091e20e, 2023-11-25)"
   xmlns:inkscape="http://www.inkscape.org/namespaces/inkscape"
   xmlns:sodipodi="http://sodipodi.sourceforge.net/DTD/sodipodi-0.dtd"
   xmlns="http://www.w3.org/2000/svg"
   xmlns:svg="http://www.w3.org/2000/svg">
  <defs
     id="defs2" />
  <sodipodi:namedview
     id="namedview2"
     pagecolor="#ffffff"
     bordercolor="#000000"
     borderopacity="0.25"
     inkscape:showpageshadow="2"
     inkscape:pageopacity="0.0"
     inkscape:pagecheckerboard="0"
     inkscape:deskcolor="#d1d1d1"
     inkscape:zoom="1.6737589"
     inkscape:cx="43.016949"
     inkscape:cy="37.042373"
     inkscape:window-width="1504"
     inkscape:window-height="449"
     inkscape:window-x="0"
     inkscape:window-y="25"
     inkscape:window-maximized="0"
     inkscape:current-layer="svg2" />
  <path
     d="m 14.772003,21.473763 c 6.8432,0 12.9157,-4.4152 15.0146,-10.9302 4.0995,-12.7247005 22.1029,-12.7248005 26.2024,0 2.0989,6.515 8.1714,10.9302 15.0148,10.9302 13.346,0 18.865,17.1922 8.056,25.1127 -5.514,4.0398 -7.835,11.2472 -5.741,17.7499 4.103,12.7332 -10.4118,23.4242 -21.1233,15.5752 -5.541,-4.06 -13.0744,-4.06 -18.6154,0 -10.7115,7.849 -25.2259998,-2.842 -21.1237,-15.5752 2.0949,-6.5027 -0.227,-13.7101 -5.7400998,-17.7499 -10.8094,-7.9205 -5.2901,-25.1127 8.0556998,-25.1127 z"
     fill="#dcf0f0"
     fill-opacity="0.1"
     stroke="#9adada"
     stroke-width="2"
     id="path1" />
  <path
     d="m 39.537203,51.808463 c -0.6036,0 -1.0544,-0.4661 -1.0544,-1.2148 v -10.3754 c 0,-0.7487 0.4508,-1.2148 1.0544,-1.2148 0.3132,0 0.5882,0.107 0.9397,0.3057 l 8.5493,4.9584 c 0.6418,0.3668 0.9092,0.6647 0.9092,1.1384 0,0.4737 -0.2674,0.7717 -0.9092,1.1384 l -8.5493,4.9585 c -0.3515,0.1986 -0.6265,0.3056 -0.9397,0.3056 z"
     fill="#65c2c2"
     id="path2" />
</svg>
