<?xml version="1.0" encoding="UTF-8" standalone="no"?>
<svg
   width="1003.034"
   height="839.31396"
   viewBox="0 0 1003.034 839.31397"
   fill="none"
   version="1.1"
   id="svg34"
   sodipodi:docname="star_smile.svg"
   inkscape:version="1.3.2 (091e20e, 2023-11-25)"
   xmlns:inkscape="http://www.inkscape.org/namespaces/inkscape"
   xmlns:sodipodi="http://sodipodi.sourceforge.net/DTD/sodipodi-0.dtd"
   xmlns="http://www.w3.org/2000/svg"
   xmlns:svg="http://www.w3.org/2000/svg">
  <sodipodi:namedview
     id="namedview34"
     pagecolor="#ffffff"
     bordercolor="#000000"
     borderopacity="0.25"
     inkscape:showpageshadow="2"
     inkscape:pageopacity="0.0"
     inkscape:pagecheckerboard="0"
     inkscape:deskcolor="#d1d1d1"
     inkscape:zoom="0.23205506"
     inkscape:cx="521.42797"
     inkscape:cy="420.1589"
     inkscape:window-width="1504"
     inkscape:window-height="830"
     inkscape:window-x="0"
     inkscape:window-y="38"
     inkscape:window-maximized="0"
     inkscape:current-layer="svg34" />
  <g
     id="g34"
     transform="translate(0,-86.458391)">
    <g
       filter="url(#filter0_d_103_2)"
       id="g1"
       transform="translate(-0.612427,-0.420609)">
      <path
         d="m 500.065,173.338 c -79.116,22.171 -142.121,138.89 -163.675,194.316 -58.645,11.65 -185.021,54.61 -220.499,128.283 8.498,81.233 138.774,134.864 190.069,165.415 -19.889,56.037 -76.433,168.356 -30.822,236.302 70.973,26.605 183.657,-43.724 236.301,-71.918 52.645,28.194 156.541,106.171 231.165,71.918 45.61,-67.946 -5.797,-180.265 -25.685,-236.302 51.295,-30.551 161.022,-82.904 169.52,-164.137 C 850.962,423.543 724.802,381.824 666.157,370.173 644.603,314.747 579.181,195.509 500.065,173.338 Z"
         fill="url(#paint0_radial_103_2)"
         id="path1"
         style="fill:url(#paint0_radial_103_2)" />
    </g>
    <path
       d="m 526.52157,616.83839 c -24.646,9.562 -34.648,-10e-4 -36.574,-10e-4 -15.403,-7.968 -17.336,9.961 -15.407,13.945 1.929,3.984 5.142,8.873 8.99,12.857 19.258,15.936 37.218,11.048 46.842,-0.904 15.408,-23.905 3.851,-28.553 -3.851,-25.897 z"
       fill="#082a39"
       id="path2" />
    <path
       d="m 489.93457,646.84239 c 5.337,-4.269 19.854,-10.247 35.224,0 -15.37,12.809 -29.887,5.337 -35.224,0 z"
       fill="#dc6060"
       id="path3" />
    <path
       d="m 612.60357,461.87339 c -1.713,-3.425 -9.247,-10.274 -25.685,-10.274"
       stroke="#25607a"
       stroke-width="5.1235"
       stroke-linecap="round"
       stroke-linejoin="round"
       id="path5" />
    <path
       d="m 458.49057,595.43239 c 0,17.023 -29.21,30.822 -46.233,30.822 -17.022,0 -46.233,-13.799 -46.233,-30.822 0,-17.022 29.211,-30.822 46.233,-30.822 17.023,0 46.233,13.8 46.233,30.822 z"
       fill="#ffa498"
       id="path6" />
    <path
       d="m 647.48557,595.43239 c 0,17.023 -29.21,30.822 -46.232,30.822 -17.023,0 -46.233,-13.799 -46.233,-30.822 0,-17.022 29.21,-30.822 46.233,-30.822 17.022,0 46.232,13.8 46.232,30.822 z"
       fill="#ffa498"
       id="path7" />
    <g
       filter="url(#filter1_d_103_2)"
       id="g8"
       transform="translate(-0.612427,-0.420609)">
      <path
         d="m 224.838,250.191 c 5.261,1.357 9.45,8.497 10.884,11.887 3.899,0.713 12.302,3.341 14.661,7.848 -0.565,4.969 -9.227,8.25 -12.638,10.118 1.322,3.428 5.082,10.299 2.049,14.456 -4.719,1.627 -12.211,-2.675 -15.712,-4.4 -3.5,1.725 -10.408,6.495 -15.37,4.4 -3.033,-4.157 0.385,-11.028 1.708,-14.456 -3.411,-1.868 -10.707,-5.071 -11.272,-10.04 2.359,-4.507 10.747,-7.059 14.647,-7.772 1.433,-3.39 5.783,-10.684 11.043,-12.041 z"
         fill="url(#paint1_radial_103_2)"
         id="path8"
         style="fill:url(#paint1_radial_103_2)" />
    </g>
    <g
       filter="url(#filter2_d_103_2)"
       id="g9"
       transform="translate(-0.612427,-43.422627)">
      <path
         d="m 90.3468,647.262 c 5.2606,1.356 9.4499,8.496 10.8832,11.887 3.899,0.713 12.302,3.341 14.661,7.847 -0.565,4.97 -9.227,8.25 -12.638,10.119 1.323,3.428 5.082,10.299 2.05,14.455 -4.72,1.628 -12.2121,-2.674 -15.7125,-4.399 -3.5004,1.725 -10.4086,6.495 -15.3705,4.399 -3.0327,-4.156 0.3855,-11.027 1.7079,-14.455 -3.4107,-1.869 -10.7067,-5.071 -11.2717,-10.04 2.359,-4.507 10.7475,-7.059 14.6469,-7.772 1.4332,-3.39 5.7832,-10.685 11.0437,-12.041 z"
         fill="url(#paint2_radial_103_2)"
         id="path9"
         style="fill:url(#paint2_radial_103_2)" />
    </g>
    <g
       filter="url(#filter3_d_103_2)"
       id="g10"
       transform="translate(-35.087003,21.995079)">
      <path
         d="m 948.533,647.262 c 5.261,1.356 9.45,8.496 10.883,11.887 3.9,0.713 12.303,3.341 14.662,7.847 -0.566,4.97 -9.228,8.25 -12.638,10.119 1.322,3.428 5.082,10.299 2.049,14.455 -4.719,1.628 -12.212,-2.674 -15.712,-4.399 -3.501,1.725 -10.409,6.495 -15.371,4.399 -3.032,-4.156 0.386,-11.027 1.708,-14.455 -3.41,-1.869 -10.706,-5.071 -11.271,-10.04 2.358,-4.507 10.747,-7.059 14.646,-7.772 1.434,-3.39 5.784,-10.685 11.044,-12.041 z"
         fill="url(#paint3_radial_103_2)"
         id="path10"
         style="fill:url(#paint3_radial_103_2)" />
    </g>
    <g
       filter="url(#filter4_d_103_2)"
       id="g11"
       transform="translate(206.23503,86.037782)">
      <path
         d="m 589.888,64.4644 c 5.261,1.3562 9.45,8.4962 10.883,11.8867 3.9,0.7127 12.303,3.3407 14.662,7.8474 -0.565,4.9693 -9.228,8.25 -12.638,10.1189 1.322,3.4279 5.082,10.2986 2.049,14.4556 -4.719,1.627 -12.211,-2.675 -15.712,-4.4 -3.5,1.725 -10.409,6.495 -15.37,4.4 -3.033,-4.157 0.385,-11.0277 1.707,-14.4556 -3.41,-1.8689 -10.706,-5.0714 -11.271,-10.0407 2.359,-4.5067 10.747,-7.0588 14.647,-7.7715 1.433,-3.3905 5.783,-10.6846 11.043,-12.0408 z"
         fill="url(#paint4_radial_103_2)"
         id="path11"
         style="fill:url(#paint4_radial_103_2)" />
    </g>
    <path
       d="m 461.25057,541.83639 c -18.68,-18.607 -42.03,-7.753 -51.37,0 l -12.809,-10.274"
       stroke="#25607a"
       stroke-width="5.1235"
       stroke-linecap="round"
       stroke-linejoin="round"
       id="path12" />
    <path
       d="m 557.18057,541.83639 c 18.68,-18.607 42.03,-7.753 51.37,0 l 12.809,-10.274"
       stroke="#25607a"
       stroke-width="5.1235"
       stroke-linecap="round"
       stroke-linejoin="round"
       id="path13" />
    <path
       d="m 461.25057,541.83639 c -18.68,-18.607 -42.03,-7.753 -51.37,0 l -12.809,-10.274"
       stroke="#25607a"
       stroke-width="5.1235"
       stroke-linecap="round"
       stroke-linejoin="round"
       id="path14" />
    <path
       d="m 557.18057,541.83639 c 18.68,-18.607 42.03,-7.753 51.37,0 l 12.809,-10.274"
       stroke="#25607a"
       stroke-width="5.1235"
       stroke-linecap="round"
       stroke-linejoin="round"
       id="path15" />
  </g>
  <defs
     id="defs34">
    <filter
       id="filter0_d_103_2"
       x="95.891197"
       y="153.338"
       width="810.54797"
       height="772.85498"
       filterUnits="userSpaceOnUse"
       color-interpolation-filters="sRGB">
      <feFlood
         flood-opacity="0"
         result="BackgroundImageFix"
         id="feFlood15" />
      <feColorMatrix
         in="SourceAlpha"
         type="matrix"
         values="0 0 0 0 0 0 0 0 0 0 0 0 0 0 0 0 0 0 127 0"
         result="hardAlpha"
         id="feColorMatrix15" />
      <feOffset
         id="feOffset15" />
      <feGaussianBlur
         stdDeviation="10"
         id="feGaussianBlur15" />
      <feComposite
         in2="hardAlpha"
         operator="out"
         id="feComposite15" />
      <feColorMatrix
         type="matrix"
         values="0 0 0 0 1 0 0 0 0 0.983359 0 0 0 0 0.909229 0 0 0 1 0"
         id="feColorMatrix16" />
      <feBlend
         mode="normal"
         in2="BackgroundImageFix"
         result="effect1_dropShadow_103_2"
         id="feBlend16" />
      <feBlend
         mode="normal"
         in="SourceGraphic"
         in2="effect1_dropShadow_103_2"
         result="shape"
         id="feBlend17" />
    </filter>
    <filter
       id="filter1_d_103_2"
       x="135.104"
       y="186.14799"
       width="179.32201"
       height="172.918"
       filterUnits="userSpaceOnUse"
       color-interpolation-filters="sRGB">
      <feFlood
         flood-opacity="0"
         result="BackgroundImageFix"
         id="feFlood17" />
      <feColorMatrix
         in="SourceAlpha"
         type="matrix"
         values="0 0 0 0 0 0 0 0 0 0 0 0 0 0 0 0 0 0 127 0"
         result="hardAlpha"
         id="feColorMatrix17" />
      <feOffset
         id="feOffset17" />
      <feGaussianBlur
         stdDeviation="32.0219"
         id="feGaussianBlur17" />
      <feComposite
         in2="hardAlpha"
         operator="out"
         id="feComposite17" />
      <feColorMatrix
         type="matrix"
         values="0 0 0 0 1 0 0 0 0 0.99125 0 0 0 0 0.925 0 0 0 1 0"
         id="feColorMatrix18" />
      <feBlend
         mode="normal"
         in2="BackgroundImageFix"
         result="effect1_dropShadow_103_2"
         id="feBlend18" />
      <feBlend
         mode="normal"
         in="SourceGraphic"
         in2="effect1_dropShadow_103_2"
         result="shape"
         id="feBlend19" />
    </filter>
    <filter
       id="filter2_d_103_2"
       x="0.612427"
       y="583.21802"
       width="179.32201"
       height="172.918"
       filterUnits="userSpaceOnUse"
       color-interpolation-filters="sRGB">
      <feFlood
         flood-opacity="0"
         result="BackgroundImageFix"
         id="feFlood19" />
      <feColorMatrix
         in="SourceAlpha"
         type="matrix"
         values="0 0 0 0 0 0 0 0 0 0 0 0 0 0 0 0 0 0 127 0"
         result="hardAlpha"
         id="feColorMatrix19" />
      <feOffset
         id="feOffset19" />
      <feGaussianBlur
         stdDeviation="32.0219"
         id="feGaussianBlur19" />
      <feComposite
         in2="hardAlpha"
         operator="out"
         id="feComposite19" />
      <feColorMatrix
         type="matrix"
         values="0 0 0 0 1 0 0 0 0 0.99125 0 0 0 0 0.925 0 0 0 1 0"
         id="feColorMatrix20" />
      <feBlend
         mode="normal"
         in2="BackgroundImageFix"
         result="effect1_dropShadow_103_2"
         id="feBlend20" />
      <feBlend
         mode="normal"
         in="SourceGraphic"
         in2="effect1_dropShadow_103_2"
         result="shape"
         id="feBlend21" />
    </filter>
    <filter
       id="filter3_d_103_2"
       x="858.79901"
       y="583.21802"
       width="179.32201"
       height="172.918"
       filterUnits="userSpaceOnUse"
       color-interpolation-filters="sRGB">
      <feFlood
         flood-opacity="0"
         result="BackgroundImageFix"
         id="feFlood21" />
      <feColorMatrix
         in="SourceAlpha"
         type="matrix"
         values="0 0 0 0 0 0 0 0 0 0 0 0 0 0 0 0 0 0 127 0"
         result="hardAlpha"
         id="feColorMatrix21" />
      <feOffset
         id="feOffset21" />
      <feGaussianBlur
         stdDeviation="32.0219"
         id="feGaussianBlur21" />
      <feComposite
         in2="hardAlpha"
         operator="out"
         id="feComposite21" />
      <feColorMatrix
         type="matrix"
         values="0 0 0 0 1 0 0 0 0 0.99125 0 0 0 0 0.925 0 0 0 1 0"
         id="feColorMatrix22" />
      <feBlend
         mode="normal"
         in2="BackgroundImageFix"
         result="effect1_dropShadow_103_2"
         id="feBlend22" />
      <feBlend
         mode="normal"
         in="SourceGraphic"
         in2="effect1_dropShadow_103_2"
         result="shape"
         id="feBlend23" />
    </filter>
    <filter
       id="filter4_d_103_2"
       x="500.15399"
       y="0.420609"
       width="179.32201"
       height="172.918"
       filterUnits="userSpaceOnUse"
       color-interpolation-filters="sRGB">
      <feFlood
         flood-opacity="0"
         result="BackgroundImageFix"
         id="feFlood23" />
      <feColorMatrix
         in="SourceAlpha"
         type="matrix"
         values="0 0 0 0 0 0 0 0 0 0 0 0 0 0 0 0 0 0 127 0"
         result="hardAlpha"
         id="feColorMatrix23" />
      <feOffset
         id="feOffset23" />
      <feGaussianBlur
         stdDeviation="32.0219"
         id="feGaussianBlur23" />
      <feComposite
         in2="hardAlpha"
         operator="out"
         id="feComposite23" />
      <feColorMatrix
         type="matrix"
         values="0 0 0 0 1 0 0 0 0 0.99125 0 0 0 0 0.925 0 0 0 1 0"
         id="feColorMatrix24" />
      <feBlend
         mode="normal"
         in2="BackgroundImageFix"
         result="effect1_dropShadow_103_2"
         id="feBlend24" />
      <feBlend
         mode="normal"
         in="SourceGraphic"
         in2="effect1_dropShadow_103_2"
         result="shape"
         id="feBlend25" />
    </filter>
    <radialGradient
       id="paint0_radial_103_2"
       cx="0"
       cy="0"
       r="1"
       gradientUnits="userSpaceOnUse"
       gradientTransform="matrix(-4.0553681,206.01709,-231.14622,-4.5500255,525.498,607.058)">
      <stop
         stop-color="#FFF2D4"
         id="stop25" />
      <stop
         offset="1"
         stop-color="#FEE09A"
         id="stop26" />
    </radialGradient>
    <radialGradient
       id="paint1_radial_103_2"
       cx="0"
       cy="0"
       r="1"
       gradientUnits="userSpaceOnUse"
       gradientTransform="matrix(0.26966459,12.602615,-15.368182,0.32884084,223.147,276.723)">
      <stop
         stop-color="#C6FFF8"
         id="stop27" />
      <stop
         offset="1"
         stop-color="#48F2DE"
         id="stop28" />
    </radialGradient>
    <radialGradient
       id="paint2_radial_103_2"
       cx="0"
       cy="0"
       r="1"
       gradientUnits="userSpaceOnUse"
       gradientTransform="matrix(0.26966459,12.602615,-15.368182,0.32884084,88.6557,673.794)">
      <stop
         stop-color="#FFD9DA"
         id="stop29" />
      <stop
         offset="1"
         stop-color="#FF9FA1"
         id="stop30" />
    </radialGradient>
    <radialGradient
       id="paint3_radial_103_2"
       cx="0"
       cy="0"
       r="1"
       gradientUnits="userSpaceOnUse"
       gradientTransform="matrix(0.26966459,12.602615,-15.368182,0.32884084,946.842,673.794)">
      <stop
         stop-color="#EED4FF"
         id="stop31" />
      <stop
         offset="1"
         stop-color="#D89DFF"
         id="stop32" />
    </radialGradient>
    <radialGradient
       id="paint4_radial_103_2"
       cx="0"
       cy="0"
       r="1"
       gradientUnits="userSpaceOnUse"
       gradientTransform="matrix(0.26966459,12.602615,-15.368182,0.32884084,588.197,90.9961)">
      <stop
         stop-color="#DEFFDC"
         id="stop33" />
      <stop
         offset="1"
         stop-color="#9EE69A"
         id="stop34" />
    </radialGradient>
  </defs>
</svg>
